<?xml version="1.0" encoding="us-ascii" standalone="no"?><svg xmlns="http://www.w3.org/2000/svg" xmlns:xlink="http://www.w3.org/1999/xlink" contentStyleType="text/css" height="1287px" preserveAspectRatio="none" style="width:2546px;height:1287px;background:#FFFFFF;" version="1.1" viewBox="0 0 2546 1287" width="2546px" zoomAndPan="magnify"><defs/><g><!--cluster model--><g id="cluster_model"><path d="M484.5,6 L534.5,6 A3.75,3.75 0 0 1 537,8.5 L544,28.2969 L1273.5,28.2969 A2.5,2.5 0 0 1 1276,30.7969 L1276,1277.5 A2.5,2.5 0 0 1 1273.5,1280 L484.5,1280 A2.5,2.5 0 0 1 482,1277.5 L482,8.5 A2.5,2.5 0 0 1 484.5,6 " fill="none" style="stroke:#000000;stroke-width:1.5;"/><line style="stroke:#000000;stroke-width:1.5;" x1="482" x2="544" y1="28.2969" y2="28.2969"/><text fill="#000000" font-family="sans-serif" font-size="14" font-weight="bold" lengthAdjust="spacing" textLength="49" x="486" y="20.9951">model</text></g><!--cluster controller--><g id="cluster_controller"><path d="M1302.5,342 L1383.5,342 A3.75,3.75 0 0 1 1386,344.5 L1393,364.2969 L2536.5,364.2969 A2.5,2.5 0 0 1 2539,366.7969 L2539,552.5 A2.5,2.5 0 0 1 2536.5,555 L1302.5,555 A2.5,2.5 0 0 1 1300,552.5 L1300,344.5 A2.5,2.5 0 0 1 1302.5,342 " fill="none" style="stroke:#000000;stroke-width:1.5;"/><line style="stroke:#000000;stroke-width:1.5;" x1="1300" x2="1393" y1="364.2969" y2="364.2969"/><text fill="#000000" font-family="sans-serif" font-size="14" font-weight="bold" lengthAdjust="spacing" textLength="80" x="1304" y="356.9951">controller</text></g><!--class Game--><g id="elem_Game"><rect codeLine="13" fill="#F1F1F1" height="276.1563" id="Game" rx="2.5" ry="2.5" style="stroke:#181818;stroke-width:0.5;" width="267" x="992.5" y="41"/><ellipse cx="1100.75" cy="57" fill="#ADD1B2" rx="11" ry="11" style="stroke:#181818;stroke-width:1.0;"/><path d="M1103.0938,52.6719 C1102.1563,52.2344 1101.5625,52.0938 1100.6875,52.0938 C1098.0625,52.0938 1096.0625,54.1719 1096.0625,56.8906 L1096.0625,58.0156 C1096.0625,60.5938 1098.1719,62.4844 1101.0625,62.4844 C1102.2813,62.4844 1103.4375,62.1875 1104.1875,61.6406 C1104.7656,61.2344 1105.0938,60.7813 1105.0938,60.3906 C1105.0938,59.9375 1104.7031,59.5469 1104.2344,59.5469 C1104.0156,59.5469 1103.8125,59.625 1103.625,59.8125 C1103.1719,60.2969 1103.1719,60.2969 1102.9844,60.3906 C1102.5625,60.6563 1101.875,60.7813 1101.1094,60.7813 C1099.0625,60.7813 1097.7656,59.6875 1097.7656,57.9844 L1097.7656,56.8906 C1097.7656,55.1094 1099.0156,53.7969 1100.75,53.7969 C1101.3281,53.7969 1101.9375,53.9531 1102.4063,54.2031 C1102.8906,54.4844 1103.0625,54.7031 1103.1563,55.1094 C1103.2188,55.5156 1103.25,55.6406 1103.3906,55.7656 C1103.5313,55.9063 1103.7656,56.0156 1103.9844,56.0156 C1104.25,56.0156 1104.5156,55.875 1104.6875,55.6563 C1104.7969,55.5 1104.8281,55.3125 1104.8281,54.8906 L1104.8281,53.4688 C1104.8281,53.0313 1104.8125,52.9063 1104.7188,52.75 C1104.5625,52.4844 1104.2813,52.3438 1103.9844,52.3438 C1103.6875,52.3438 1103.4844,52.4375 1103.2656,52.75 L1103.0938,52.6719 Z " fill="#000000"/><text fill="#000000" font-family="sans-serif" font-size="14" lengthAdjust="spacing" textLength="42" x="1121.25" y="61.8467">Game</text><line style="stroke:#181818;stroke-width:0.5;" x1="993.5" x2="1258.5" y1="73" y2="73"/><rect fill="none" height="6" style="stroke:#C82930;stroke-width:1.0;" width="6" x="1000.5" y="83.6484"/><text fill="#000000" font-family="sans-serif" font-size="14" lengthAdjust="spacing" textLength="111" x="1012.5" y="89.9951">numPlayers: int</text><rect fill="none" height="6" style="stroke:#C82930;stroke-width:1.0;" width="6" x="1000.5" y="99.9453"/><text fill="#000000" font-family="sans-serif" font-size="14" lengthAdjust="spacing" textLength="147" x="1012.5" y="106.292">numParticipants: int</text><rect fill="none" height="6" style="stroke:#C82930;stroke-width:1.0;" width="6" x="1000.5" y="116.2422"/><text fill="#000000" font-family="sans-serif" font-size="14" lengthAdjust="spacing" textLength="165" x="1012.5" y="122.5889">currentPlayer: COLORE</text><rect fill="none" height="6" style="stroke:#C82930;stroke-width:1.0;" width="6" x="1000.5" y="132.5391"/><text fill="#000000" font-family="sans-serif" font-size="14" lengthAdjust="spacing" textLength="187" x="1012.5" y="138.8857">commonObjectives: int[2]</text><rect fill="none" height="6" style="stroke:#C82930;stroke-width:1.0;" width="6" x="1000.5" y="148.8359"/><text fill="#000000" font-family="sans-serif" font-size="14" lengthAdjust="spacing" textLength="153" x="1012.5" y="155.1826">placedCards: int[2][2]</text><line style="stroke:#181818;stroke-width:0.5;" x1="993.5" x2="1258.5" y1="162.4844" y2="162.4844"/><ellipse cx="1003.5" cy="176.1328" fill="#84BE84" rx="3" ry="3" style="stroke:#038048;stroke-width:1.0;"/><text fill="#000000" font-family="sans-serif" font-size="14" lengthAdjust="spacing" textLength="193" x="1012.5" y="179.4795">drawResourceCards() : void</text><ellipse cx="1003.5" cy="192.4297" fill="#84BE84" rx="3" ry="3" style="stroke:#038048;stroke-width:1.0;"/><text fill="#000000" font-family="sans-serif" font-size="14" lengthAdjust="spacing" textLength="153" x="1012.5" y="195.7764">drawGoldCard() : void</text><ellipse cx="1003.5" cy="208.7266" fill="#84BE84" rx="3" ry="3" style="stroke:#038048;stroke-width:1.0;"/><text fill="#000000" font-family="sans-serif" font-size="14" lengthAdjust="spacing" textLength="205" x="1012.5" y="212.0732">drawSecretObjective() : void</text><ellipse cx="1003.5" cy="225.0234" fill="#84BE84" rx="3" ry="3" style="stroke:#038048;stroke-width:1.0;"/><text fill="#000000" font-family="sans-serif" font-size="14" lengthAdjust="spacing" textLength="225" x="1012.5" y="228.3701">getPoints( COLORE colore) : int</text><ellipse cx="1003.5" cy="241.3203" fill="#84BE84" rx="3" ry="3" style="stroke:#038048;stroke-width:1.0;"/><text fill="#000000" font-family="sans-serif" font-size="14" lengthAdjust="spacing" textLength="136" x="1012.5" y="244.667">futurePoints () : int</text><ellipse cx="1003.5" cy="257.6172" fill="#84BE84" rx="3" ry="3" style="stroke:#038048;stroke-width:1.0;"/><text fill="#000000" font-family="sans-serif" font-size="14" lengthAdjust="spacing" textLength="128" x="1012.5" y="260.9639">insertCard() : void</text><ellipse cx="1003.5" cy="273.9141" fill="#84BE84" rx="3" ry="3" style="stroke:#038048;stroke-width:1.0;"/><text fill="#000000" font-family="sans-serif" font-size="14" lengthAdjust="spacing" textLength="147" x="1012.5" y="277.2607">checkPattern(): void</text><ellipse cx="1003.5" cy="290.2109" fill="#84BE84" rx="3" ry="3" style="stroke:#038048;stroke-width:1.0;"/><text fill="#000000" font-family="sans-serif" font-size="14" lengthAdjust="spacing" textLength="241" x="1012.5" y="293.5576">calculateCurrentResources(): void</text><ellipse cx="1003.5" cy="306.5078" fill="#84BE84" rx="3" ry="3" style="stroke:#038048;stroke-width:1.0;"/><text fill="#000000" font-family="sans-serif" font-size="14" lengthAdjust="spacing" textLength="158" x="1012.5" y="309.8545">calculatePoints(): void</text></g><!--class Player--><g id="elem_Player"><rect codeLine="41" fill="#F1F1F1" height="113.1875" id="Player" rx="2.5" ry="2.5" style="stroke:#181818;stroke-width:0.5;" width="202" x="680" y="401.5"/><ellipse cx="754.75" cy="417.5" fill="#ADD1B2" rx="11" ry="11" style="stroke:#181818;stroke-width:1.0;"/><path d="M757.0938,413.1719 C756.1563,412.7344 755.5625,412.5938 754.6875,412.5938 C752.0625,412.5938 750.0625,414.6719 750.0625,417.3906 L750.0625,418.5156 C750.0625,421.0938 752.1719,422.9844 755.0625,422.9844 C756.2813,422.9844 757.4375,422.6875 758.1875,422.1406 C758.7656,421.7344 759.0938,421.2813 759.0938,420.8906 C759.0938,420.4375 758.7031,420.0469 758.2344,420.0469 C758.0156,420.0469 757.8125,420.125 757.625,420.3125 C757.1719,420.7969 757.1719,420.7969 756.9844,420.8906 C756.5625,421.1563 755.875,421.2813 755.1094,421.2813 C753.0625,421.2813 751.7656,420.1875 751.7656,418.4844 L751.7656,417.3906 C751.7656,415.6094 753.0156,414.2969 754.75,414.2969 C755.3281,414.2969 755.9375,414.4531 756.4063,414.7031 C756.8906,414.9844 757.0625,415.2031 757.1563,415.6094 C757.2188,416.0156 757.25,416.1406 757.3906,416.2656 C757.5313,416.4063 757.7656,416.5156 757.9844,416.5156 C758.25,416.5156 758.5156,416.375 758.6875,416.1563 C758.7969,416 758.8281,415.8125 758.8281,415.3906 L758.8281,413.9688 C758.8281,413.5313 758.8125,413.4063 758.7188,413.25 C758.5625,412.9844 758.2813,412.8438 757.9844,412.8438 C757.6875,412.8438 757.4844,412.9375 757.2656,413.25 L757.0938,413.1719 Z " fill="#000000"/><text fill="#000000" font-family="sans-serif" font-size="14" lengthAdjust="spacing" textLength="44" x="775.25" y="422.3467">Player</text><line style="stroke:#181818;stroke-width:0.5;" x1="681" x2="881" y1="433.5" y2="433.5"/><rect fill="none" height="6" style="stroke:#C82930;stroke-width:1.0;" width="6" x="688" y="444.1484"/><text fill="#000000" font-family="sans-serif" font-size="14" lengthAdjust="spacing" textLength="123" x="700" y="450.4951">nickname: String</text><rect fill="none" height="6" style="stroke:#C82930;stroke-width:1.0;" width="6" x="688" y="460.4453"/><text fill="#000000" font-family="sans-serif" font-size="14" lengthAdjust="spacing" textLength="139" x="700" y="466.792">colorPlayer: COLOR</text><line style="stroke:#181818;stroke-width:0.5;" x1="681" x2="881" y1="474.0938" y2="474.0938"/><ellipse cx="691" cy="487.7422" fill="#84BE84" rx="3" ry="3" style="stroke:#038048;stroke-width:1.0;"/><text fill="#000000" font-family="sans-serif" font-size="14" lengthAdjust="spacing" textLength="159" x="700" y="491.0889">getNickname(): String</text><ellipse cx="691" cy="504.0391" fill="#84BE84" rx="3" ry="3" style="stroke:#038048;stroke-width:1.0;"/><text fill="#000000" font-family="sans-serif" font-size="14" lengthAdjust="spacing" textLength="176" x="700" y="507.3857">getColorPlayer(): COLOR</text></g><!--class Board--><g id="elem_Board"><rect codeLine="49" fill="#F1F1F1" height="72.5938" id="Board" rx="2.5" ry="2.5" style="stroke:#181818;stroke-width:0.5;" width="251" x="917.5" y="421.5"/><ellipse cx="1017.75" cy="437.5" fill="#ADD1B2" rx="11" ry="11" style="stroke:#181818;stroke-width:1.0;"/><path d="M1020.0938,433.1719 C1019.1563,432.7344 1018.5625,432.5938 1017.6875,432.5938 C1015.0625,432.5938 1013.0625,434.6719 1013.0625,437.3906 L1013.0625,438.5156 C1013.0625,441.0938 1015.1719,442.9844 1018.0625,442.9844 C1019.2813,442.9844 1020.4375,442.6875 1021.1875,442.1406 C1021.7656,441.7344 1022.0938,441.2813 1022.0938,440.8906 C1022.0938,440.4375 1021.7031,440.0469 1021.2344,440.0469 C1021.0156,440.0469 1020.8125,440.125 1020.625,440.3125 C1020.1719,440.7969 1020.1719,440.7969 1019.9844,440.8906 C1019.5625,441.1563 1018.875,441.2813 1018.1094,441.2813 C1016.0625,441.2813 1014.7656,440.1875 1014.7656,438.4844 L1014.7656,437.3906 C1014.7656,435.6094 1016.0156,434.2969 1017.75,434.2969 C1018.3281,434.2969 1018.9375,434.4531 1019.4063,434.7031 C1019.8906,434.9844 1020.0625,435.2031 1020.1563,435.6094 C1020.2188,436.0156 1020.25,436.1406 1020.3906,436.2656 C1020.5313,436.4063 1020.7656,436.5156 1020.9844,436.5156 C1021.25,436.5156 1021.5156,436.375 1021.6875,436.1563 C1021.7969,436 1021.8281,435.8125 1021.8281,435.3906 L1021.8281,433.9688 C1021.8281,433.5313 1021.8125,433.4063 1021.7188,433.25 C1021.5625,432.9844 1021.2813,432.8438 1020.9844,432.8438 C1020.6875,432.8438 1020.4844,432.9375 1020.2656,433.25 L1020.0938,433.1719 Z " fill="#000000"/><text fill="#000000" font-family="sans-serif" font-size="14" lengthAdjust="spacing" textLength="42" x="1038.25" y="442.3467">Board</text><line style="stroke:#181818;stroke-width:0.5;" x1="918.5" x2="1167.5" y1="453.5" y2="453.5"/><ellipse cx="928.5" cy="467.1484" fill="#84BE84" rx="3" ry="3" style="stroke:#038048;stroke-width:1.0;"/><text fill="#000000" font-family="sans-serif" font-size="14" lengthAdjust="spacing" textLength="225" x="937.5" y="470.4951">getPoints( COLORE colore) : int</text><ellipse cx="928.5" cy="483.4453" fill="#84BE84" rx="3" ry="3" style="stroke:#038048;stroke-width:1.0;"/><text fill="#000000" font-family="sans-serif" font-size="14" lengthAdjust="spacing" textLength="136" x="937.5" y="486.792">futurePoints () : int</text></g><!--class Card--><g id="elem_Card"><rect codeLine="54" fill="#F1F1F1" height="178.375" id="Card" rx="2.5" ry="2.5" style="stroke:#181818;stroke-width:0.5;" width="187" x="715.5" y="772"/><ellipse cx="788.25" cy="788" fill="#ADD1B2" rx="11" ry="11" style="stroke:#181818;stroke-width:1.0;"/><path d="M790.5938,783.6719 C789.6563,783.2344 789.0625,783.0938 788.1875,783.0938 C785.5625,783.0938 783.5625,785.1719 783.5625,787.8906 L783.5625,789.0156 C783.5625,791.5938 785.6719,793.4844 788.5625,793.4844 C789.7813,793.4844 790.9375,793.1875 791.6875,792.6406 C792.2656,792.2344 792.5938,791.7813 792.5938,791.3906 C792.5938,790.9375 792.2031,790.5469 791.7344,790.5469 C791.5156,790.5469 791.3125,790.625 791.125,790.8125 C790.6719,791.2969 790.6719,791.2969 790.4844,791.3906 C790.0625,791.6563 789.375,791.7813 788.6094,791.7813 C786.5625,791.7813 785.2656,790.6875 785.2656,788.9844 L785.2656,787.8906 C785.2656,786.1094 786.5156,784.7969 788.25,784.7969 C788.8281,784.7969 789.4375,784.9531 789.9063,785.2031 C790.3906,785.4844 790.5625,785.7031 790.6563,786.1094 C790.7188,786.5156 790.75,786.6406 790.8906,786.7656 C791.0313,786.9063 791.2656,787.0156 791.4844,787.0156 C791.75,787.0156 792.0156,786.875 792.1875,786.6563 C792.2969,786.5 792.3281,786.3125 792.3281,785.8906 L792.3281,784.4688 C792.3281,784.0313 792.3125,783.9063 792.2188,783.75 C792.0625,783.4844 791.7813,783.3438 791.4844,783.3438 C791.1875,783.3438 790.9844,783.4375 790.7656,783.75 L790.5938,783.6719 Z " fill="#000000"/><text fill="#000000" font-family="sans-serif" font-size="14" lengthAdjust="spacing" textLength="33" x="808.75" y="792.8467">Card</text><line style="stroke:#181818;stroke-width:0.5;" x1="716.5" x2="901.5" y1="804" y2="804"/><rect fill="none" height="6" style="stroke:#C82930;stroke-width:1.0;" width="6" x="723.5" y="814.6484"/><text fill="#000000" font-family="sans-serif" font-size="14" lengthAdjust="spacing" textLength="75" x="735.5" y="820.9951">idCard: int</text><rect fill="none" height="6" style="stroke:#C82930;stroke-width:1.0;" width="6" x="723.5" y="830.9453"/><text fill="#000000" font-family="sans-serif" font-size="14" lengthAdjust="spacing" textLength="124" x="735.5" y="837.292">codeFront: char[]</text><rect fill="none" height="6" style="stroke:#C82930;stroke-width:1.0;" width="6" x="723.5" y="847.2422"/><text fill="#000000" font-family="sans-serif" font-size="14" lengthAdjust="spacing" textLength="120" x="735.5" y="853.5889">codeBack: char[]</text><rect fill="none" height="6" style="stroke:#C82930;stroke-width:1.0;" width="6" x="723.5" y="863.5391"/><text fill="#000000" font-family="sans-serif" font-size="14" lengthAdjust="spacing" textLength="115" x="735.5" y="869.8857">cardPoints: int[]</text><line style="stroke:#181818;stroke-width:0.5;" x1="716.5" x2="901.5" y1="877.1875" y2="877.1875"/><ellipse cx="726.5" cy="890.8359" fill="#84BE84" rx="3" ry="3" style="stroke:#038048;stroke-width:1.0;"/><text fill="#000000" font-family="sans-serif" font-size="14" lengthAdjust="spacing" textLength="110" x="735.5" y="894.1826">getIdCard(): int</text><ellipse cx="726.5" cy="907.1328" fill="#84BE84" rx="3" ry="3" style="stroke:#038048;stroke-width:1.0;"/><text fill="#000000" font-family="sans-serif" font-size="14" lengthAdjust="spacing" textLength="161" x="735.5" y="910.4795">getCodeFront(): char[]</text><ellipse cx="726.5" cy="923.4297" fill="#84BE84" rx="3" ry="3" style="stroke:#038048;stroke-width:1.0;"/><text fill="#000000" font-family="sans-serif" font-size="14" lengthAdjust="spacing" textLength="157" x="735.5" y="926.7764">getCodeBack(): char[]</text><ellipse cx="726.5" cy="939.7266" fill="#84BE84" rx="3" ry="3" style="stroke:#038048;stroke-width:1.0;"/><text fill="#000000" font-family="sans-serif" font-size="14" lengthAdjust="spacing" textLength="152" x="735.5" y="943.0732">getCardPoints(): int[]</text></g><!--class ObjectiveCard--><g id="elem_ObjectiveCard"><rect codeLine="67" fill="#F1F1F1" height="40" id="ObjectiveCard" rx="2.5" ry="2.5" style="stroke:#181818;stroke-width:0.5;" width="135" x="624.5" y="1046.5"/><ellipse cx="639.5" cy="1062.5" fill="#ADD1B2" rx="11" ry="11" style="stroke:#181818;stroke-width:1.0;"/><path d="M641.8438,1058.1719 C640.9063,1057.7344 640.3125,1057.5938 639.4375,1057.5938 C636.8125,1057.5938 634.8125,1059.6719 634.8125,1062.3906 L634.8125,1063.5156 C634.8125,1066.0938 636.9219,1067.9844 639.8125,1067.9844 C641.0313,1067.9844 642.1875,1067.6875 642.9375,1067.1406 C643.5156,1066.7344 643.8438,1066.2813 643.8438,1065.8906 C643.8438,1065.4375 643.4531,1065.0469 642.9844,1065.0469 C642.7656,1065.0469 642.5625,1065.125 642.375,1065.3125 C641.9219,1065.7969 641.9219,1065.7969 641.7344,1065.8906 C641.3125,1066.1563 640.625,1066.2813 639.8594,1066.2813 C637.8125,1066.2813 636.5156,1065.1875 636.5156,1063.4844 L636.5156,1062.3906 C636.5156,1060.6094 637.7656,1059.2969 639.5,1059.2969 C640.0781,1059.2969 640.6875,1059.4531 641.1563,1059.7031 C641.6406,1059.9844 641.8125,1060.2031 641.9063,1060.6094 C641.9688,1061.0156 642,1061.1406 642.1406,1061.2656 C642.2813,1061.4063 642.5156,1061.5156 642.7344,1061.5156 C643,1061.5156 643.2656,1061.375 643.4375,1061.1563 C643.5469,1061 643.5781,1060.8125 643.5781,1060.3906 L643.5781,1058.9688 C643.5781,1058.5313 643.5625,1058.4063 643.4688,1058.25 C643.3125,1057.9844 643.0313,1057.8438 642.7344,1057.8438 C642.4375,1057.8438 642.2344,1057.9375 642.0156,1058.25 L641.8438,1058.1719 Z " fill="#000000"/><text fill="#000000" font-family="sans-serif" font-size="14" lengthAdjust="spacing" textLength="103" x="653.5" y="1067.3467">ObjectiveCard</text><line style="stroke:#181818;stroke-width:0.5;" x1="625.5" x2="758.5" y1="1078.5" y2="1078.5"/></g><!--class AngledCard--><g id="elem_AngledCard"><rect codeLine="72" fill="#F1F1F1" height="113.1875" id="AngledCard" rx="2.5" ry="2.5" style="stroke:#181818;stroke-width:0.5;" width="265" x="794.5" y="1010"/><ellipse cx="881.25" cy="1026" fill="#ADD1B2" rx="11" ry="11" style="stroke:#181818;stroke-width:1.0;"/><path d="M883.5938,1021.6719 C882.6563,1021.2344 882.0625,1021.0938 881.1875,1021.0938 C878.5625,1021.0938 876.5625,1023.1719 876.5625,1025.8906 L876.5625,1027.0156 C876.5625,1029.5938 878.6719,1031.4844 881.5625,1031.4844 C882.7813,1031.4844 883.9375,1031.1875 884.6875,1030.6406 C885.2656,1030.2344 885.5938,1029.7813 885.5938,1029.3906 C885.5938,1028.9375 885.2031,1028.5469 884.7344,1028.5469 C884.5156,1028.5469 884.3125,1028.625 884.125,1028.8125 C883.6719,1029.2969 883.6719,1029.2969 883.4844,1029.3906 C883.0625,1029.6563 882.375,1029.7813 881.6094,1029.7813 C879.5625,1029.7813 878.2656,1028.6875 878.2656,1026.9844 L878.2656,1025.8906 C878.2656,1024.1094 879.5156,1022.7969 881.25,1022.7969 C881.8281,1022.7969 882.4375,1022.9531 882.9063,1023.2031 C883.3906,1023.4844 883.5625,1023.7031 883.6563,1024.1094 C883.7188,1024.5156 883.75,1024.6406 883.8906,1024.7656 C884.0313,1024.9063 884.2656,1025.0156 884.4844,1025.0156 C884.75,1025.0156 885.0156,1024.875 885.1875,1024.6563 C885.2969,1024.5 885.3281,1024.3125 885.3281,1023.8906 L885.3281,1022.4688 C885.3281,1022.0313 885.3125,1021.9063 885.2188,1021.75 C885.0625,1021.4844 884.7813,1021.3438 884.4844,1021.3438 C884.1875,1021.3438 883.9844,1021.4375 883.7656,1021.75 L883.5938,1021.6719 Z " fill="#000000"/><text fill="#000000" font-family="sans-serif" font-size="14" lengthAdjust="spacing" textLength="83" x="901.75" y="1030.8467">AngledCard</text><line style="stroke:#181818;stroke-width:0.5;" x1="795.5" x2="1058.5" y1="1042" y2="1042"/><rect fill="none" height="6" style="stroke:#C82930;stroke-width:1.0;" width="6" x="802.5" y="1052.6484"/><text fill="#000000" font-family="sans-serif" font-size="14" lengthAdjust="spacing" textLength="152" x="814.5" y="1058.9951">cardCorners: int[2][2]</text><rect fill="none" height="6" style="stroke:#C82930;stroke-width:1.0;" width="6" x="802.5" y="1068.9453"/><text fill="#000000" font-family="sans-serif" font-size="14" lengthAdjust="spacing" textLength="202" x="814.5" y="1075.292">cardSymbols: SIMBOLO[2][2]</text><line style="stroke:#181818;stroke-width:0.5;" x1="795.5" x2="1058.5" y1="1082.5938" y2="1082.5938"/><ellipse cx="805.5" cy="1096.2422" fill="#84BE84" rx="3" ry="3" style="stroke:#038048;stroke-width:1.0;"/><text fill="#000000" font-family="sans-serif" font-size="14" lengthAdjust="spacing" textLength="189" x="814.5" y="1099.5889">getCardCorners(): int[2][2]</text><ellipse cx="805.5" cy="1112.5391" fill="#84BE84" rx="3" ry="3" style="stroke:#038048;stroke-width:1.0;"/><text fill="#000000" font-family="sans-serif" font-size="14" lengthAdjust="spacing" textLength="239" x="814.5" y="1115.8857">getCardSymbols(): SIMBOLO[2][2]</text></g><!--class GoldCard--><g id="elem_GoldCard"><rect codeLine="81" fill="#F1F1F1" height="80.5938" id="GoldCard" rx="2.5" ry="2.5" style="stroke:#181818;stroke-width:0.5;" width="227" x="526.5" y="1183"/><ellipse cx="602.75" cy="1199" fill="#ADD1B2" rx="11" ry="11" style="stroke:#181818;stroke-width:1.0;"/><path d="M605.0938,1194.6719 C604.1563,1194.2344 603.5625,1194.0938 602.6875,1194.0938 C600.0625,1194.0938 598.0625,1196.1719 598.0625,1198.8906 L598.0625,1200.0156 C598.0625,1202.5938 600.1719,1204.4844 603.0625,1204.4844 C604.2813,1204.4844 605.4375,1204.1875 606.1875,1203.6406 C606.7656,1203.2344 607.0938,1202.7813 607.0938,1202.3906 C607.0938,1201.9375 606.7031,1201.5469 606.2344,1201.5469 C606.0156,1201.5469 605.8125,1201.625 605.625,1201.8125 C605.1719,1202.2969 605.1719,1202.2969 604.9844,1202.3906 C604.5625,1202.6563 603.875,1202.7813 603.1094,1202.7813 C601.0625,1202.7813 599.7656,1201.6875 599.7656,1199.9844 L599.7656,1198.8906 C599.7656,1197.1094 601.0156,1195.7969 602.75,1195.7969 C603.3281,1195.7969 603.9375,1195.9531 604.4063,1196.2031 C604.8906,1196.4844 605.0625,1196.7031 605.1563,1197.1094 C605.2188,1197.5156 605.25,1197.6406 605.3906,1197.7656 C605.5313,1197.9063 605.7656,1198.0156 605.9844,1198.0156 C606.25,1198.0156 606.5156,1197.875 606.6875,1197.6563 C606.7969,1197.5 606.8281,1197.3125 606.8281,1196.8906 L606.8281,1195.4688 C606.8281,1195.0313 606.8125,1194.9063 606.7188,1194.75 C606.5625,1194.4844 606.2813,1194.3438 605.9844,1194.3438 C605.6875,1194.3438 605.4844,1194.4375 605.2656,1194.75 L605.0938,1194.6719 Z " fill="#000000"/><text fill="#000000" font-family="sans-serif" font-size="14" lengthAdjust="spacing" textLength="66" x="623.25" y="1203.8467">GoldCard</text><line style="stroke:#181818;stroke-width:0.5;" x1="527.5" x2="752.5" y1="1215" y2="1215"/><rect fill="none" height="6" style="stroke:#C82930;stroke-width:1.0;" width="6" x="534.5" y="1225.6484"/><text fill="#000000" font-family="sans-serif" font-size="14" lengthAdjust="spacing" textLength="162" x="546.5" y="1231.9951">resources: SIMBOLO[5]</text><line style="stroke:#181818;stroke-width:0.5;" x1="527.5" x2="752.5" y1="1239.2969" y2="1239.2969"/><ellipse cx="537.5" cy="1252.9453" fill="#84BE84" rx="3" ry="3" style="stroke:#038048;stroke-width:1.0;"/><text fill="#000000" font-family="sans-serif" font-size="14" lengthAdjust="spacing" textLength="201" x="546.5" y="1256.292">getResources(): SIMBOLO[5]</text></g><!--class InitialCard--><g id="elem_InitialCard"><rect codeLine="89" fill="#F1F1F1" height="80.5938" id="InitialCard" rx="2.5" ry="2.5" style="stroke:#181818;stroke-width:0.5;" width="277" x="788.5" y="1183"/><ellipse cx="886.25" cy="1199" fill="#ADD1B2" rx="11" ry="11" style="stroke:#181818;stroke-width:1.0;"/><path d="M888.5938,1194.6719 C887.6563,1194.2344 887.0625,1194.0938 886.1875,1194.0938 C883.5625,1194.0938 881.5625,1196.1719 881.5625,1198.8906 L881.5625,1200.0156 C881.5625,1202.5938 883.6719,1204.4844 886.5625,1204.4844 C887.7813,1204.4844 888.9375,1204.1875 889.6875,1203.6406 C890.2656,1203.2344 890.5938,1202.7813 890.5938,1202.3906 C890.5938,1201.9375 890.2031,1201.5469 889.7344,1201.5469 C889.5156,1201.5469 889.3125,1201.625 889.125,1201.8125 C888.6719,1202.2969 888.6719,1202.2969 888.4844,1202.3906 C888.0625,1202.6563 887.375,1202.7813 886.6094,1202.7813 C884.5625,1202.7813 883.2656,1201.6875 883.2656,1199.9844 L883.2656,1198.8906 C883.2656,1197.1094 884.5156,1195.7969 886.25,1195.7969 C886.8281,1195.7969 887.4375,1195.9531 887.9063,1196.2031 C888.3906,1196.4844 888.5625,1196.7031 888.6563,1197.1094 C888.7188,1197.5156 888.75,1197.6406 888.8906,1197.7656 C889.0313,1197.9063 889.2656,1198.0156 889.4844,1198.0156 C889.75,1198.0156 890.0156,1197.875 890.1875,1197.6563 C890.2969,1197.5 890.3281,1197.3125 890.3281,1196.8906 L890.3281,1195.4688 C890.3281,1195.0313 890.3125,1194.9063 890.2188,1194.75 C890.0625,1194.4844 889.7813,1194.3438 889.4844,1194.3438 C889.1875,1194.3438 888.9844,1194.4375 888.7656,1194.75 L888.5938,1194.6719 Z " fill="#000000"/><text fill="#000000" font-family="sans-serif" font-size="14" lengthAdjust="spacing" textLength="73" x="906.75" y="1203.8467">InitialCard</text><line style="stroke:#181818;stroke-width:0.5;" x1="789.5" x2="1064.5" y1="1215" y2="1215"/><rect fill="none" height="6" style="stroke:#C82930;stroke-width:1.0;" width="6" x="796.5" y="1225.6484"/><text fill="#000000" font-family="sans-serif" font-size="14" lengthAdjust="spacing" textLength="214" x="808.5" y="1231.9951">centerResources: SIMBOLO[3]</text><line style="stroke:#181818;stroke-width:0.5;" x1="789.5" x2="1064.5" y1="1239.2969" y2="1239.2969"/><ellipse cx="799.5" cy="1252.9453" fill="#84BE84" rx="3" ry="3" style="stroke:#038048;stroke-width:1.0;"/><text fill="#000000" font-family="sans-serif" font-size="14" lengthAdjust="spacing" textLength="251" x="808.5" y="1256.292">getCenterResources(): SIMBOLO[3]</text></g><!--class ResourceCard--><g id="elem_ResourceCard"><rect codeLine="96" fill="#F1F1F1" height="40" id="ResourceCard" rx="2.5" ry="2.5" style="stroke:#181818;stroke-width:0.5;" width="131" x="1100.5" y="1203.5"/><ellipse cx="1115.5" cy="1219.5" fill="#ADD1B2" rx="11" ry="11" style="stroke:#181818;stroke-width:1.0;"/><path d="M1117.8438,1215.1719 C1116.9063,1214.7344 1116.3125,1214.5938 1115.4375,1214.5938 C1112.8125,1214.5938 1110.8125,1216.6719 1110.8125,1219.3906 L1110.8125,1220.5156 C1110.8125,1223.0938 1112.9219,1224.9844 1115.8125,1224.9844 C1117.0313,1224.9844 1118.1875,1224.6875 1118.9375,1224.1406 C1119.5156,1223.7344 1119.8438,1223.2813 1119.8438,1222.8906 C1119.8438,1222.4375 1119.4531,1222.0469 1118.9844,1222.0469 C1118.7656,1222.0469 1118.5625,1222.125 1118.375,1222.3125 C1117.9219,1222.7969 1117.9219,1222.7969 1117.7344,1222.8906 C1117.3125,1223.1563 1116.625,1223.2813 1115.8594,1223.2813 C1113.8125,1223.2813 1112.5156,1222.1875 1112.5156,1220.4844 L1112.5156,1219.3906 C1112.5156,1217.6094 1113.7656,1216.2969 1115.5,1216.2969 C1116.0781,1216.2969 1116.6875,1216.4531 1117.1563,1216.7031 C1117.6406,1216.9844 1117.8125,1217.2031 1117.9063,1217.6094 C1117.9688,1218.0156 1118,1218.1406 1118.1406,1218.2656 C1118.2813,1218.4063 1118.5156,1218.5156 1118.7344,1218.5156 C1119,1218.5156 1119.2656,1218.375 1119.4375,1218.1563 C1119.5469,1218 1119.5781,1217.8125 1119.5781,1217.3906 L1119.5781,1215.9688 C1119.5781,1215.5313 1119.5625,1215.4063 1119.4688,1215.25 C1119.3125,1214.9844 1119.0313,1214.8438 1118.7344,1214.8438 C1118.4375,1214.8438 1118.2344,1214.9375 1118.0156,1215.25 L1117.8438,1215.1719 Z " fill="#000000"/><text fill="#000000" font-family="sans-serif" font-size="14" lengthAdjust="spacing" textLength="99" x="1129.5" y="1224.3467">ResourceCard</text><line style="stroke:#181818;stroke-width:0.5;" x1="1101.5" x2="1230.5" y1="1235.5" y2="1235.5"/></g><!--class Structure--><g id="elem_Structure"><rect codeLine="98" fill="#F1F1F1" height="105.1875" id="Structure" rx="2.5" ry="2.5" style="stroke:#181818;stroke-width:0.5;" width="267" x="498.5" y="603"/><ellipse cx="593.75" cy="619" fill="#ADD1B2" rx="11" ry="11" style="stroke:#181818;stroke-width:1.0;"/><path d="M596.0938,614.6719 C595.1563,614.2344 594.5625,614.0938 593.6875,614.0938 C591.0625,614.0938 589.0625,616.1719 589.0625,618.8906 L589.0625,620.0156 C589.0625,622.5938 591.1719,624.4844 594.0625,624.4844 C595.2813,624.4844 596.4375,624.1875 597.1875,623.6406 C597.7656,623.2344 598.0938,622.7813 598.0938,622.3906 C598.0938,621.9375 597.7031,621.5469 597.2344,621.5469 C597.0156,621.5469 596.8125,621.625 596.625,621.8125 C596.1719,622.2969 596.1719,622.2969 595.9844,622.3906 C595.5625,622.6563 594.875,622.7813 594.1094,622.7813 C592.0625,622.7813 590.7656,621.6875 590.7656,619.9844 L590.7656,618.8906 C590.7656,617.1094 592.0156,615.7969 593.75,615.7969 C594.3281,615.7969 594.9375,615.9531 595.4063,616.2031 C595.8906,616.4844 596.0625,616.7031 596.1563,617.1094 C596.2188,617.5156 596.25,617.6406 596.3906,617.7656 C596.5313,617.9063 596.7656,618.0156 596.9844,618.0156 C597.25,618.0156 597.5156,617.875 597.6875,617.6563 C597.7969,617.5 597.8281,617.3125 597.8281,616.8906 L597.8281,615.4688 C597.8281,615.0313 597.8125,614.9063 597.7188,614.75 C597.5625,614.4844 597.2813,614.3438 596.9844,614.3438 C596.6875,614.3438 596.4844,614.4375 596.2656,614.75 L596.0938,614.6719 Z " fill="#000000"/><text fill="#000000" font-family="sans-serif" font-size="14" lengthAdjust="spacing" textLength="68" x="614.25" y="623.8467">Structure</text><line style="stroke:#181818;stroke-width:0.5;" x1="499.5" x2="764.5" y1="635" y2="635"/><ellipse cx="509.5" cy="648.6484" fill="#84BE84" rx="3" ry="3" style="stroke:#038048;stroke-width:1.0;"/><text fill="#000000" font-family="sans-serif" font-size="14" lengthAdjust="spacing" textLength="128" x="518.5" y="651.9951">insertCard() : void</text><ellipse cx="509.5" cy="664.9453" fill="#84BE84" rx="3" ry="3" style="stroke:#038048;stroke-width:1.0;"/><text fill="#000000" font-family="sans-serif" font-size="14" lengthAdjust="spacing" textLength="147" x="518.5" y="668.292">checkPattern(): void</text><ellipse cx="509.5" cy="681.2422" fill="#84BE84" rx="3" ry="3" style="stroke:#038048;stroke-width:1.0;"/><text fill="#000000" font-family="sans-serif" font-size="14" lengthAdjust="spacing" textLength="241" x="518.5" y="684.5889">calculateCurrentResources(): void</text><ellipse cx="509.5" cy="697.5391" fill="#84BE84" rx="3" ry="3" style="stroke:#038048;stroke-width:1.0;"/><text fill="#000000" font-family="sans-serif" font-size="14" lengthAdjust="spacing" textLength="158" x="518.5" y="700.8857">calculatePoints(): void</text></g><!--class Deck--><g id="elem_Deck"><rect codeLine="105" fill="#F1F1F1" height="80.5938" id="Deck" rx="2.5" ry="2.5" style="stroke:#181818;stroke-width:0.5;" width="215" x="1044.5" y="615"/><ellipse cx="1129.25" cy="631" fill="#ADD1B2" rx="11" ry="11" style="stroke:#181818;stroke-width:1.0;"/><path d="M1131.5938,626.6719 C1130.6563,626.2344 1130.0625,626.0938 1129.1875,626.0938 C1126.5625,626.0938 1124.5625,628.1719 1124.5625,630.8906 L1124.5625,632.0156 C1124.5625,634.5938 1126.6719,636.4844 1129.5625,636.4844 C1130.7813,636.4844 1131.9375,636.1875 1132.6875,635.6406 C1133.2656,635.2344 1133.5938,634.7813 1133.5938,634.3906 C1133.5938,633.9375 1133.2031,633.5469 1132.7344,633.5469 C1132.5156,633.5469 1132.3125,633.625 1132.125,633.8125 C1131.6719,634.2969 1131.6719,634.2969 1131.4844,634.3906 C1131.0625,634.6563 1130.375,634.7813 1129.6094,634.7813 C1127.5625,634.7813 1126.2656,633.6875 1126.2656,631.9844 L1126.2656,630.8906 C1126.2656,629.1094 1127.5156,627.7969 1129.25,627.7969 C1129.8281,627.7969 1130.4375,627.9531 1130.9063,628.2031 C1131.3906,628.4844 1131.5625,628.7031 1131.6563,629.1094 C1131.7188,629.5156 1131.75,629.6406 1131.8906,629.7656 C1132.0313,629.9063 1132.2656,630.0156 1132.4844,630.0156 C1132.75,630.0156 1133.0156,629.875 1133.1875,629.6563 C1133.2969,629.5 1133.3281,629.3125 1133.3281,628.8906 L1133.3281,627.4688 C1133.3281,627.0313 1133.3125,626.9063 1133.2188,626.75 C1133.0625,626.4844 1132.7813,626.3438 1132.4844,626.3438 C1132.1875,626.3438 1131.9844,626.4375 1131.7656,626.75 L1131.5938,626.6719 Z " fill="#000000"/><text fill="#000000" font-family="sans-serif" font-size="14" lengthAdjust="spacing" textLength="37" x="1149.75" y="635.8467">Deck</text><line style="stroke:#181818;stroke-width:0.5;" x1="1045.5" x2="1258.5" y1="647" y2="647"/><rect fill="none" height="6" style="stroke:#C82930;stroke-width:1.0;" width="6" x="1052.5" y="657.6484"/><text fill="#000000" font-family="sans-serif" font-size="14" lengthAdjust="spacing" textLength="158" x="1064.5" y="663.9951">goldDeck: List&lt;Card&gt;</text><rect fill="none" height="6" style="stroke:#C82930;stroke-width:1.0;" width="6" x="1052.5" y="673.9453"/><text fill="#000000" font-family="sans-serif" font-size="14" lengthAdjust="spacing" textLength="189" x="1064.5" y="680.292">resourceDeck: List&lt;Card&gt;</text><line style="stroke:#181818;stroke-width:0.5;" x1="1045.5" x2="1258.5" y1="687.5938" y2="687.5938"/></g><!--class Hand--><g id="elem_Hand"><rect codeLine="111" fill="#F1F1F1" height="113.1875" id="Hand" rx="2.5" ry="2.5" style="stroke:#181818;stroke-width:0.5;" width="208" x="801" y="599"/><ellipse cx="882.75" cy="615" fill="#ADD1B2" rx="11" ry="11" style="stroke:#181818;stroke-width:1.0;"/><path d="M885.0938,610.6719 C884.1563,610.2344 883.5625,610.0938 882.6875,610.0938 C880.0625,610.0938 878.0625,612.1719 878.0625,614.8906 L878.0625,616.0156 C878.0625,618.5938 880.1719,620.4844 883.0625,620.4844 C884.2813,620.4844 885.4375,620.1875 886.1875,619.6406 C886.7656,619.2344 887.0938,618.7813 887.0938,618.3906 C887.0938,617.9375 886.7031,617.5469 886.2344,617.5469 C886.0156,617.5469 885.8125,617.625 885.625,617.8125 C885.1719,618.2969 885.1719,618.2969 884.9844,618.3906 C884.5625,618.6563 883.875,618.7813 883.1094,618.7813 C881.0625,618.7813 879.7656,617.6875 879.7656,615.9844 L879.7656,614.8906 C879.7656,613.1094 881.0156,611.7969 882.75,611.7969 C883.3281,611.7969 883.9375,611.9531 884.4063,612.2031 C884.8906,612.4844 885.0625,612.7031 885.1563,613.1094 C885.2188,613.5156 885.25,613.6406 885.3906,613.7656 C885.5313,613.9063 885.7656,614.0156 885.9844,614.0156 C886.25,614.0156 886.5156,613.875 886.6875,613.6563 C886.7969,613.5 886.8281,613.3125 886.8281,612.8906 L886.8281,611.4688 C886.8281,611.0313 886.8125,610.9063 886.7188,610.75 C886.5625,610.4844 886.2813,610.3438 885.9844,610.3438 C885.6875,610.3438 885.4844,610.4375 885.2656,610.75 L885.0938,610.6719 Z " fill="#000000"/><text fill="#000000" font-family="sans-serif" font-size="14" lengthAdjust="spacing" textLength="36" x="903.25" y="619.8467">Hand</text><line style="stroke:#181818;stroke-width:0.5;" x1="802" x2="1008" y1="631" y2="631"/><rect fill="none" height="6" style="stroke:#C82930;stroke-width:1.0;" width="6" x="809" y="641.6484"/><text fill="#000000" font-family="sans-serif" font-size="14" lengthAdjust="spacing" textLength="145" x="821" y="647.9951">secretObjective: int</text><rect fill="none" height="6" style="stroke:#C82930;stroke-width:1.0;" width="6" x="809" y="657.9453"/><text fill="#000000" font-family="sans-serif" font-size="14" lengthAdjust="spacing" textLength="122" x="821" y="664.292">cardsHand: int[3]</text><line style="stroke:#181818;stroke-width:0.5;" x1="802" x2="1008" y1="671.5938" y2="671.5938"/><ellipse cx="812" cy="685.2422" fill="#84BE84" rx="3" ry="3" style="stroke:#038048;stroke-width:1.0;"/><text fill="#000000" font-family="sans-serif" font-size="14" lengthAdjust="spacing" textLength="182" x="821" y="688.5889">getSecretObjective(): int</text><ellipse cx="812" cy="701.5391" fill="#84BE84" rx="3" ry="3" style="stroke:#038048;stroke-width:1.0;"/><text fill="#000000" font-family="sans-serif" font-size="14" lengthAdjust="spacing" textLength="159" x="821" y="704.8857">getCardsHand(): int[3]</text></g><!--class COLORE--><g id="elem_COLORE"><rect codeLine="119" fill="#F1F1F1" height="113.1875" id="COLORE" rx="2.5" ry="2.5" style="stroke:#181818;stroke-width:0.5;" width="91" x="808.5" y="122.5"/><ellipse cx="823.5" cy="138.5" fill="#EB937F" rx="11" ry="11" style="stroke:#181818;stroke-width:1.0;"/><path d="M822.2969,139.375 L823.75,139.375 L823.75,139.4844 C823.75,139.8906 823.7813,140.0469 823.8594,140.2031 C824.0156,140.4531 824.2969,140.6094 824.5938,140.6094 C824.8438,140.6094 825.1094,140.4688 825.2656,140.25 C825.3906,140.0938 825.4219,139.9375 825.4219,139.4844 L825.4219,137.5625 C825.4219,137.4063 825.4219,137.3594 825.4063,137.2031 C825.3438,136.7344 825.0313,136.4219 824.5781,136.4219 C824.3281,136.4219 824.0625,136.5625 823.8906,136.7813 C823.7813,136.9531 823.75,137.1094 823.75,137.5625 L823.75,137.6875 L822.2969,137.6875 L822.2969,135.2813 L826.2813,135.2813 L826.2813,136.1406 C826.2813,136.5469 826.3125,136.7188 826.3906,136.875 C826.5625,137.125 826.8438,137.2813 827.125,137.2813 C827.3906,137.2813 827.6563,137.1406 827.8281,136.9219 C827.9375,136.75 827.9688,136.6094 827.9688,136.1406 L827.9688,133.5938 L820.3438,133.5938 C819.9063,133.5938 819.7813,133.6094 819.625,133.7031 C819.375,133.8594 819.2188,134.1563 819.2188,134.4375 C819.2188,134.7188 819.3594,134.9688 819.5781,135.1406 C819.7344,135.25 819.9219,135.2813 820.3438,135.2813 L820.5938,135.2813 L820.5938,141.7969 L820.3438,141.7969 C819.9375,141.7969 819.7813,141.8125 819.625,141.9219 C819.375,142.0938 819.2188,142.3594 819.2188,142.6563 C819.2188,142.9219 819.3594,143.1719 819.5781,143.3281 C819.7188,143.4531 819.9531,143.5 820.3438,143.5 L828.3438,143.5 L828.3438,140.9219 C828.3438,140.4844 828.3125,140.3438 828.2344,140.1875 C828.0625,139.9375 827.7813,139.7813 827.5,139.7813 C827.2344,139.7813 826.9688,139.8906 826.7969,140.1406 C826.6875,140.2969 826.6563,140.4375 826.6563,140.9219 L826.6563,141.7969 L822.2969,141.7969 L822.2969,139.375 Z " fill="#000000"/><text fill="#000000" font-family="sans-serif" font-size="14" lengthAdjust="spacing" textLength="59" x="837.5" y="143.3467">COLORE</text><line style="stroke:#181818;stroke-width:0.5;" x1="809.5" x2="898.5" y1="154.5" y2="154.5"/><text fill="#000000" font-family="sans-serif" font-size="14" lengthAdjust="spacing" textLength="59" x="814.5" y="171.4951">YELLOW</text><text fill="#000000" font-family="sans-serif" font-size="14" lengthAdjust="spacing" textLength="36" x="814.5" y="187.792">BLUE</text><text fill="#000000" font-family="sans-serif" font-size="14" lengthAdjust="spacing" textLength="49" x="814.5" y="204.0889">GREEN</text><text fill="#000000" font-family="sans-serif" font-size="14" lengthAdjust="spacing" textLength="30" x="814.5" y="220.3857">RED</text><line style="stroke:#181818;stroke-width:0.5;" x1="809.5" x2="898.5" y1="227.6875" y2="227.6875"/></g><!--class SIMBOLI--><g id="elem_SIMBOLI"><rect codeLine="126" fill="#F1F1F1" height="162.0781" id="SIMBOLI" rx="2.5" ry="2.5" style="stroke:#181818;stroke-width:0.5;" width="97" x="560.5" y="98"/><ellipse cx="578.65" cy="114" fill="#EB937F" rx="11" ry="11" style="stroke:#181818;stroke-width:1.0;"/><path d="M577.4469,114.875 L578.9,114.875 L578.9,114.9844 C578.9,115.3906 578.9313,115.5469 579.0094,115.7031 C579.1656,115.9531 579.4469,116.1094 579.7438,116.1094 C579.9938,116.1094 580.2594,115.9688 580.4156,115.75 C580.5406,115.5938 580.5719,115.4375 580.5719,114.9844 L580.5719,113.0625 C580.5719,112.9063 580.5719,112.8594 580.5563,112.7031 C580.4938,112.2344 580.1813,111.9219 579.7281,111.9219 C579.4781,111.9219 579.2125,112.0625 579.0406,112.2813 C578.9313,112.4531 578.9,112.6094 578.9,113.0625 L578.9,113.1875 L577.4469,113.1875 L577.4469,110.7813 L581.4313,110.7813 L581.4313,111.6406 C581.4313,112.0469 581.4625,112.2188 581.5406,112.375 C581.7125,112.625 581.9938,112.7813 582.275,112.7813 C582.5406,112.7813 582.8063,112.6406 582.9781,112.4219 C583.0875,112.25 583.1188,112.1094 583.1188,111.6406 L583.1188,109.0938 L575.4938,109.0938 C575.0563,109.0938 574.9313,109.1094 574.775,109.2031 C574.525,109.3594 574.3688,109.6563 574.3688,109.9375 C574.3688,110.2188 574.5094,110.4688 574.7281,110.6406 C574.8844,110.75 575.0719,110.7813 575.4938,110.7813 L575.7438,110.7813 L575.7438,117.2969 L575.4938,117.2969 C575.0875,117.2969 574.9313,117.3125 574.775,117.4219 C574.525,117.5938 574.3688,117.8594 574.3688,118.1563 C574.3688,118.4219 574.5094,118.6719 574.7281,118.8281 C574.8688,118.9531 575.1031,119 575.4938,119 L583.4938,119 L583.4938,116.4219 C583.4938,115.9844 583.4625,115.8438 583.3844,115.6875 C583.2125,115.4375 582.9313,115.2813 582.65,115.2813 C582.3844,115.2813 582.1188,115.3906 581.9469,115.6406 C581.8375,115.7969 581.8063,115.9375 581.8063,116.4219 L581.8063,117.2969 L577.4469,117.2969 L577.4469,114.875 Z " fill="#000000"/><text fill="#000000" font-family="sans-serif" font-size="14" lengthAdjust="spacing" textLength="58" x="593.35" y="118.8467">SIMBOLI</text><line style="stroke:#181818;stroke-width:0.5;" x1="561.5" x2="656.5" y1="130" y2="130"/><text fill="#000000" font-family="sans-serif" font-size="14" lengthAdjust="spacing" textLength="85" x="566.5" y="146.9951">VEGETABLE</text><text fill="#000000" font-family="sans-serif" font-size="14" lengthAdjust="spacing" textLength="54" x="566.5" y="163.292">ANIMAL</text><text fill="#000000" font-family="sans-serif" font-size="14" lengthAdjust="spacing" textLength="51" x="566.5" y="179.5889">INSECT</text><text fill="#000000" font-family="sans-serif" font-size="14" lengthAdjust="spacing" textLength="63" x="566.5" y="195.8857">SHROOM</text><text fill="#000000" font-family="sans-serif" font-size="14" lengthAdjust="spacing" textLength="65" x="566.5" y="212.1826">FEATHER</text><text fill="#000000" font-family="sans-serif" font-size="14" lengthAdjust="spacing" textLength="24" x="566.5" y="228.4795">INK</text><text fill="#000000" font-family="sans-serif" font-size="14" lengthAdjust="spacing" textLength="56" x="566.5" y="244.7764">SCROLL</text><line style="stroke:#181818;stroke-width:0.5;" x1="561.5" x2="656.5" y1="252.0781" y2="252.0781"/></g><!--class ClientController--><g id="elem_ClientController"><rect codeLine="139" fill="#F1F1F1" height="145.7813" id="ClientController" rx="2.5" ry="2.5" style="stroke:#181818;stroke-width:0.5;" width="261" x="2261.5" y="385"/><ellipse cx="2329.75" cy="401" fill="#ADD1B2" rx="11" ry="11" style="stroke:#181818;stroke-width:1.0;"/><path d="M2332.0938,396.6719 C2331.1563,396.2344 2330.5625,396.0938 2329.6875,396.0938 C2327.0625,396.0938 2325.0625,398.1719 2325.0625,400.8906 L2325.0625,402.0156 C2325.0625,404.5938 2327.1719,406.4844 2330.0625,406.4844 C2331.2813,406.4844 2332.4375,406.1875 2333.1875,405.6406 C2333.7656,405.2344 2334.0938,404.7813 2334.0938,404.3906 C2334.0938,403.9375 2333.7031,403.5469 2333.2344,403.5469 C2333.0156,403.5469 2332.8125,403.625 2332.625,403.8125 C2332.1719,404.2969 2332.1719,404.2969 2331.9844,404.3906 C2331.5625,404.6563 2330.875,404.7813 2330.1094,404.7813 C2328.0625,404.7813 2326.7656,403.6875 2326.7656,401.9844 L2326.7656,400.8906 C2326.7656,399.1094 2328.0156,397.7969 2329.75,397.7969 C2330.3281,397.7969 2330.9375,397.9531 2331.4063,398.2031 C2331.8906,398.4844 2332.0625,398.7031 2332.1563,399.1094 C2332.2188,399.5156 2332.25,399.6406 2332.3906,399.7656 C2332.5313,399.9063 2332.7656,400.0156 2332.9844,400.0156 C2333.25,400.0156 2333.5156,399.875 2333.6875,399.6563 C2333.7969,399.5 2333.8281,399.3125 2333.8281,398.8906 L2333.8281,397.4688 C2333.8281,397.0313 2333.8125,396.9063 2333.7188,396.75 C2333.5625,396.4844 2333.2813,396.3438 2332.9844,396.3438 C2332.6875,396.3438 2332.4844,396.4375 2332.2656,396.75 L2332.0938,396.6719 Z " fill="#000000"/><text fill="#000000" font-family="sans-serif" font-size="14" lengthAdjust="spacing" textLength="116" x="2350.25" y="405.8467">ClientController</text><line style="stroke:#181818;stroke-width:0.5;" x1="2262.5" x2="2521.5" y1="417" y2="417"/><rect fill="none" height="6" style="stroke:#C82930;stroke-width:1.0;" width="6" x="2269.5" y="427.6484"/><text fill="#000000" font-family="sans-serif" font-size="14" lengthAdjust="spacing" textLength="79" x="2281.5" y="433.9951">view : View</text><line style="stroke:#181818;stroke-width:0.5;" x1="2262.5" x2="2521.5" y1="441.2969" y2="441.2969"/><ellipse cx="2272.5" cy="454.9453" fill="#84BE84" rx="3" ry="3" style="stroke:#038048;stroke-width:1.0;"/><text fill="#000000" font-family="sans-serif" font-size="14" lengthAdjust="spacing" textLength="235" x="2281.5" y="458.292">showAllowedConnections() : void</text><ellipse cx="2272.5" cy="471.2422" fill="#84BE84" rx="3" ry="3" style="stroke:#038048;stroke-width:1.0;"/><text fill="#000000" font-family="sans-serif" font-size="14" lengthAdjust="spacing" textLength="102" x="2281.5" y="474.5889">isLegal() : void</text><ellipse cx="2272.5" cy="487.5391" fill="#84BE84" rx="3" ry="3" style="stroke:#038048;stroke-width:1.0;"/><text fill="#000000" font-family="sans-serif" font-size="14" lengthAdjust="spacing" textLength="116" x="2281.5" y="490.8857">isMyTurn() : void</text><ellipse cx="2272.5" cy="503.8359" fill="#84BE84" rx="3" ry="3" style="stroke:#038048;stroke-width:1.0;"/><text fill="#000000" font-family="sans-serif" font-size="14" lengthAdjust="spacing" textLength="88" x="2281.5" y="507.1826">deny() : void</text><ellipse cx="2272.5" cy="520.1328" fill="#84BE84" rx="3" ry="3" style="stroke:#038048;stroke-width:1.0;"/><text fill="#000000" font-family="sans-serif" font-size="14" lengthAdjust="spacing" textLength="96" x="2281.5" y="523.4795">notify() : void</text></g><!--class PlayerController--><g id="elem_PlayerController"><rect codeLine="148" fill="#F1F1F1" height="129.4844" id="PlayerController" rx="2.5" ry="2.5" style="stroke:#181818;stroke-width:0.5;" width="172" x="2054" y="393.5"/><ellipse cx="2079.35" cy="409.5" fill="#ADD1B2" rx="11" ry="11" style="stroke:#181818;stroke-width:1.0;"/><path d="M2081.6938,405.1719 C2080.7563,404.7344 2080.1625,404.5938 2079.2875,404.5938 C2076.6625,404.5938 2074.6625,406.6719 2074.6625,409.3906 L2074.6625,410.5156 C2074.6625,413.0938 2076.7719,414.9844 2079.6625,414.9844 C2080.8813,414.9844 2082.0375,414.6875 2082.7875,414.1406 C2083.3656,413.7344 2083.6938,413.2813 2083.6938,412.8906 C2083.6938,412.4375 2083.3031,412.0469 2082.8344,412.0469 C2082.6156,412.0469 2082.4125,412.125 2082.225,412.3125 C2081.7719,412.7969 2081.7719,412.7969 2081.5844,412.8906 C2081.1625,413.1563 2080.475,413.2813 2079.7094,413.2813 C2077.6625,413.2813 2076.3656,412.1875 2076.3656,410.4844 L2076.3656,409.3906 C2076.3656,407.6094 2077.6156,406.2969 2079.35,406.2969 C2079.9281,406.2969 2080.5375,406.4531 2081.0063,406.7031 C2081.4906,406.9844 2081.6625,407.2031 2081.7563,407.6094 C2081.8188,408.0156 2081.85,408.1406 2081.9906,408.2656 C2082.1313,408.4063 2082.3656,408.5156 2082.5844,408.5156 C2082.85,408.5156 2083.1156,408.375 2083.2875,408.1563 C2083.3969,408 2083.4281,407.8125 2083.4281,407.3906 L2083.4281,405.9688 C2083.4281,405.5313 2083.4125,405.4063 2083.3188,405.25 C2083.1625,404.9844 2082.8813,404.8438 2082.5844,404.8438 C2082.2875,404.8438 2082.0844,404.9375 2081.8656,405.25 L2081.6938,405.1719 Z " fill="#000000"/><text fill="#000000" font-family="sans-serif" font-size="14" lengthAdjust="spacing" textLength="117" x="2095.65" y="414.3467">PlayerController</text><line style="stroke:#181818;stroke-width:0.5;" x1="2055" x2="2225" y1="425.5" y2="425.5"/><rect fill="none" height="6" style="stroke:#C82930;stroke-width:1.0;" width="6" x="2062" y="436.1484"/><text fill="#000000" font-family="sans-serif" font-size="14" lengthAdjust="spacing" textLength="95" x="2074" y="442.4951">game : Game</text><line style="stroke:#181818;stroke-width:0.5;" x1="2055" x2="2225" y1="449.7969" y2="449.7969"/><ellipse cx="2065" cy="463.4453" fill="#84BE84" rx="3" ry="3" style="stroke:#038048;stroke-width:1.0;"/><text fill="#000000" font-family="sans-serif" font-size="14" lengthAdjust="spacing" textLength="144" x="2074" y="466.792">createPlayer() : void</text><ellipse cx="2065" cy="479.7422" fill="#84BE84" rx="3" ry="3" style="stroke:#038048;stroke-width:1.0;"/><text fill="#000000" font-family="sans-serif" font-size="14" lengthAdjust="spacing" textLength="122" x="2074" y="483.0889">setColour() : void</text><ellipse cx="2065" cy="496.0391" fill="#84BE84" rx="3" ry="3" style="stroke:#038048;stroke-width:1.0;"/><text fill="#000000" font-family="sans-serif" font-size="14" lengthAdjust="spacing" textLength="146" x="2074" y="499.3857">serNickname() : void</text><ellipse cx="2065" cy="512.3359" fill="#84BE84" rx="3" ry="3" style="stroke:#038048;stroke-width:1.0;"/><text fill="#000000" font-family="sans-serif" font-size="14" lengthAdjust="spacing" textLength="121" x="2074" y="515.6826">joinGame() : void</text></g><!--class GameController--><g id="elem_GameController"><rect codeLine="156" fill="#F1F1F1" height="162.0781" id="GameController" rx="2.5" ry="2.5" style="stroke:#181818;stroke-width:0.5;" width="188" x="1831" y="377"/><ellipse cx="1864.45" cy="393" fill="#ADD1B2" rx="11" ry="11" style="stroke:#181818;stroke-width:1.0;"/><path d="M1866.7938,388.6719 C1865.8563,388.2344 1865.2625,388.0938 1864.3875,388.0938 C1861.7625,388.0938 1859.7625,390.1719 1859.7625,392.8906 L1859.7625,394.0156 C1859.7625,396.5938 1861.8719,398.4844 1864.7625,398.4844 C1865.9813,398.4844 1867.1375,398.1875 1867.8875,397.6406 C1868.4656,397.2344 1868.7938,396.7813 1868.7938,396.3906 C1868.7938,395.9375 1868.4031,395.5469 1867.9344,395.5469 C1867.7156,395.5469 1867.5125,395.625 1867.325,395.8125 C1866.8719,396.2969 1866.8719,396.2969 1866.6844,396.3906 C1866.2625,396.6563 1865.575,396.7813 1864.8094,396.7813 C1862.7625,396.7813 1861.4656,395.6875 1861.4656,393.9844 L1861.4656,392.8906 C1861.4656,391.1094 1862.7156,389.7969 1864.45,389.7969 C1865.0281,389.7969 1865.6375,389.9531 1866.1063,390.2031 C1866.5906,390.4844 1866.7625,390.7031 1866.8563,391.1094 C1866.9188,391.5156 1866.95,391.6406 1867.0906,391.7656 C1867.2313,391.9063 1867.4656,392.0156 1867.6844,392.0156 C1867.95,392.0156 1868.2156,391.875 1868.3875,391.6563 C1868.4969,391.5 1868.5281,391.3125 1868.5281,390.8906 L1868.5281,389.4688 C1868.5281,389.0313 1868.5125,388.9063 1868.4188,388.75 C1868.2625,388.4844 1867.9813,388.3438 1867.6844,388.3438 C1867.3875,388.3438 1867.1844,388.4375 1866.9656,388.75 L1866.7938,388.6719 Z " fill="#000000"/><text fill="#000000" font-family="sans-serif" font-size="14" lengthAdjust="spacing" textLength="115" x="1882.55" y="397.8467">GameController</text><line style="stroke:#181818;stroke-width:0.5;" x1="1832" x2="2018" y1="409" y2="409"/><rect fill="none" height="6" style="stroke:#C82930;stroke-width:1.0;" width="6" x="1839" y="419.6484"/><text fill="#000000" font-family="sans-serif" font-size="14" lengthAdjust="spacing" textLength="95" x="1851" y="425.9951">game : Game</text><line style="stroke:#181818;stroke-width:0.5;" x1="1832" x2="2018" y1="433.2969" y2="433.2969"/><ellipse cx="1842" cy="446.9453" fill="#84BE84" rx="3" ry="3" style="stroke:#038048;stroke-width:1.0;"/><text fill="#000000" font-family="sans-serif" font-size="14" lengthAdjust="spacing" textLength="120" x="1851" y="450.292">drawCard() : void</text><ellipse cx="1842" cy="463.2422" fill="#84BE84" rx="3" ry="3" style="stroke:#038048;stroke-width:1.0;"/><text fill="#000000" font-family="sans-serif" font-size="14" lengthAdjust="spacing" textLength="123" x="1851" y="466.5889">getPoints() : void</text><ellipse cx="1842" cy="479.5391" fill="#84BE84" rx="3" ry="3" style="stroke:#038048;stroke-width:1.0;"/><text fill="#000000" font-family="sans-serif" font-size="14" lengthAdjust="spacing" textLength="116" x="1851" y="482.8857">playCard() : void</text><ellipse cx="1842" cy="495.8359" fill="#84BE84" rx="3" ry="3" style="stroke:#038048;stroke-width:1.0;"/><text fill="#000000" font-family="sans-serif" font-size="14" lengthAdjust="spacing" textLength="162" x="1851" y="499.1826">choosePosition() : void</text><ellipse cx="1842" cy="512.1328" fill="#84BE84" rx="3" ry="3" style="stroke:#038048;stroke-width:1.0;"/><text fill="#000000" font-family="sans-serif" font-size="14" lengthAdjust="spacing" textLength="135" x="1851" y="515.4795">chooseSide() : void</text><ellipse cx="1842" cy="528.4297" fill="#84BE84" rx="3" ry="3" style="stroke:#038048;stroke-width:1.0;"/><text fill="#000000" font-family="sans-serif" font-size="14" lengthAdjust="spacing" textLength="137" x="1851" y="531.7764">chooseCard() : void</text></g><!--class GameHandler--><g id="elem_GameHandler"><rect codeLine="166" fill="#F1F1F1" height="113.1875" id="GameHandler" rx="2.5" ry="2.5" style="stroke:#181818;stroke-width:0.5;" width="163" x="1632.5" y="401.5"/><ellipse cx="1662.8" cy="417.5" fill="#ADD1B2" rx="11" ry="11" style="stroke:#181818;stroke-width:1.0;"/><path d="M1665.1438,413.1719 C1664.2063,412.7344 1663.6125,412.5938 1662.7375,412.5938 C1660.1125,412.5938 1658.1125,414.6719 1658.1125,417.3906 L1658.1125,418.5156 C1658.1125,421.0938 1660.2219,422.9844 1663.1125,422.9844 C1664.3313,422.9844 1665.4875,422.6875 1666.2375,422.1406 C1666.8156,421.7344 1667.1438,421.2813 1667.1438,420.8906 C1667.1438,420.4375 1666.7531,420.0469 1666.2844,420.0469 C1666.0656,420.0469 1665.8625,420.125 1665.675,420.3125 C1665.2219,420.7969 1665.2219,420.7969 1665.0344,420.8906 C1664.6125,421.1563 1663.925,421.2813 1663.1594,421.2813 C1661.1125,421.2813 1659.8156,420.1875 1659.8156,418.4844 L1659.8156,417.3906 C1659.8156,415.6094 1661.0656,414.2969 1662.8,414.2969 C1663.3781,414.2969 1663.9875,414.4531 1664.4563,414.7031 C1664.9406,414.9844 1665.1125,415.2031 1665.2063,415.6094 C1665.2688,416.0156 1665.3,416.1406 1665.4406,416.2656 C1665.5813,416.4063 1665.8156,416.5156 1666.0344,416.5156 C1666.3,416.5156 1666.5656,416.375 1666.7375,416.1563 C1666.8469,416 1666.8781,415.8125 1666.8781,415.3906 L1666.8781,413.9688 C1666.8781,413.5313 1666.8625,413.4063 1666.7688,413.25 C1666.6125,412.9844 1666.3313,412.8438 1666.0344,412.8438 C1665.7375,412.8438 1665.5344,412.9375 1665.3156,413.25 L1665.1438,413.1719 Z " fill="#000000"/><text fill="#000000" font-family="sans-serif" font-size="14" lengthAdjust="spacing" textLength="97" x="1680.2" y="422.3467">GameHandler</text><line style="stroke:#181818;stroke-width:0.5;" x1="1633.5" x2="1794.5" y1="433.5" y2="433.5"/><rect fill="none" height="6" style="stroke:#C82930;stroke-width:1.0;" width="6" x="1640.5" y="444.1484"/><text fill="#000000" font-family="sans-serif" font-size="14" lengthAdjust="spacing" textLength="95" x="1652.5" y="450.4951">game : Game</text><line style="stroke:#181818;stroke-width:0.5;" x1="1633.5" x2="1794.5" y1="457.7969" y2="457.7969"/><ellipse cx="1643.5" cy="471.4453" fill="#84BE84" rx="3" ry="3" style="stroke:#038048;stroke-width:1.0;"/><text fill="#000000" font-family="sans-serif" font-size="14" lengthAdjust="spacing" textLength="127" x="1652.5" y="474.792">getGames() : void</text><ellipse cx="1643.5" cy="487.7422" fill="#84BE84" rx="3" ry="3" style="stroke:#038048;stroke-width:1.0;"/><text fill="#000000" font-family="sans-serif" font-size="14" lengthAdjust="spacing" textLength="137" x="1652.5" y="491.0889">startGames() : void</text><ellipse cx="1643.5" cy="504.0391" fill="#84BE84" rx="3" ry="3" style="stroke:#038048;stroke-width:1.0;"/><text fill="#000000" font-family="sans-serif" font-size="14" lengthAdjust="spacing" textLength="122" x="1652.5" y="507.3857">endGame() : void</text></g><!--class InitialGameController--><g id="elem_InitialGameController"><rect codeLine="173" fill="#F1F1F1" height="145.7813" id="InitialGameController" rx="2.5" ry="2.5" style="stroke:#181818;stroke-width:0.5;" width="281" x="1316.5" y="385"/><ellipse cx="1375.25" cy="401" fill="#ADD1B2" rx="11" ry="11" style="stroke:#181818;stroke-width:1.0;"/><path d="M1377.5938,396.6719 C1376.6563,396.2344 1376.0625,396.0938 1375.1875,396.0938 C1372.5625,396.0938 1370.5625,398.1719 1370.5625,400.8906 L1370.5625,402.0156 C1370.5625,404.5938 1372.6719,406.4844 1375.5625,406.4844 C1376.7813,406.4844 1377.9375,406.1875 1378.6875,405.6406 C1379.2656,405.2344 1379.5938,404.7813 1379.5938,404.3906 C1379.5938,403.9375 1379.2031,403.5469 1378.7344,403.5469 C1378.5156,403.5469 1378.3125,403.625 1378.125,403.8125 C1377.6719,404.2969 1377.6719,404.2969 1377.4844,404.3906 C1377.0625,404.6563 1376.375,404.7813 1375.6094,404.7813 C1373.5625,404.7813 1372.2656,403.6875 1372.2656,401.9844 L1372.2656,400.8906 C1372.2656,399.1094 1373.5156,397.7969 1375.25,397.7969 C1375.8281,397.7969 1376.4375,397.9531 1376.9063,398.2031 C1377.3906,398.4844 1377.5625,398.7031 1377.6563,399.1094 C1377.7188,399.5156 1377.75,399.6406 1377.8906,399.7656 C1378.0313,399.9063 1378.2656,400.0156 1378.4844,400.0156 C1378.75,400.0156 1379.0156,399.875 1379.1875,399.6563 C1379.2969,399.5 1379.3281,399.3125 1379.3281,398.8906 L1379.3281,397.4688 C1379.3281,397.0313 1379.3125,396.9063 1379.2188,396.75 C1379.0625,396.4844 1378.7813,396.3438 1378.4844,396.3438 C1378.1875,396.3438 1377.9844,396.4375 1377.7656,396.75 L1377.5938,396.6719 Z " fill="#000000"/><text fill="#000000" font-family="sans-serif" font-size="14" lengthAdjust="spacing" textLength="155" x="1395.75" y="405.8467">InitialGameController</text><line style="stroke:#181818;stroke-width:0.5;" x1="1317.5" x2="1596.5" y1="417" y2="417"/><rect fill="none" height="6" style="stroke:#C82930;stroke-width:1.0;" width="6" x="1324.5" y="427.6484"/><text fill="#000000" font-family="sans-serif" font-size="14" lengthAdjust="spacing" textLength="95" x="1336.5" y="433.9951">game : Game</text><line style="stroke:#181818;stroke-width:0.5;" x1="1317.5" x2="1596.5" y1="441.2969" y2="441.2969"/><ellipse cx="1327.5" cy="454.9453" fill="#84BE84" rx="3" ry="3" style="stroke:#038048;stroke-width:1.0;"/><text fill="#000000" font-family="sans-serif" font-size="14" lengthAdjust="spacing" textLength="165" x="1336.5" y="458.292">selectStartSide() : void</text><ellipse cx="1327.5" cy="471.2422" fill="#84BE84" rx="3" ry="3" style="stroke:#038048;stroke-width:1.0;"/><text fill="#000000" font-family="sans-serif" font-size="14" lengthAdjust="spacing" textLength="143" x="1336.5" y="474.5889">selectColour() : void</text><ellipse cx="1327.5" cy="487.5391" fill="#84BE84" rx="3" ry="3" style="stroke:#038048;stroke-width:1.0;"/><text fill="#000000" font-family="sans-serif" font-size="14" lengthAdjust="spacing" textLength="222" x="1336.5" y="490.8857">drawCommonObjective() : void</text><ellipse cx="1327.5" cy="503.8359" fill="#84BE84" rx="3" ry="3" style="stroke:#038048;stroke-width:1.0;"/><text fill="#000000" font-family="sans-serif" font-size="14" lengthAdjust="spacing" textLength="255" x="1336.5" y="507.1826">chooseSecretObjectiveCard() : void</text><ellipse cx="1327.5" cy="520.1328" fill="#84BE84" rx="3" ry="3" style="stroke:#038048;stroke-width:1.0;"/><text fill="#000000" font-family="sans-serif" font-size="14" lengthAdjust="spacing" textLength="159" x="1336.5" y="523.4795">PickFirstPlayer() : void</text></g><path d="M8.5,152.5 L47.5,152.5 A3.75,3.75 0 0 1 50,155 L57,174.7969 L61.5,174.7969 A2.5,2.5 0 0 1 64,177.2969 L64,202.5938 A2.5,2.5 0 0 1 61.5,205.0938 L8.5,205.0938 A2.5,2.5 0 0 1 6,202.5938 L6,155 A2.5,2.5 0 0 1 8.5,152.5 " fill="#F1F1F1" style="stroke:#181818;stroke-width:0.5;"/><line style="stroke:#181818;stroke-width:0.5;" x1="6" x2="57" y1="174.7969" y2="174.7969"/><text fill="#000000" font-family="sans-serif" font-size="14" font-weight="bold" lengthAdjust="spacing" textLength="38" x="10" y="167.4951">View</text><!--class Observer--><g id="elem_Observer"><rect codeLine="189" fill="#F1F1F1" height="56.2969" id="Observer" rx="2.5" ry="2.5" style="stroke:#181818;stroke-width:0.5;" width="131" x="99.5" y="151"/><ellipse cx="129.8" cy="167" fill="#B4A7E5" rx="11" ry="11" style="stroke:#181818;stroke-width:1.0;"/><path d="M130.7531,163.7813 L132.4719,163.7813 C132.8625,163.7813 133.05,163.75 133.175,163.6719 C133.4406,163.5156 133.5813,163.2344 133.5813,162.9375 C133.5813,162.6719 133.4719,162.4063 133.2375,162.2344 C133.0656,162.125 132.925,162.0938 132.4719,162.0938 L127.3313,162.0938 C126.8938,162.0938 126.7688,162.1094 126.6125,162.2031 C126.3625,162.3594 126.2063,162.6563 126.2063,162.9375 C126.2063,163.2188 126.3469,163.4688 126.5656,163.6406 C126.7219,163.75 126.9094,163.7813 127.3313,163.7813 L129.05,163.7813 L129.05,170.2969 L127.3313,170.2969 C126.8938,170.2969 126.7688,170.3125 126.6125,170.4219 C126.3625,170.5781 126.2063,170.8594 126.2063,171.1563 C126.2063,171.4063 126.3469,171.6719 126.5656,171.8281 C126.7219,171.9531 126.925,172 127.3313,172 L132.4719,172 C133.2219,172 133.5813,171.7188 133.5813,171.1563 C133.5813,170.875 133.4719,170.625 133.2375,170.4531 C133.0656,170.3281 132.925,170.2969 132.4719,170.2969 L130.7531,170.2969 L130.7531,163.7813 Z " fill="#000000"/><text fill="#000000" font-family="sans-serif" font-size="14" font-style="italic" lengthAdjust="spacing" textLength="65" x="147.2" y="171.8467">Observer</text><line style="stroke:#181818;stroke-width:0.5;" x1="100.5" x2="229.5" y1="183" y2="183"/><ellipse cx="110.5" cy="196.6484" fill="#84BE84" rx="3" ry="3" style="stroke:#038048;stroke-width:1.0;"/><text fill="#000000" font-family="sans-serif" font-size="14" lengthAdjust="spacing" textLength="105" x="119.5" y="199.9951">Update() : void</text></g><!--class Observable--><g id="elem_Observable"><rect codeLine="193" fill="#F1F1F1" height="88.8906" id="Observable" rx="2.5" ry="2.5" style="stroke:#181818;stroke-width:0.5;" width="200" x="266" y="134.5"/><ellipse cx="320.75" cy="150.5" fill="#ADD1B2" rx="11" ry="11" style="stroke:#181818;stroke-width:1.0;"/><path d="M323.0938,146.1719 C322.1563,145.7344 321.5625,145.5938 320.6875,145.5938 C318.0625,145.5938 316.0625,147.6719 316.0625,150.3906 L316.0625,151.5156 C316.0625,154.0938 318.1719,155.9844 321.0625,155.9844 C322.2813,155.9844 323.4375,155.6875 324.1875,155.1406 C324.7656,154.7344 325.0938,154.2813 325.0938,153.8906 C325.0938,153.4375 324.7031,153.0469 324.2344,153.0469 C324.0156,153.0469 323.8125,153.125 323.625,153.3125 C323.1719,153.7969 323.1719,153.7969 322.9844,153.8906 C322.5625,154.1563 321.875,154.2813 321.1094,154.2813 C319.0625,154.2813 317.7656,153.1875 317.7656,151.4844 L317.7656,150.3906 C317.7656,148.6094 319.0156,147.2969 320.75,147.2969 C321.3281,147.2969 321.9375,147.4531 322.4063,147.7031 C322.8906,147.9844 323.0625,148.2031 323.1563,148.6094 C323.2188,149.0156 323.25,149.1406 323.3906,149.2656 C323.5313,149.4063 323.7656,149.5156 323.9844,149.5156 C324.25,149.5156 324.5156,149.375 324.6875,149.1563 C324.7969,149 324.8281,148.8125 324.8281,148.3906 L324.8281,146.9688 C324.8281,146.5313 324.8125,146.4063 324.7188,146.25 C324.5625,145.9844 324.2813,145.8438 323.9844,145.8438 C323.6875,145.8438 323.4844,145.9375 323.2656,146.25 L323.0938,146.1719 Z " fill="#000000"/><text fill="#000000" font-family="sans-serif" font-size="14" lengthAdjust="spacing" textLength="82" x="341.25" y="155.3467">Observable</text><line style="stroke:#181818;stroke-width:0.5;" x1="267" x2="465" y1="166.5" y2="166.5"/><ellipse cx="277" cy="180.1484" fill="#84BE84" rx="3" ry="3" style="stroke:#038048;stroke-width:1.0;"/><text fill="#000000" font-family="sans-serif" font-size="14" lengthAdjust="spacing" textLength="143" x="286" y="183.4951">AddObserver(): void</text><ellipse cx="277" cy="196.4453" fill="#84BE84" rx="3" ry="3" style="stroke:#038048;stroke-width:1.0;"/><text fill="#000000" font-family="sans-serif" font-size="14" lengthAdjust="spacing" textLength="174" x="286" y="199.792">RemoveObserver(): void</text><ellipse cx="277" cy="212.7422" fill="#84BE84" rx="3" ry="3" style="stroke:#038048;stroke-width:1.0;"/><text fill="#000000" font-family="sans-serif" font-size="14" lengthAdjust="spacing" textLength="93" x="286" y="216.0889">Notify(): void</text></g><!--reverse link Card to ObjectiveCard--><g id="link_Card_ObjectiveCard"><path d="M749.3911,965.6787 C728.7631,1001.5567 715.779,1024.14 703.006,1046.357 " fill="none" id="Card-backto-ObjectiveCard" style="stroke:#181818;stroke-width:1.0;"/><polygon fill="none" points="758.363,950.074,744.1896,962.688,754.5927,968.6693,758.363,950.074" style="stroke:#181818;stroke-width:1.0;"/></g><!--reverse link Card to AngledCard--><g id="link_Card_AngledCard"><path d="M869.0988,965.6458 C880.8708,985.9488 884.044,991.418 894.753,1009.887 " fill="none" id="Card-backto-AngledCard" style="stroke:#181818;stroke-width:1.0;"/><polygon fill="none" points="860.07,950.074,863.9082,968.6554,874.2894,962.6362,860.07,950.074" style="stroke:#181818;stroke-width:1.0;"/></g><!--reverse link AngledCard to GoldCard--><g id="link_AngledCard_GoldCard"><path d="M808.3591,1131.5744 C771.6871,1151.3794 746.987,1164.72 713.298,1182.914 " fill="none" id="AngledCard-backto-GoldCard" style="stroke:#181818;stroke-width:1.0;"/><polygon fill="none" points="824.197,1123.021,805.508,1126.2951,811.2102,1136.8537,824.197,1123.021" style="stroke:#181818;stroke-width:1.0;"/></g><!--reverse link AngledCard to InitialCard--><g id="link_AngledCard_InitialCard"><path d="M927,1141.021 C927,1160.826 927,1164.72 927,1182.914 " fill="none" id="AngledCard-backto-InitialCard" style="stroke:#181818;stroke-width:1.0;"/><polygon fill="none" points="927,1123.021,921,1141.021,933,1141.021,927,1123.021" style="stroke:#181818;stroke-width:1.0;"/></g><!--reverse link AngledCard to ResourceCard--><g id="link_AngledCard_ResourceCard"><path d="M1027.7125,1132.8146 C1071.1125,1160.9586 1105.9,1183.526 1136.7,1203.4964 " fill="none" id="AngledCard-backto-ResourceCard" style="stroke:#181818;stroke-width:1.0;"/><polygon fill="none" points="1012.61,1123.021,1024.4479,1137.8488,1030.977,1127.7805,1012.61,1123.021" style="stroke:#181818;stroke-width:1.0;"/></g><!--link Game to InitialGameController--><g id="link_Game_InitialGameController"><path codeLine="199" d="M1259.68,291.87 C1297.18,323.25 1336.94,356.527 1370.87,384.923 " fill="none" id="Game-InitialGameController" style="stroke:#181818;stroke-width:1.0;"/></g><!--link Game to GameController--><g id="link_Game_GameController"><path codeLine="200" d="M1259.59,186.22 C1404.7,198.15 1639.01,232.91 1813,334 C1832.1,345.099 1849.79,360.549 1865.2,376.757 " fill="none" id="Game-GameController" style="stroke:#181818;stroke-width:1.0;"/></g><!--link Game to GameHandler--><g id="link_Game_GameHandler"><path codeLine="201" d="M1259.56,200.22 C1363.48,220.87 1507.59,260.66 1615,334 C1640.69,351.544 1663.07,377.709 1680.01,401.403 " fill="none" id="Game-GameHandler" style="stroke:#181818;stroke-width:1.0;"/></g><!--link Game to PlayerController--><g id="link_Game_PlayerController"><path codeLine="202" d="M1259.63,191.19 C1479.63,211.49 1906.71,259.31 2037,334 C2062.01,348.338 2083.63,371.187 2100.52,393.322 " fill="none" id="Game-PlayerController" style="stroke:#181818;stroke-width:1.0;"/></g><!--link Game to Player--><g id="link_Game_Player"><path codeLine="203" d="M992.424,264.4 C961.191,285.92 928.687,309.835 900,334 C875.685,354.482 850.906,379.33 830.3,401.316 " fill="none" id="Game-Player" style="stroke:#181818;stroke-width:1.0;"/><text fill="#000000" font-family="sans-serif" font-size="13" lengthAdjust="spacing" textLength="8" x="976.4704" y="265.9698">1</text><text fill="#000000" font-family="sans-serif" font-size="13" lengthAdjust="spacing" textLength="28" x="806.6022" y="390.5571">1...4</text></g><!--link Game to Board--><g id="link_Game_Board"><path codeLine="204" d="M1084.86,317.283 C1073.33,355.783 1061.76,394.408 1053.71,421.258 " fill="none" id="Game-Board" style="stroke:#181818;stroke-width:1.0;"/></g><!--link Game to Deck--><g id="link_Game_Deck"><path codeLine="205" d="M1182.36,317.376 C1183.74,322.946 1184.97,328.501 1186,334 C1204.8,434.027 1204.01,462.828 1186,563 C1182.85,580.513 1176.57,599.053 1170.25,614.831 " fill="none" id="Game-Deck" style="stroke:#181818;stroke-width:1.0;"/></g><!--link Deck to Card--><g id="link_Deck_Card"><path codeLine="206" d="M1085.05,696.22 C1033.1,727.046 960.436,770.154 902.702,804.407 " fill="none" id="Deck-Card" style="stroke:#181818;stroke-width:1.0;"/></g><!--link Player to Structure--><g id="link_Player_Structure"><path codeLine="207" d="M738.502,514.761 C717.428,542.412 692.136,575.597 671.488,602.688 " fill="none" id="Player-Structure" style="stroke:#181818;stroke-width:1.0;"/></g><!--link Player to Hand--><g id="link_Player_Hand"><path codeLine="208" d="M816.367,514.761 C833.047,541.057 852.901,572.359 869.586,598.665 " fill="none" id="Player-Hand" style="stroke:#181818;stroke-width:1.0;"/></g><!--link Structure to Card--><g id="link_Structure_Card"><path codeLine="209" d="M676.893,708.115 C693.69,727.426 713.28,749.949 732.152,771.646 " fill="none" id="Structure-Card" style="stroke:#181818;stroke-width:1.0;"/></g><!--SRC=[nLVTJniv47_FNs7nibIKd2ZjFKIdYq888Rf0K49xEbMSPBnES77ioFQ61iJ_VZFUpQxtYskbauwNu9dnUEOtd_iWOaxuUkDsP2cuZ6sd4ztEpcSz4dMYaouPgMJD3NqMMd5YnVfUIq4uOLfg8r3cGvSi3MUCarW0URtHLgJI6sw8TIPnBZ6K71D6ZUDuvRHBrjnfa1_JjQTyx187SXeKA6Uqb70Lo9-wg94JeImtml3tSBGqF_eN92LRmPzG_DTkmLBSFMdps0TwPqFP8rrnijOnb-Ibqo7mnoIrDZNWnHFmxvY0kpUIxhYnFL3cAXpmG32neSfLsD4nwIySZOKU2yrqS8qbnd3bKgKzCfnDP_DHSQz_fgc9qM_03t6ZHkWKNl0lKOwlLgBG5x47pXw9JQICX7LKFLD2ZQ6xy4MzNcirk__6cHDRdbhwzSDT8BAHbF5u22_dN1GedXbp1L6NKK2QAE44alQK8n8R-ZJdLYU6SQ_iy1tfaQqMSKLehAL_hOs_uCnmbvjS5uiyJE7RA-vkD9Xk3pDCCz3mQXYP8x9C805vAamEg_ne0IdAK2BKxlF8jPdiWt13dUD67RwhiwbaYQIE3zFOxo6oRybcpkmbKk1VmrnDKwYShO8zAaZX7W4lX5gLiW3GA6LTfupUTNONdwpSzlnXeG15KXKrezBqVVcF0rDwObX-8SgAGsAPn68fs8EWQoXuB8cuJpHoB9LRe6hGI185BOAQVW2EyDbOhN1GnoyCTA0UH9YQhtSLtXdqaIOMg4gTI6lfhWBq94lzgliUu-n5v5OKvmBuR2i_VplJdmcK0CphoYF9lpkkuZgiJcmqYH55VI-u0tdVZWc7neUePc1Jf_j5fKGA9300HbYO3Zhjru28Bmxn_4mnKeN6g6xTGAraselQJ4iX7cgZzcqvwrUv5J5dCCVWgItrkG6Z9UPBcaZdPmJpLmdQkZ7SGadwKUA9UuBdCXmzAt3nFPd4ls3xXV-DTyWu6bKiMknm7895YydL6QHwjOlc4SfCtuUeR7mkbQdpzLXIM8Ditqvpm08CGzZCll4K6Z_TLIB-DuafUBCHOGECAX7qaa4GoyQN-blbePBTsGZv4TCPniJCwmwSLXq8pAzWMbOH6dVQO5muo1gjAqddKwFK-_xtiL7pwXpNXPU6_I6DQInW10W63HCo7Nx355z1bk7r7fd2gl4RUlLxGt8rYfHikAIg75nR7lUrFeoh15vAo-MqMbArRQ6fi-vrx8kk779iQllnL5ZsrsWwdVsP7y-cdujDRJmVZQxpqtnqNbEN9jSaqFTbD1xT3iwcXPR1zUHgCCsFa-l5Q7YR7nUNyzdiAZzUZ0QtbwDv8Fr78JgSpwRJp8RNOiSD5kZIeZkK0b9g678BmFq2tIDVu2T0qJxefu6K-WaAG2k5O6lLkE89EuMkAPjPLxlR1FEzOVFZQjT4Lzg9PONJi0crEBF2bRxdD_kmO0p7QidMcVgRDbruaXQcARQbEliRrE2undkjVcVybBsu5RVraMB3Qc32QhzhRq1QMsWPLc0esoKMC4pRkNNjDLUny7xCJ_05AOskG4yoxLpep_y2UZPkVXfxooKa-m9VRqCY5MdF61- -ydVO6t2N-rbRz6uW1I-4iQufYtqJoBi0LZBMFn8dE0MNyBq7Uo0ayZQ7u8XytiHG58KYa1vc6oDAqdl9Szb17E_lbwRD4GpEjTxo5kPrLil52_wJ-_YuEJevzmrobbmvhTeDKiR1oG4o3qwwtUx7Wqmel-C_M_8JZh2EdvHmGFWxsRSM7FD17z3GWawn0MIN_W40]--></g></svg>