<?xml version="1.0" encoding="us-ascii" standalone="no"?><svg xmlns="http://www.w3.org/2000/svg" xmlns:xlink="http://www.w3.org/1999/xlink" contentStyleType="text/css" height="1287px" preserveAspectRatio="none" style="width:2144px;height:1287px;background:#FFFFFF;" version="1.1" viewBox="0 0 2144 1287" width="2144px" zoomAndPan="magnify"><defs/><g><!--cluster model--><g id="cluster_model"><path d="M82.5,6 L132.5,6 A3.75,3.75 0 0 1 135,8.5 L142,28.2969 L871.5,28.2969 A2.5,2.5 0 0 1 874,30.7969 L874,1277.5 A2.5,2.5 0 0 1 871.5,1280 L82.5,1280 A2.5,2.5 0 0 1 80,1277.5 L80,8.5 A2.5,2.5 0 0 1 82.5,6 " fill="none" style="stroke:#000000;stroke-width:1.5;"/><line style="stroke:#000000;stroke-width:1.5;" x1="80" x2="142" y1="28.2969" y2="28.2969"/><text fill="#000000" font-family="sans-serif" font-size="14" font-weight="bold" lengthAdjust="spacing" textLength="49" x="84" y="20.9951">model</text></g><!--cluster controller--><g id="cluster_controller"><path d="M900.5,342 L981.5,342 A3.75,3.75 0 0 1 984,344.5 L991,364.2969 L2134.5,364.2969 A2.5,2.5 0 0 1 2137,366.7969 L2137,552.5 A2.5,2.5 0 0 1 2134.5,555 L900.5,555 A2.5,2.5 0 0 1 898,552.5 L898,344.5 A2.5,2.5 0 0 1 900.5,342 " fill="none" style="stroke:#000000;stroke-width:1.5;"/><line style="stroke:#000000;stroke-width:1.5;" x1="898" x2="991" y1="364.2969" y2="364.2969"/><text fill="#000000" font-family="sans-serif" font-size="14" font-weight="bold" lengthAdjust="spacing" textLength="80" x="902" y="356.9951">controller</text></g><!--cluster opps--><g id="cluster_opps"><path d="M1320.5,99.5 L1360.5,99.5 A3.75,3.75 0 0 1 1363,102 L1370,121.7969 L1714.5,121.7969 A2.5,2.5 0 0 1 1717,124.2969 L1717,237 A2.5,2.5 0 0 1 1714.5,239.5 L1320.5,239.5 A2.5,2.5 0 0 1 1318,237 L1318,102 A2.5,2.5 0 0 1 1320.5,99.5 " fill="none" style="stroke:#000000;stroke-width:1.5;"/><line style="stroke:#000000;stroke-width:1.5;" x1="1318" x2="1370" y1="121.7969" y2="121.7969"/><text fill="#000000" font-family="sans-serif" font-size="14" font-weight="bold" lengthAdjust="spacing" textLength="39" x="1322" y="114.4951">opps</text></g><!--class Game--><g id="elem_Game"><rect codeLine="13" fill="#F1F1F1" height="276.1563" id="Game" rx="2.5" ry="2.5" style="stroke:#181818;stroke-width:0.5;" width="267" x="590.5" y="41"/><ellipse cx="698.75" cy="57" fill="#ADD1B2" rx="11" ry="11" style="stroke:#181818;stroke-width:1.0;"/><path d="M701.0938,52.6719 C700.1563,52.2344 699.5625,52.0938 698.6875,52.0938 C696.0625,52.0938 694.0625,54.1719 694.0625,56.8906 L694.0625,58.0156 C694.0625,60.5938 696.1719,62.4844 699.0625,62.4844 C700.2813,62.4844 701.4375,62.1875 702.1875,61.6406 C702.7656,61.2344 703.0938,60.7813 703.0938,60.3906 C703.0938,59.9375 702.7031,59.5469 702.2344,59.5469 C702.0156,59.5469 701.8125,59.625 701.625,59.8125 C701.1719,60.2969 701.1719,60.2969 700.9844,60.3906 C700.5625,60.6563 699.875,60.7813 699.1094,60.7813 C697.0625,60.7813 695.7656,59.6875 695.7656,57.9844 L695.7656,56.8906 C695.7656,55.1094 697.0156,53.7969 698.75,53.7969 C699.3281,53.7969 699.9375,53.9531 700.4063,54.2031 C700.8906,54.4844 701.0625,54.7031 701.1563,55.1094 C701.2188,55.5156 701.25,55.6406 701.3906,55.7656 C701.5313,55.9063 701.7656,56.0156 701.9844,56.0156 C702.25,56.0156 702.5156,55.875 702.6875,55.6563 C702.7969,55.5 702.8281,55.3125 702.8281,54.8906 L702.8281,53.4688 C702.8281,53.0313 702.8125,52.9063 702.7188,52.75 C702.5625,52.4844 702.2813,52.3438 701.9844,52.3438 C701.6875,52.3438 701.4844,52.4375 701.2656,52.75 L701.0938,52.6719 Z " fill="#000000"/><text fill="#000000" font-family="sans-serif" font-size="14" lengthAdjust="spacing" textLength="42" x="719.25" y="61.8467">Game</text><line style="stroke:#181818;stroke-width:0.5;" x1="591.5" x2="856.5" y1="73" y2="73"/><rect fill="none" height="6" style="stroke:#C82930;stroke-width:1.0;" width="6" x="598.5" y="83.6484"/><text fill="#000000" font-family="sans-serif" font-size="14" lengthAdjust="spacing" textLength="111" x="610.5" y="89.9951">numPlayers: int</text><rect fill="none" height="6" style="stroke:#C82930;stroke-width:1.0;" width="6" x="598.5" y="99.9453"/><text fill="#000000" font-family="sans-serif" font-size="14" lengthAdjust="spacing" textLength="147" x="610.5" y="106.292">numParticipants: int</text><rect fill="none" height="6" style="stroke:#C82930;stroke-width:1.0;" width="6" x="598.5" y="116.2422"/><text fill="#000000" font-family="sans-serif" font-size="14" lengthAdjust="spacing" textLength="165" x="610.5" y="122.5889">currentPlayer: COLORE</text><rect fill="none" height="6" style="stroke:#C82930;stroke-width:1.0;" width="6" x="598.5" y="132.5391"/><text fill="#000000" font-family="sans-serif" font-size="14" lengthAdjust="spacing" textLength="187" x="610.5" y="138.8857">commonObjectives: int[2]</text><rect fill="none" height="6" style="stroke:#C82930;stroke-width:1.0;" width="6" x="598.5" y="148.8359"/><text fill="#000000" font-family="sans-serif" font-size="14" lengthAdjust="spacing" textLength="153" x="610.5" y="155.1826">placedCards: int[2][2]</text><line style="stroke:#181818;stroke-width:0.5;" x1="591.5" x2="856.5" y1="162.4844" y2="162.4844"/><ellipse cx="601.5" cy="176.1328" fill="#84BE84" rx="3" ry="3" style="stroke:#038048;stroke-width:1.0;"/><text fill="#000000" font-family="sans-serif" font-size="14" lengthAdjust="spacing" textLength="193" x="610.5" y="179.4795">drawResourceCards() : void</text><ellipse cx="601.5" cy="192.4297" fill="#84BE84" rx="3" ry="3" style="stroke:#038048;stroke-width:1.0;"/><text fill="#000000" font-family="sans-serif" font-size="14" lengthAdjust="spacing" textLength="153" x="610.5" y="195.7764">drawGoldCard() : void</text><ellipse cx="601.5" cy="208.7266" fill="#84BE84" rx="3" ry="3" style="stroke:#038048;stroke-width:1.0;"/><text fill="#000000" font-family="sans-serif" font-size="14" lengthAdjust="spacing" textLength="205" x="610.5" y="212.0732">drawSecretObjective() : void</text><ellipse cx="601.5" cy="225.0234" fill="#84BE84" rx="3" ry="3" style="stroke:#038048;stroke-width:1.0;"/><text fill="#000000" font-family="sans-serif" font-size="14" lengthAdjust="spacing" textLength="225" x="610.5" y="228.3701">getPoints( COLORE colore) : int</text><ellipse cx="601.5" cy="241.3203" fill="#84BE84" rx="3" ry="3" style="stroke:#038048;stroke-width:1.0;"/><text fill="#000000" font-family="sans-serif" font-size="14" lengthAdjust="spacing" textLength="136" x="610.5" y="244.667">futurePoints () : int</text><ellipse cx="601.5" cy="257.6172" fill="#84BE84" rx="3" ry="3" style="stroke:#038048;stroke-width:1.0;"/><text fill="#000000" font-family="sans-serif" font-size="14" lengthAdjust="spacing" textLength="128" x="610.5" y="260.9639">insertCard() : void</text><ellipse cx="601.5" cy="273.9141" fill="#84BE84" rx="3" ry="3" style="stroke:#038048;stroke-width:1.0;"/><text fill="#000000" font-family="sans-serif" font-size="14" lengthAdjust="spacing" textLength="147" x="610.5" y="277.2607">checkPattern(): void</text><ellipse cx="601.5" cy="290.2109" fill="#84BE84" rx="3" ry="3" style="stroke:#038048;stroke-width:1.0;"/><text fill="#000000" font-family="sans-serif" font-size="14" lengthAdjust="spacing" textLength="241" x="610.5" y="293.5576">calculateCurrentResources(): void</text><ellipse cx="601.5" cy="306.5078" fill="#84BE84" rx="3" ry="3" style="stroke:#038048;stroke-width:1.0;"/><text fill="#000000" font-family="sans-serif" font-size="14" lengthAdjust="spacing" textLength="158" x="610.5" y="309.8545">calculatePoints(): void</text></g><!--class Player--><g id="elem_Player"><rect codeLine="41" fill="#F1F1F1" height="113.1875" id="Player" rx="2.5" ry="2.5" style="stroke:#181818;stroke-width:0.5;" width="202" x="278" y="401.5"/><ellipse cx="352.75" cy="417.5" fill="#ADD1B2" rx="11" ry="11" style="stroke:#181818;stroke-width:1.0;"/><path d="M355.0938,413.1719 C354.1563,412.7344 353.5625,412.5938 352.6875,412.5938 C350.0625,412.5938 348.0625,414.6719 348.0625,417.3906 L348.0625,418.5156 C348.0625,421.0938 350.1719,422.9844 353.0625,422.9844 C354.2813,422.9844 355.4375,422.6875 356.1875,422.1406 C356.7656,421.7344 357.0938,421.2813 357.0938,420.8906 C357.0938,420.4375 356.7031,420.0469 356.2344,420.0469 C356.0156,420.0469 355.8125,420.125 355.625,420.3125 C355.1719,420.7969 355.1719,420.7969 354.9844,420.8906 C354.5625,421.1563 353.875,421.2813 353.1094,421.2813 C351.0625,421.2813 349.7656,420.1875 349.7656,418.4844 L349.7656,417.3906 C349.7656,415.6094 351.0156,414.2969 352.75,414.2969 C353.3281,414.2969 353.9375,414.4531 354.4063,414.7031 C354.8906,414.9844 355.0625,415.2031 355.1563,415.6094 C355.2188,416.0156 355.25,416.1406 355.3906,416.2656 C355.5313,416.4063 355.7656,416.5156 355.9844,416.5156 C356.25,416.5156 356.5156,416.375 356.6875,416.1563 C356.7969,416 356.8281,415.8125 356.8281,415.3906 L356.8281,413.9688 C356.8281,413.5313 356.8125,413.4063 356.7188,413.25 C356.5625,412.9844 356.2813,412.8438 355.9844,412.8438 C355.6875,412.8438 355.4844,412.9375 355.2656,413.25 L355.0938,413.1719 Z " fill="#000000"/><text fill="#000000" font-family="sans-serif" font-size="14" lengthAdjust="spacing" textLength="44" x="373.25" y="422.3467">Player</text><line style="stroke:#181818;stroke-width:0.5;" x1="279" x2="479" y1="433.5" y2="433.5"/><rect fill="none" height="6" style="stroke:#C82930;stroke-width:1.0;" width="6" x="286" y="444.1484"/><text fill="#000000" font-family="sans-serif" font-size="14" lengthAdjust="spacing" textLength="123" x="298" y="450.4951">nickname: String</text><rect fill="none" height="6" style="stroke:#C82930;stroke-width:1.0;" width="6" x="286" y="460.4453"/><text fill="#000000" font-family="sans-serif" font-size="14" lengthAdjust="spacing" textLength="139" x="298" y="466.792">colorPlayer: COLOR</text><line style="stroke:#181818;stroke-width:0.5;" x1="279" x2="479" y1="474.0938" y2="474.0938"/><ellipse cx="289" cy="487.7422" fill="#84BE84" rx="3" ry="3" style="stroke:#038048;stroke-width:1.0;"/><text fill="#000000" font-family="sans-serif" font-size="14" lengthAdjust="spacing" textLength="159" x="298" y="491.0889">getNickname(): String</text><ellipse cx="289" cy="504.0391" fill="#84BE84" rx="3" ry="3" style="stroke:#038048;stroke-width:1.0;"/><text fill="#000000" font-family="sans-serif" font-size="14" lengthAdjust="spacing" textLength="176" x="298" y="507.3857">getColorPlayer(): COLOR</text></g><!--class Board--><g id="elem_Board"><rect codeLine="49" fill="#F1F1F1" height="72.5938" id="Board" rx="2.5" ry="2.5" style="stroke:#181818;stroke-width:0.5;" width="251" x="515.5" y="421.5"/><ellipse cx="615.75" cy="437.5" fill="#ADD1B2" rx="11" ry="11" style="stroke:#181818;stroke-width:1.0;"/><path d="M618.0938,433.1719 C617.1563,432.7344 616.5625,432.5938 615.6875,432.5938 C613.0625,432.5938 611.0625,434.6719 611.0625,437.3906 L611.0625,438.5156 C611.0625,441.0938 613.1719,442.9844 616.0625,442.9844 C617.2813,442.9844 618.4375,442.6875 619.1875,442.1406 C619.7656,441.7344 620.0938,441.2813 620.0938,440.8906 C620.0938,440.4375 619.7031,440.0469 619.2344,440.0469 C619.0156,440.0469 618.8125,440.125 618.625,440.3125 C618.1719,440.7969 618.1719,440.7969 617.9844,440.8906 C617.5625,441.1563 616.875,441.2813 616.1094,441.2813 C614.0625,441.2813 612.7656,440.1875 612.7656,438.4844 L612.7656,437.3906 C612.7656,435.6094 614.0156,434.2969 615.75,434.2969 C616.3281,434.2969 616.9375,434.4531 617.4063,434.7031 C617.8906,434.9844 618.0625,435.2031 618.1563,435.6094 C618.2188,436.0156 618.25,436.1406 618.3906,436.2656 C618.5313,436.4063 618.7656,436.5156 618.9844,436.5156 C619.25,436.5156 619.5156,436.375 619.6875,436.1563 C619.7969,436 619.8281,435.8125 619.8281,435.3906 L619.8281,433.9688 C619.8281,433.5313 619.8125,433.4063 619.7188,433.25 C619.5625,432.9844 619.2813,432.8438 618.9844,432.8438 C618.6875,432.8438 618.4844,432.9375 618.2656,433.25 L618.0938,433.1719 Z " fill="#000000"/><text fill="#000000" font-family="sans-serif" font-size="14" lengthAdjust="spacing" textLength="42" x="636.25" y="442.3467">Board</text><line style="stroke:#181818;stroke-width:0.5;" x1="516.5" x2="765.5" y1="453.5" y2="453.5"/><ellipse cx="526.5" cy="467.1484" fill="#84BE84" rx="3" ry="3" style="stroke:#038048;stroke-width:1.0;"/><text fill="#000000" font-family="sans-serif" font-size="14" lengthAdjust="spacing" textLength="225" x="535.5" y="470.4951">getPoints( COLORE colore) : int</text><ellipse cx="526.5" cy="483.4453" fill="#84BE84" rx="3" ry="3" style="stroke:#038048;stroke-width:1.0;"/><text fill="#000000" font-family="sans-serif" font-size="14" lengthAdjust="spacing" textLength="136" x="535.5" y="486.792">futurePoints () : int</text></g><!--class Card--><g id="elem_Card"><rect codeLine="54" fill="#F1F1F1" height="178.375" id="Card" rx="2.5" ry="2.5" style="stroke:#181818;stroke-width:0.5;" width="187" x="313.5" y="772"/><ellipse cx="386.25" cy="788" fill="#ADD1B2" rx="11" ry="11" style="stroke:#181818;stroke-width:1.0;"/><path d="M388.5938,783.6719 C387.6563,783.2344 387.0625,783.0938 386.1875,783.0938 C383.5625,783.0938 381.5625,785.1719 381.5625,787.8906 L381.5625,789.0156 C381.5625,791.5938 383.6719,793.4844 386.5625,793.4844 C387.7813,793.4844 388.9375,793.1875 389.6875,792.6406 C390.2656,792.2344 390.5938,791.7813 390.5938,791.3906 C390.5938,790.9375 390.2031,790.5469 389.7344,790.5469 C389.5156,790.5469 389.3125,790.625 389.125,790.8125 C388.6719,791.2969 388.6719,791.2969 388.4844,791.3906 C388.0625,791.6563 387.375,791.7813 386.6094,791.7813 C384.5625,791.7813 383.2656,790.6875 383.2656,788.9844 L383.2656,787.8906 C383.2656,786.1094 384.5156,784.7969 386.25,784.7969 C386.8281,784.7969 387.4375,784.9531 387.9063,785.2031 C388.3906,785.4844 388.5625,785.7031 388.6563,786.1094 C388.7188,786.5156 388.75,786.6406 388.8906,786.7656 C389.0313,786.9063 389.2656,787.0156 389.4844,787.0156 C389.75,787.0156 390.0156,786.875 390.1875,786.6563 C390.2969,786.5 390.3281,786.3125 390.3281,785.8906 L390.3281,784.4688 C390.3281,784.0313 390.3125,783.9063 390.2188,783.75 C390.0625,783.4844 389.7813,783.3438 389.4844,783.3438 C389.1875,783.3438 388.9844,783.4375 388.7656,783.75 L388.5938,783.6719 Z " fill="#000000"/><text fill="#000000" font-family="sans-serif" font-size="14" lengthAdjust="spacing" textLength="33" x="406.75" y="792.8467">Card</text><line style="stroke:#181818;stroke-width:0.5;" x1="314.5" x2="499.5" y1="804" y2="804"/><rect fill="none" height="6" style="stroke:#C82930;stroke-width:1.0;" width="6" x="321.5" y="814.6484"/><text fill="#000000" font-family="sans-serif" font-size="14" lengthAdjust="spacing" textLength="75" x="333.5" y="820.9951">idCard: int</text><rect fill="none" height="6" style="stroke:#C82930;stroke-width:1.0;" width="6" x="321.5" y="830.9453"/><text fill="#000000" font-family="sans-serif" font-size="14" lengthAdjust="spacing" textLength="124" x="333.5" y="837.292">codeFront: char[]</text><rect fill="none" height="6" style="stroke:#C82930;stroke-width:1.0;" width="6" x="321.5" y="847.2422"/><text fill="#000000" font-family="sans-serif" font-size="14" lengthAdjust="spacing" textLength="120" x="333.5" y="853.5889">codeBack: char[]</text><rect fill="none" height="6" style="stroke:#C82930;stroke-width:1.0;" width="6" x="321.5" y="863.5391"/><text fill="#000000" font-family="sans-serif" font-size="14" lengthAdjust="spacing" textLength="115" x="333.5" y="869.8857">cardPoints: int[]</text><line style="stroke:#181818;stroke-width:0.5;" x1="314.5" x2="499.5" y1="877.1875" y2="877.1875"/><ellipse cx="324.5" cy="890.8359" fill="#84BE84" rx="3" ry="3" style="stroke:#038048;stroke-width:1.0;"/><text fill="#000000" font-family="sans-serif" font-size="14" lengthAdjust="spacing" textLength="110" x="333.5" y="894.1826">getIdCard(): int</text><ellipse cx="324.5" cy="907.1328" fill="#84BE84" rx="3" ry="3" style="stroke:#038048;stroke-width:1.0;"/><text fill="#000000" font-family="sans-serif" font-size="14" lengthAdjust="spacing" textLength="161" x="333.5" y="910.4795">getCodeFront(): char[]</text><ellipse cx="324.5" cy="923.4297" fill="#84BE84" rx="3" ry="3" style="stroke:#038048;stroke-width:1.0;"/><text fill="#000000" font-family="sans-serif" font-size="14" lengthAdjust="spacing" textLength="157" x="333.5" y="926.7764">getCodeBack(): char[]</text><ellipse cx="324.5" cy="939.7266" fill="#84BE84" rx="3" ry="3" style="stroke:#038048;stroke-width:1.0;"/><text fill="#000000" font-family="sans-serif" font-size="14" lengthAdjust="spacing" textLength="152" x="333.5" y="943.0732">getCardPoints(): int[]</text></g><!--class ObjectiveCard--><g id="elem_ObjectiveCard"><rect codeLine="67" fill="#F1F1F1" height="40" id="ObjectiveCard" rx="2.5" ry="2.5" style="stroke:#181818;stroke-width:0.5;" width="135" x="222.5" y="1046.5"/><ellipse cx="237.5" cy="1062.5" fill="#ADD1B2" rx="11" ry="11" style="stroke:#181818;stroke-width:1.0;"/><path d="M239.8438,1058.1719 C238.9063,1057.7344 238.3125,1057.5938 237.4375,1057.5938 C234.8125,1057.5938 232.8125,1059.6719 232.8125,1062.3906 L232.8125,1063.5156 C232.8125,1066.0938 234.9219,1067.9844 237.8125,1067.9844 C239.0313,1067.9844 240.1875,1067.6875 240.9375,1067.1406 C241.5156,1066.7344 241.8438,1066.2813 241.8438,1065.8906 C241.8438,1065.4375 241.4531,1065.0469 240.9844,1065.0469 C240.7656,1065.0469 240.5625,1065.125 240.375,1065.3125 C239.9219,1065.7969 239.9219,1065.7969 239.7344,1065.8906 C239.3125,1066.1563 238.625,1066.2813 237.8594,1066.2813 C235.8125,1066.2813 234.5156,1065.1875 234.5156,1063.4844 L234.5156,1062.3906 C234.5156,1060.6094 235.7656,1059.2969 237.5,1059.2969 C238.0781,1059.2969 238.6875,1059.4531 239.1563,1059.7031 C239.6406,1059.9844 239.8125,1060.2031 239.9063,1060.6094 C239.9688,1061.0156 240,1061.1406 240.1406,1061.2656 C240.2813,1061.4063 240.5156,1061.5156 240.7344,1061.5156 C241,1061.5156 241.2656,1061.375 241.4375,1061.1563 C241.5469,1061 241.5781,1060.8125 241.5781,1060.3906 L241.5781,1058.9688 C241.5781,1058.5313 241.5625,1058.4063 241.4688,1058.25 C241.3125,1057.9844 241.0313,1057.8438 240.7344,1057.8438 C240.4375,1057.8438 240.2344,1057.9375 240.0156,1058.25 L239.8438,1058.1719 Z " fill="#000000"/><text fill="#000000" font-family="sans-serif" font-size="14" lengthAdjust="spacing" textLength="103" x="251.5" y="1067.3467">ObjectiveCard</text><line style="stroke:#181818;stroke-width:0.5;" x1="223.5" x2="356.5" y1="1078.5" y2="1078.5"/></g><!--class AngledCard--><g id="elem_AngledCard"><rect codeLine="72" fill="#F1F1F1" height="113.1875" id="AngledCard" rx="2.5" ry="2.5" style="stroke:#181818;stroke-width:0.5;" width="265" x="392.5" y="1010"/><ellipse cx="479.25" cy="1026" fill="#ADD1B2" rx="11" ry="11" style="stroke:#181818;stroke-width:1.0;"/><path d="M481.5938,1021.6719 C480.6563,1021.2344 480.0625,1021.0938 479.1875,1021.0938 C476.5625,1021.0938 474.5625,1023.1719 474.5625,1025.8906 L474.5625,1027.0156 C474.5625,1029.5938 476.6719,1031.4844 479.5625,1031.4844 C480.7813,1031.4844 481.9375,1031.1875 482.6875,1030.6406 C483.2656,1030.2344 483.5938,1029.7813 483.5938,1029.3906 C483.5938,1028.9375 483.2031,1028.5469 482.7344,1028.5469 C482.5156,1028.5469 482.3125,1028.625 482.125,1028.8125 C481.6719,1029.2969 481.6719,1029.2969 481.4844,1029.3906 C481.0625,1029.6563 480.375,1029.7813 479.6094,1029.7813 C477.5625,1029.7813 476.2656,1028.6875 476.2656,1026.9844 L476.2656,1025.8906 C476.2656,1024.1094 477.5156,1022.7969 479.25,1022.7969 C479.8281,1022.7969 480.4375,1022.9531 480.9063,1023.2031 C481.3906,1023.4844 481.5625,1023.7031 481.6563,1024.1094 C481.7188,1024.5156 481.75,1024.6406 481.8906,1024.7656 C482.0313,1024.9063 482.2656,1025.0156 482.4844,1025.0156 C482.75,1025.0156 483.0156,1024.875 483.1875,1024.6563 C483.2969,1024.5 483.3281,1024.3125 483.3281,1023.8906 L483.3281,1022.4688 C483.3281,1022.0313 483.3125,1021.9063 483.2188,1021.75 C483.0625,1021.4844 482.7813,1021.3438 482.4844,1021.3438 C482.1875,1021.3438 481.9844,1021.4375 481.7656,1021.75 L481.5938,1021.6719 Z " fill="#000000"/><text fill="#000000" font-family="sans-serif" font-size="14" lengthAdjust="spacing" textLength="83" x="499.75" y="1030.8467">AngledCard</text><line style="stroke:#181818;stroke-width:0.5;" x1="393.5" x2="656.5" y1="1042" y2="1042"/><rect fill="none" height="6" style="stroke:#C82930;stroke-width:1.0;" width="6" x="400.5" y="1052.6484"/><text fill="#000000" font-family="sans-serif" font-size="14" lengthAdjust="spacing" textLength="152" x="412.5" y="1058.9951">cardCorners: int[2][2]</text><rect fill="none" height="6" style="stroke:#C82930;stroke-width:1.0;" width="6" x="400.5" y="1068.9453"/><text fill="#000000" font-family="sans-serif" font-size="14" lengthAdjust="spacing" textLength="202" x="412.5" y="1075.292">cardSymbols: SIMBOLO[2][2]</text><line style="stroke:#181818;stroke-width:0.5;" x1="393.5" x2="656.5" y1="1082.5938" y2="1082.5938"/><ellipse cx="403.5" cy="1096.2422" fill="#84BE84" rx="3" ry="3" style="stroke:#038048;stroke-width:1.0;"/><text fill="#000000" font-family="sans-serif" font-size="14" lengthAdjust="spacing" textLength="189" x="412.5" y="1099.5889">getCardCorners(): int[2][2]</text><ellipse cx="403.5" cy="1112.5391" fill="#84BE84" rx="3" ry="3" style="stroke:#038048;stroke-width:1.0;"/><text fill="#000000" font-family="sans-serif" font-size="14" lengthAdjust="spacing" textLength="239" x="412.5" y="1115.8857">getCardSymbols(): SIMBOLO[2][2]</text></g><!--class GoldCard--><g id="elem_GoldCard"><rect codeLine="81" fill="#F1F1F1" height="80.5938" id="GoldCard" rx="2.5" ry="2.5" style="stroke:#181818;stroke-width:0.5;" width="227" x="124.5" y="1183"/><ellipse cx="200.75" cy="1199" fill="#ADD1B2" rx="11" ry="11" style="stroke:#181818;stroke-width:1.0;"/><path d="M203.0938,1194.6719 C202.1563,1194.2344 201.5625,1194.0938 200.6875,1194.0938 C198.0625,1194.0938 196.0625,1196.1719 196.0625,1198.8906 L196.0625,1200.0156 C196.0625,1202.5938 198.1719,1204.4844 201.0625,1204.4844 C202.2813,1204.4844 203.4375,1204.1875 204.1875,1203.6406 C204.7656,1203.2344 205.0938,1202.7813 205.0938,1202.3906 C205.0938,1201.9375 204.7031,1201.5469 204.2344,1201.5469 C204.0156,1201.5469 203.8125,1201.625 203.625,1201.8125 C203.1719,1202.2969 203.1719,1202.2969 202.9844,1202.3906 C202.5625,1202.6563 201.875,1202.7813 201.1094,1202.7813 C199.0625,1202.7813 197.7656,1201.6875 197.7656,1199.9844 L197.7656,1198.8906 C197.7656,1197.1094 199.0156,1195.7969 200.75,1195.7969 C201.3281,1195.7969 201.9375,1195.9531 202.4063,1196.2031 C202.8906,1196.4844 203.0625,1196.7031 203.1563,1197.1094 C203.2188,1197.5156 203.25,1197.6406 203.3906,1197.7656 C203.5313,1197.9063 203.7656,1198.0156 203.9844,1198.0156 C204.25,1198.0156 204.5156,1197.875 204.6875,1197.6563 C204.7969,1197.5 204.8281,1197.3125 204.8281,1196.8906 L204.8281,1195.4688 C204.8281,1195.0313 204.8125,1194.9063 204.7188,1194.75 C204.5625,1194.4844 204.2813,1194.3438 203.9844,1194.3438 C203.6875,1194.3438 203.4844,1194.4375 203.2656,1194.75 L203.0938,1194.6719 Z " fill="#000000"/><text fill="#000000" font-family="sans-serif" font-size="14" lengthAdjust="spacing" textLength="66" x="221.25" y="1203.8467">GoldCard</text><line style="stroke:#181818;stroke-width:0.5;" x1="125.5" x2="350.5" y1="1215" y2="1215"/><rect fill="none" height="6" style="stroke:#C82930;stroke-width:1.0;" width="6" x="132.5" y="1225.6484"/><text fill="#000000" font-family="sans-serif" font-size="14" lengthAdjust="spacing" textLength="162" x="144.5" y="1231.9951">resources: SIMBOLO[5]</text><line style="stroke:#181818;stroke-width:0.5;" x1="125.5" x2="350.5" y1="1239.2969" y2="1239.2969"/><ellipse cx="135.5" cy="1252.9453" fill="#84BE84" rx="3" ry="3" style="stroke:#038048;stroke-width:1.0;"/><text fill="#000000" font-family="sans-serif" font-size="14" lengthAdjust="spacing" textLength="201" x="144.5" y="1256.292">getResources(): SIMBOLO[5]</text></g><!--class InitialCard--><g id="elem_InitialCard"><rect codeLine="89" fill="#F1F1F1" height="80.5938" id="InitialCard" rx="2.5" ry="2.5" style="stroke:#181818;stroke-width:0.5;" width="277" x="386.5" y="1183"/><ellipse cx="484.25" cy="1199" fill="#ADD1B2" rx="11" ry="11" style="stroke:#181818;stroke-width:1.0;"/><path d="M486.5938,1194.6719 C485.6563,1194.2344 485.0625,1194.0938 484.1875,1194.0938 C481.5625,1194.0938 479.5625,1196.1719 479.5625,1198.8906 L479.5625,1200.0156 C479.5625,1202.5938 481.6719,1204.4844 484.5625,1204.4844 C485.7813,1204.4844 486.9375,1204.1875 487.6875,1203.6406 C488.2656,1203.2344 488.5938,1202.7813 488.5938,1202.3906 C488.5938,1201.9375 488.2031,1201.5469 487.7344,1201.5469 C487.5156,1201.5469 487.3125,1201.625 487.125,1201.8125 C486.6719,1202.2969 486.6719,1202.2969 486.4844,1202.3906 C486.0625,1202.6563 485.375,1202.7813 484.6094,1202.7813 C482.5625,1202.7813 481.2656,1201.6875 481.2656,1199.9844 L481.2656,1198.8906 C481.2656,1197.1094 482.5156,1195.7969 484.25,1195.7969 C484.8281,1195.7969 485.4375,1195.9531 485.9063,1196.2031 C486.3906,1196.4844 486.5625,1196.7031 486.6563,1197.1094 C486.7188,1197.5156 486.75,1197.6406 486.8906,1197.7656 C487.0313,1197.9063 487.2656,1198.0156 487.4844,1198.0156 C487.75,1198.0156 488.0156,1197.875 488.1875,1197.6563 C488.2969,1197.5 488.3281,1197.3125 488.3281,1196.8906 L488.3281,1195.4688 C488.3281,1195.0313 488.3125,1194.9063 488.2188,1194.75 C488.0625,1194.4844 487.7813,1194.3438 487.4844,1194.3438 C487.1875,1194.3438 486.9844,1194.4375 486.7656,1194.75 L486.5938,1194.6719 Z " fill="#000000"/><text fill="#000000" font-family="sans-serif" font-size="14" lengthAdjust="spacing" textLength="73" x="504.75" y="1203.8467">InitialCard</text><line style="stroke:#181818;stroke-width:0.5;" x1="387.5" x2="662.5" y1="1215" y2="1215"/><rect fill="none" height="6" style="stroke:#C82930;stroke-width:1.0;" width="6" x="394.5" y="1225.6484"/><text fill="#000000" font-family="sans-serif" font-size="14" lengthAdjust="spacing" textLength="214" x="406.5" y="1231.9951">centerResources: SIMBOLO[3]</text><line style="stroke:#181818;stroke-width:0.5;" x1="387.5" x2="662.5" y1="1239.2969" y2="1239.2969"/><ellipse cx="397.5" cy="1252.9453" fill="#84BE84" rx="3" ry="3" style="stroke:#038048;stroke-width:1.0;"/><text fill="#000000" font-family="sans-serif" font-size="14" lengthAdjust="spacing" textLength="251" x="406.5" y="1256.292">getCenterResources(): SIMBOLO[3]</text></g><!--class ResourceCard--><g id="elem_ResourceCard"><rect codeLine="96" fill="#F1F1F1" height="40" id="ResourceCard" rx="2.5" ry="2.5" style="stroke:#181818;stroke-width:0.5;" width="131" x="698.5" y="1203.5"/><ellipse cx="713.5" cy="1219.5" fill="#ADD1B2" rx="11" ry="11" style="stroke:#181818;stroke-width:1.0;"/><path d="M715.8438,1215.1719 C714.9063,1214.7344 714.3125,1214.5938 713.4375,1214.5938 C710.8125,1214.5938 708.8125,1216.6719 708.8125,1219.3906 L708.8125,1220.5156 C708.8125,1223.0938 710.9219,1224.9844 713.8125,1224.9844 C715.0313,1224.9844 716.1875,1224.6875 716.9375,1224.1406 C717.5156,1223.7344 717.8438,1223.2813 717.8438,1222.8906 C717.8438,1222.4375 717.4531,1222.0469 716.9844,1222.0469 C716.7656,1222.0469 716.5625,1222.125 716.375,1222.3125 C715.9219,1222.7969 715.9219,1222.7969 715.7344,1222.8906 C715.3125,1223.1563 714.625,1223.2813 713.8594,1223.2813 C711.8125,1223.2813 710.5156,1222.1875 710.5156,1220.4844 L710.5156,1219.3906 C710.5156,1217.6094 711.7656,1216.2969 713.5,1216.2969 C714.0781,1216.2969 714.6875,1216.4531 715.1563,1216.7031 C715.6406,1216.9844 715.8125,1217.2031 715.9063,1217.6094 C715.9688,1218.0156 716,1218.1406 716.1406,1218.2656 C716.2813,1218.4063 716.5156,1218.5156 716.7344,1218.5156 C717,1218.5156 717.2656,1218.375 717.4375,1218.1563 C717.5469,1218 717.5781,1217.8125 717.5781,1217.3906 L717.5781,1215.9688 C717.5781,1215.5313 717.5625,1215.4063 717.4688,1215.25 C717.3125,1214.9844 717.0313,1214.8438 716.7344,1214.8438 C716.4375,1214.8438 716.2344,1214.9375 716.0156,1215.25 L715.8438,1215.1719 Z " fill="#000000"/><text fill="#000000" font-family="sans-serif" font-size="14" lengthAdjust="spacing" textLength="99" x="727.5" y="1224.3467">ResourceCard</text><line style="stroke:#181818;stroke-width:0.5;" x1="699.5" x2="828.5" y1="1235.5" y2="1235.5"/></g><!--class Structure--><g id="elem_Structure"><rect codeLine="98" fill="#F1F1F1" height="105.1875" id="Structure" rx="2.5" ry="2.5" style="stroke:#181818;stroke-width:0.5;" width="267" x="96.5" y="603"/><ellipse cx="191.75" cy="619" fill="#ADD1B2" rx="11" ry="11" style="stroke:#181818;stroke-width:1.0;"/><path d="M194.0938,614.6719 C193.1563,614.2344 192.5625,614.0938 191.6875,614.0938 C189.0625,614.0938 187.0625,616.1719 187.0625,618.8906 L187.0625,620.0156 C187.0625,622.5938 189.1719,624.4844 192.0625,624.4844 C193.2813,624.4844 194.4375,624.1875 195.1875,623.6406 C195.7656,623.2344 196.0938,622.7813 196.0938,622.3906 C196.0938,621.9375 195.7031,621.5469 195.2344,621.5469 C195.0156,621.5469 194.8125,621.625 194.625,621.8125 C194.1719,622.2969 194.1719,622.2969 193.9844,622.3906 C193.5625,622.6563 192.875,622.7813 192.1094,622.7813 C190.0625,622.7813 188.7656,621.6875 188.7656,619.9844 L188.7656,618.8906 C188.7656,617.1094 190.0156,615.7969 191.75,615.7969 C192.3281,615.7969 192.9375,615.9531 193.4063,616.2031 C193.8906,616.4844 194.0625,616.7031 194.1563,617.1094 C194.2188,617.5156 194.25,617.6406 194.3906,617.7656 C194.5313,617.9063 194.7656,618.0156 194.9844,618.0156 C195.25,618.0156 195.5156,617.875 195.6875,617.6563 C195.7969,617.5 195.8281,617.3125 195.8281,616.8906 L195.8281,615.4688 C195.8281,615.0313 195.8125,614.9063 195.7188,614.75 C195.5625,614.4844 195.2813,614.3438 194.9844,614.3438 C194.6875,614.3438 194.4844,614.4375 194.2656,614.75 L194.0938,614.6719 Z " fill="#000000"/><text fill="#000000" font-family="sans-serif" font-size="14" lengthAdjust="spacing" textLength="68" x="212.25" y="623.8467">Structure</text><line style="stroke:#181818;stroke-width:0.5;" x1="97.5" x2="362.5" y1="635" y2="635"/><ellipse cx="107.5" cy="648.6484" fill="#84BE84" rx="3" ry="3" style="stroke:#038048;stroke-width:1.0;"/><text fill="#000000" font-family="sans-serif" font-size="14" lengthAdjust="spacing" textLength="128" x="116.5" y="651.9951">insertCard() : void</text><ellipse cx="107.5" cy="664.9453" fill="#84BE84" rx="3" ry="3" style="stroke:#038048;stroke-width:1.0;"/><text fill="#000000" font-family="sans-serif" font-size="14" lengthAdjust="spacing" textLength="147" x="116.5" y="668.292">checkPattern(): void</text><ellipse cx="107.5" cy="681.2422" fill="#84BE84" rx="3" ry="3" style="stroke:#038048;stroke-width:1.0;"/><text fill="#000000" font-family="sans-serif" font-size="14" lengthAdjust="spacing" textLength="241" x="116.5" y="684.5889">calculateCurrentResources(): void</text><ellipse cx="107.5" cy="697.5391" fill="#84BE84" rx="3" ry="3" style="stroke:#038048;stroke-width:1.0;"/><text fill="#000000" font-family="sans-serif" font-size="14" lengthAdjust="spacing" textLength="158" x="116.5" y="700.8857">calculatePoints(): void</text></g><!--class Deck--><g id="elem_Deck"><rect codeLine="105" fill="#F1F1F1" height="80.5938" id="Deck" rx="2.5" ry="2.5" style="stroke:#181818;stroke-width:0.5;" width="215" x="642.5" y="615"/><ellipse cx="727.25" cy="631" fill="#ADD1B2" rx="11" ry="11" style="stroke:#181818;stroke-width:1.0;"/><path d="M729.5938,626.6719 C728.6563,626.2344 728.0625,626.0938 727.1875,626.0938 C724.5625,626.0938 722.5625,628.1719 722.5625,630.8906 L722.5625,632.0156 C722.5625,634.5938 724.6719,636.4844 727.5625,636.4844 C728.7813,636.4844 729.9375,636.1875 730.6875,635.6406 C731.2656,635.2344 731.5938,634.7813 731.5938,634.3906 C731.5938,633.9375 731.2031,633.5469 730.7344,633.5469 C730.5156,633.5469 730.3125,633.625 730.125,633.8125 C729.6719,634.2969 729.6719,634.2969 729.4844,634.3906 C729.0625,634.6563 728.375,634.7813 727.6094,634.7813 C725.5625,634.7813 724.2656,633.6875 724.2656,631.9844 L724.2656,630.8906 C724.2656,629.1094 725.5156,627.7969 727.25,627.7969 C727.8281,627.7969 728.4375,627.9531 728.9063,628.2031 C729.3906,628.4844 729.5625,628.7031 729.6563,629.1094 C729.7188,629.5156 729.75,629.6406 729.8906,629.7656 C730.0313,629.9063 730.2656,630.0156 730.4844,630.0156 C730.75,630.0156 731.0156,629.875 731.1875,629.6563 C731.2969,629.5 731.3281,629.3125 731.3281,628.8906 L731.3281,627.4688 C731.3281,627.0313 731.3125,626.9063 731.2188,626.75 C731.0625,626.4844 730.7813,626.3438 730.4844,626.3438 C730.1875,626.3438 729.9844,626.4375 729.7656,626.75 L729.5938,626.6719 Z " fill="#000000"/><text fill="#000000" font-family="sans-serif" font-size="14" lengthAdjust="spacing" textLength="37" x="747.75" y="635.8467">Deck</text><line style="stroke:#181818;stroke-width:0.5;" x1="643.5" x2="856.5" y1="647" y2="647"/><rect fill="none" height="6" style="stroke:#C82930;stroke-width:1.0;" width="6" x="650.5" y="657.6484"/><text fill="#000000" font-family="sans-serif" font-size="14" lengthAdjust="spacing" textLength="158" x="662.5" y="663.9951">goldDeck: List&lt;Card&gt;</text><rect fill="none" height="6" style="stroke:#C82930;stroke-width:1.0;" width="6" x="650.5" y="673.9453"/><text fill="#000000" font-family="sans-serif" font-size="14" lengthAdjust="spacing" textLength="189" x="662.5" y="680.292">resourceDeck: List&lt;Card&gt;</text><line style="stroke:#181818;stroke-width:0.5;" x1="643.5" x2="856.5" y1="687.5938" y2="687.5938"/></g><!--class Hand--><g id="elem_Hand"><rect codeLine="111" fill="#F1F1F1" height="113.1875" id="Hand" rx="2.5" ry="2.5" style="stroke:#181818;stroke-width:0.5;" width="208" x="399" y="599"/><ellipse cx="480.75" cy="615" fill="#ADD1B2" rx="11" ry="11" style="stroke:#181818;stroke-width:1.0;"/><path d="M483.0938,610.6719 C482.1563,610.2344 481.5625,610.0938 480.6875,610.0938 C478.0625,610.0938 476.0625,612.1719 476.0625,614.8906 L476.0625,616.0156 C476.0625,618.5938 478.1719,620.4844 481.0625,620.4844 C482.2813,620.4844 483.4375,620.1875 484.1875,619.6406 C484.7656,619.2344 485.0938,618.7813 485.0938,618.3906 C485.0938,617.9375 484.7031,617.5469 484.2344,617.5469 C484.0156,617.5469 483.8125,617.625 483.625,617.8125 C483.1719,618.2969 483.1719,618.2969 482.9844,618.3906 C482.5625,618.6563 481.875,618.7813 481.1094,618.7813 C479.0625,618.7813 477.7656,617.6875 477.7656,615.9844 L477.7656,614.8906 C477.7656,613.1094 479.0156,611.7969 480.75,611.7969 C481.3281,611.7969 481.9375,611.9531 482.4063,612.2031 C482.8906,612.4844 483.0625,612.7031 483.1563,613.1094 C483.2188,613.5156 483.25,613.6406 483.3906,613.7656 C483.5313,613.9063 483.7656,614.0156 483.9844,614.0156 C484.25,614.0156 484.5156,613.875 484.6875,613.6563 C484.7969,613.5 484.8281,613.3125 484.8281,612.8906 L484.8281,611.4688 C484.8281,611.0313 484.8125,610.9063 484.7188,610.75 C484.5625,610.4844 484.2813,610.3438 483.9844,610.3438 C483.6875,610.3438 483.4844,610.4375 483.2656,610.75 L483.0938,610.6719 Z " fill="#000000"/><text fill="#000000" font-family="sans-serif" font-size="14" lengthAdjust="spacing" textLength="36" x="501.25" y="619.8467">Hand</text><line style="stroke:#181818;stroke-width:0.5;" x1="400" x2="606" y1="631" y2="631"/><rect fill="none" height="6" style="stroke:#C82930;stroke-width:1.0;" width="6" x="407" y="641.6484"/><text fill="#000000" font-family="sans-serif" font-size="14" lengthAdjust="spacing" textLength="145" x="419" y="647.9951">secretObjective: int</text><rect fill="none" height="6" style="stroke:#C82930;stroke-width:1.0;" width="6" x="407" y="657.9453"/><text fill="#000000" font-family="sans-serif" font-size="14" lengthAdjust="spacing" textLength="122" x="419" y="664.292">cardsHand: int[3]</text><line style="stroke:#181818;stroke-width:0.5;" x1="400" x2="606" y1="671.5938" y2="671.5938"/><ellipse cx="410" cy="685.2422" fill="#84BE84" rx="3" ry="3" style="stroke:#038048;stroke-width:1.0;"/><text fill="#000000" font-family="sans-serif" font-size="14" lengthAdjust="spacing" textLength="182" x="419" y="688.5889">getSecretObjective(): int</text><ellipse cx="410" cy="701.5391" fill="#84BE84" rx="3" ry="3" style="stroke:#038048;stroke-width:1.0;"/><text fill="#000000" font-family="sans-serif" font-size="14" lengthAdjust="spacing" textLength="159" x="419" y="704.8857">getCardsHand(): int[3]</text></g><!--class COLORE--><g id="elem_COLORE"><rect codeLine="119" fill="#F1F1F1" height="113.1875" id="COLORE" rx="2.5" ry="2.5" style="stroke:#181818;stroke-width:0.5;" width="91" x="406.5" y="122.5"/><ellipse cx="421.5" cy="138.5" fill="#EB937F" rx="11" ry="11" style="stroke:#181818;stroke-width:1.0;"/><path d="M420.2969,139.375 L421.75,139.375 L421.75,139.4844 C421.75,139.8906 421.7813,140.0469 421.8594,140.2031 C422.0156,140.4531 422.2969,140.6094 422.5938,140.6094 C422.8438,140.6094 423.1094,140.4688 423.2656,140.25 C423.3906,140.0938 423.4219,139.9375 423.4219,139.4844 L423.4219,137.5625 C423.4219,137.4063 423.4219,137.3594 423.4063,137.2031 C423.3438,136.7344 423.0313,136.4219 422.5781,136.4219 C422.3281,136.4219 422.0625,136.5625 421.8906,136.7813 C421.7813,136.9531 421.75,137.1094 421.75,137.5625 L421.75,137.6875 L420.2969,137.6875 L420.2969,135.2813 L424.2813,135.2813 L424.2813,136.1406 C424.2813,136.5469 424.3125,136.7188 424.3906,136.875 C424.5625,137.125 424.8438,137.2813 425.125,137.2813 C425.3906,137.2813 425.6563,137.1406 425.8281,136.9219 C425.9375,136.75 425.9688,136.6094 425.9688,136.1406 L425.9688,133.5938 L418.3438,133.5938 C417.9063,133.5938 417.7813,133.6094 417.625,133.7031 C417.375,133.8594 417.2188,134.1563 417.2188,134.4375 C417.2188,134.7188 417.3594,134.9688 417.5781,135.1406 C417.7344,135.25 417.9219,135.2813 418.3438,135.2813 L418.5938,135.2813 L418.5938,141.7969 L418.3438,141.7969 C417.9375,141.7969 417.7813,141.8125 417.625,141.9219 C417.375,142.0938 417.2188,142.3594 417.2188,142.6563 C417.2188,142.9219 417.3594,143.1719 417.5781,143.3281 C417.7188,143.4531 417.9531,143.5 418.3438,143.5 L426.3438,143.5 L426.3438,140.9219 C426.3438,140.4844 426.3125,140.3438 426.2344,140.1875 C426.0625,139.9375 425.7813,139.7813 425.5,139.7813 C425.2344,139.7813 424.9688,139.8906 424.7969,140.1406 C424.6875,140.2969 424.6563,140.4375 424.6563,140.9219 L424.6563,141.7969 L420.2969,141.7969 L420.2969,139.375 Z " fill="#000000"/><text fill="#000000" font-family="sans-serif" font-size="14" lengthAdjust="spacing" textLength="59" x="435.5" y="143.3467">COLORE</text><line style="stroke:#181818;stroke-width:0.5;" x1="407.5" x2="496.5" y1="154.5" y2="154.5"/><text fill="#000000" font-family="sans-serif" font-size="14" lengthAdjust="spacing" textLength="59" x="412.5" y="171.4951">YELLOW</text><text fill="#000000" font-family="sans-serif" font-size="14" lengthAdjust="spacing" textLength="36" x="412.5" y="187.792">BLUE</text><text fill="#000000" font-family="sans-serif" font-size="14" lengthAdjust="spacing" textLength="49" x="412.5" y="204.0889">GREEN</text><text fill="#000000" font-family="sans-serif" font-size="14" lengthAdjust="spacing" textLength="30" x="412.5" y="220.3857">RED</text><line style="stroke:#181818;stroke-width:0.5;" x1="407.5" x2="496.5" y1="227.6875" y2="227.6875"/></g><!--class SIMBOLI--><g id="elem_SIMBOLI"><rect codeLine="126" fill="#F1F1F1" height="162.0781" id="SIMBOLI" rx="2.5" ry="2.5" style="stroke:#181818;stroke-width:0.5;" width="97" x="158.5" y="98"/><ellipse cx="176.65" cy="114" fill="#EB937F" rx="11" ry="11" style="stroke:#181818;stroke-width:1.0;"/><path d="M175.4469,114.875 L176.9,114.875 L176.9,114.9844 C176.9,115.3906 176.9313,115.5469 177.0094,115.7031 C177.1656,115.9531 177.4469,116.1094 177.7438,116.1094 C177.9938,116.1094 178.2594,115.9688 178.4156,115.75 C178.5406,115.5938 178.5719,115.4375 178.5719,114.9844 L178.5719,113.0625 C178.5719,112.9063 178.5719,112.8594 178.5563,112.7031 C178.4938,112.2344 178.1813,111.9219 177.7281,111.9219 C177.4781,111.9219 177.2125,112.0625 177.0406,112.2813 C176.9313,112.4531 176.9,112.6094 176.9,113.0625 L176.9,113.1875 L175.4469,113.1875 L175.4469,110.7813 L179.4313,110.7813 L179.4313,111.6406 C179.4313,112.0469 179.4625,112.2188 179.5406,112.375 C179.7125,112.625 179.9938,112.7813 180.275,112.7813 C180.5406,112.7813 180.8063,112.6406 180.9781,112.4219 C181.0875,112.25 181.1188,112.1094 181.1188,111.6406 L181.1188,109.0938 L173.4938,109.0938 C173.0563,109.0938 172.9313,109.1094 172.775,109.2031 C172.525,109.3594 172.3688,109.6563 172.3688,109.9375 C172.3688,110.2188 172.5094,110.4688 172.7281,110.6406 C172.8844,110.75 173.0719,110.7813 173.4938,110.7813 L173.7438,110.7813 L173.7438,117.2969 L173.4938,117.2969 C173.0875,117.2969 172.9313,117.3125 172.775,117.4219 C172.525,117.5938 172.3688,117.8594 172.3688,118.1563 C172.3688,118.4219 172.5094,118.6719 172.7281,118.8281 C172.8688,118.9531 173.1031,119 173.4938,119 L181.4938,119 L181.4938,116.4219 C181.4938,115.9844 181.4625,115.8438 181.3844,115.6875 C181.2125,115.4375 180.9313,115.2813 180.65,115.2813 C180.3844,115.2813 180.1188,115.3906 179.9469,115.6406 C179.8375,115.7969 179.8063,115.9375 179.8063,116.4219 L179.8063,117.2969 L175.4469,117.2969 L175.4469,114.875 Z " fill="#000000"/><text fill="#000000" font-family="sans-serif" font-size="14" lengthAdjust="spacing" textLength="58" x="191.35" y="118.8467">SIMBOLI</text><line style="stroke:#181818;stroke-width:0.5;" x1="159.5" x2="254.5" y1="130" y2="130"/><text fill="#000000" font-family="sans-serif" font-size="14" lengthAdjust="spacing" textLength="85" x="164.5" y="146.9951">VEGETABLE</text><text fill="#000000" font-family="sans-serif" font-size="14" lengthAdjust="spacing" textLength="54" x="164.5" y="163.292">ANIMAL</text><text fill="#000000" font-family="sans-serif" font-size="14" lengthAdjust="spacing" textLength="51" x="164.5" y="179.5889">INSECT</text><text fill="#000000" font-family="sans-serif" font-size="14" lengthAdjust="spacing" textLength="63" x="164.5" y="195.8857">SHROOM</text><text fill="#000000" font-family="sans-serif" font-size="14" lengthAdjust="spacing" textLength="65" x="164.5" y="212.1826">FEATHER</text><text fill="#000000" font-family="sans-serif" font-size="14" lengthAdjust="spacing" textLength="24" x="164.5" y="228.4795">INK</text><text fill="#000000" font-family="sans-serif" font-size="14" lengthAdjust="spacing" textLength="56" x="164.5" y="244.7764">SCROLL</text><line style="stroke:#181818;stroke-width:0.5;" x1="159.5" x2="254.5" y1="252.0781" y2="252.0781"/></g><!--class ClientController--><g id="elem_ClientController"><rect codeLine="139" fill="#F1F1F1" height="145.7813" id="ClientController" rx="2.5" ry="2.5" style="stroke:#181818;stroke-width:0.5;" width="261" x="1859.5" y="385"/><ellipse cx="1927.75" cy="401" fill="#ADD1B2" rx="11" ry="11" style="stroke:#181818;stroke-width:1.0;"/><path d="M1930.0938,396.6719 C1929.1563,396.2344 1928.5625,396.0938 1927.6875,396.0938 C1925.0625,396.0938 1923.0625,398.1719 1923.0625,400.8906 L1923.0625,402.0156 C1923.0625,404.5938 1925.1719,406.4844 1928.0625,406.4844 C1929.2813,406.4844 1930.4375,406.1875 1931.1875,405.6406 C1931.7656,405.2344 1932.0938,404.7813 1932.0938,404.3906 C1932.0938,403.9375 1931.7031,403.5469 1931.2344,403.5469 C1931.0156,403.5469 1930.8125,403.625 1930.625,403.8125 C1930.1719,404.2969 1930.1719,404.2969 1929.9844,404.3906 C1929.5625,404.6563 1928.875,404.7813 1928.1094,404.7813 C1926.0625,404.7813 1924.7656,403.6875 1924.7656,401.9844 L1924.7656,400.8906 C1924.7656,399.1094 1926.0156,397.7969 1927.75,397.7969 C1928.3281,397.7969 1928.9375,397.9531 1929.4063,398.2031 C1929.8906,398.4844 1930.0625,398.7031 1930.1563,399.1094 C1930.2188,399.5156 1930.25,399.6406 1930.3906,399.7656 C1930.5313,399.9063 1930.7656,400.0156 1930.9844,400.0156 C1931.25,400.0156 1931.5156,399.875 1931.6875,399.6563 C1931.7969,399.5 1931.8281,399.3125 1931.8281,398.8906 L1931.8281,397.4688 C1931.8281,397.0313 1931.8125,396.9063 1931.7188,396.75 C1931.5625,396.4844 1931.2813,396.3438 1930.9844,396.3438 C1930.6875,396.3438 1930.4844,396.4375 1930.2656,396.75 L1930.0938,396.6719 Z " fill="#000000"/><text fill="#000000" font-family="sans-serif" font-size="14" lengthAdjust="spacing" textLength="116" x="1948.25" y="405.8467">ClientController</text><line style="stroke:#181818;stroke-width:0.5;" x1="1860.5" x2="2119.5" y1="417" y2="417"/><rect fill="none" height="6" style="stroke:#C82930;stroke-width:1.0;" width="6" x="1867.5" y="427.6484"/><text fill="#000000" font-family="sans-serif" font-size="14" lengthAdjust="spacing" textLength="79" x="1879.5" y="433.9951">view : View</text><line style="stroke:#181818;stroke-width:0.5;" x1="1860.5" x2="2119.5" y1="441.2969" y2="441.2969"/><ellipse cx="1870.5" cy="454.9453" fill="#84BE84" rx="3" ry="3" style="stroke:#038048;stroke-width:1.0;"/><text fill="#000000" font-family="sans-serif" font-size="14" lengthAdjust="spacing" textLength="235" x="1879.5" y="458.292">showAllowedConnections() : void</text><ellipse cx="1870.5" cy="471.2422" fill="#84BE84" rx="3" ry="3" style="stroke:#038048;stroke-width:1.0;"/><text fill="#000000" font-family="sans-serif" font-size="14" lengthAdjust="spacing" textLength="102" x="1879.5" y="474.5889">isLegal() : void</text><ellipse cx="1870.5" cy="487.5391" fill="#84BE84" rx="3" ry="3" style="stroke:#038048;stroke-width:1.0;"/><text fill="#000000" font-family="sans-serif" font-size="14" lengthAdjust="spacing" textLength="116" x="1879.5" y="490.8857">isMyTurn() : void</text><ellipse cx="1870.5" cy="503.8359" fill="#84BE84" rx="3" ry="3" style="stroke:#038048;stroke-width:1.0;"/><text fill="#000000" font-family="sans-serif" font-size="14" lengthAdjust="spacing" textLength="88" x="1879.5" y="507.1826">deny() : void</text><ellipse cx="1870.5" cy="520.1328" fill="#84BE84" rx="3" ry="3" style="stroke:#038048;stroke-width:1.0;"/><text fill="#000000" font-family="sans-serif" font-size="14" lengthAdjust="spacing" textLength="96" x="1879.5" y="523.4795">notify() : void</text></g><!--class PlayerController--><g id="elem_PlayerController"><rect codeLine="148" fill="#F1F1F1" height="129.4844" id="PlayerController" rx="2.5" ry="2.5" style="stroke:#181818;stroke-width:0.5;" width="172" x="1652" y="393.5"/><ellipse cx="1677.35" cy="409.5" fill="#ADD1B2" rx="11" ry="11" style="stroke:#181818;stroke-width:1.0;"/><path d="M1679.6938,405.1719 C1678.7563,404.7344 1678.1625,404.5938 1677.2875,404.5938 C1674.6625,404.5938 1672.6625,406.6719 1672.6625,409.3906 L1672.6625,410.5156 C1672.6625,413.0938 1674.7719,414.9844 1677.6625,414.9844 C1678.8813,414.9844 1680.0375,414.6875 1680.7875,414.1406 C1681.3656,413.7344 1681.6938,413.2813 1681.6938,412.8906 C1681.6938,412.4375 1681.3031,412.0469 1680.8344,412.0469 C1680.6156,412.0469 1680.4125,412.125 1680.225,412.3125 C1679.7719,412.7969 1679.7719,412.7969 1679.5844,412.8906 C1679.1625,413.1563 1678.475,413.2813 1677.7094,413.2813 C1675.6625,413.2813 1674.3656,412.1875 1674.3656,410.4844 L1674.3656,409.3906 C1674.3656,407.6094 1675.6156,406.2969 1677.35,406.2969 C1677.9281,406.2969 1678.5375,406.4531 1679.0063,406.7031 C1679.4906,406.9844 1679.6625,407.2031 1679.7563,407.6094 C1679.8188,408.0156 1679.85,408.1406 1679.9906,408.2656 C1680.1313,408.4063 1680.3656,408.5156 1680.5844,408.5156 C1680.85,408.5156 1681.1156,408.375 1681.2875,408.1563 C1681.3969,408 1681.4281,407.8125 1681.4281,407.3906 L1681.4281,405.9688 C1681.4281,405.5313 1681.4125,405.4063 1681.3188,405.25 C1681.1625,404.9844 1680.8813,404.8438 1680.5844,404.8438 C1680.2875,404.8438 1680.0844,404.9375 1679.8656,405.25 L1679.6938,405.1719 Z " fill="#000000"/><text fill="#000000" font-family="sans-serif" font-size="14" lengthAdjust="spacing" textLength="117" x="1693.65" y="414.3467">PlayerController</text><line style="stroke:#181818;stroke-width:0.5;" x1="1653" x2="1823" y1="425.5" y2="425.5"/><rect fill="none" height="6" style="stroke:#C82930;stroke-width:1.0;" width="6" x="1660" y="436.1484"/><text fill="#000000" font-family="sans-serif" font-size="14" lengthAdjust="spacing" textLength="95" x="1672" y="442.4951">game : Game</text><line style="stroke:#181818;stroke-width:0.5;" x1="1653" x2="1823" y1="449.7969" y2="449.7969"/><ellipse cx="1663" cy="463.4453" fill="#84BE84" rx="3" ry="3" style="stroke:#038048;stroke-width:1.0;"/><text fill="#000000" font-family="sans-serif" font-size="14" lengthAdjust="spacing" textLength="144" x="1672" y="466.792">createPlayer() : void</text><ellipse cx="1663" cy="479.7422" fill="#84BE84" rx="3" ry="3" style="stroke:#038048;stroke-width:1.0;"/><text fill="#000000" font-family="sans-serif" font-size="14" lengthAdjust="spacing" textLength="122" x="1672" y="483.0889">setColour() : void</text><ellipse cx="1663" cy="496.0391" fill="#84BE84" rx="3" ry="3" style="stroke:#038048;stroke-width:1.0;"/><text fill="#000000" font-family="sans-serif" font-size="14" lengthAdjust="spacing" textLength="146" x="1672" y="499.3857">serNickname() : void</text><ellipse cx="1663" cy="512.3359" fill="#84BE84" rx="3" ry="3" style="stroke:#038048;stroke-width:1.0;"/><text fill="#000000" font-family="sans-serif" font-size="14" lengthAdjust="spacing" textLength="121" x="1672" y="515.6826">joinGame() : void</text></g><!--class GameController--><g id="elem_GameController"><rect codeLine="156" fill="#F1F1F1" height="162.0781" id="GameController" rx="2.5" ry="2.5" style="stroke:#181818;stroke-width:0.5;" width="188" x="1429" y="377"/><ellipse cx="1462.45" cy="393" fill="#ADD1B2" rx="11" ry="11" style="stroke:#181818;stroke-width:1.0;"/><path d="M1464.7938,388.6719 C1463.8563,388.2344 1463.2625,388.0938 1462.3875,388.0938 C1459.7625,388.0938 1457.7625,390.1719 1457.7625,392.8906 L1457.7625,394.0156 C1457.7625,396.5938 1459.8719,398.4844 1462.7625,398.4844 C1463.9813,398.4844 1465.1375,398.1875 1465.8875,397.6406 C1466.4656,397.2344 1466.7938,396.7813 1466.7938,396.3906 C1466.7938,395.9375 1466.4031,395.5469 1465.9344,395.5469 C1465.7156,395.5469 1465.5125,395.625 1465.325,395.8125 C1464.8719,396.2969 1464.8719,396.2969 1464.6844,396.3906 C1464.2625,396.6563 1463.575,396.7813 1462.8094,396.7813 C1460.7625,396.7813 1459.4656,395.6875 1459.4656,393.9844 L1459.4656,392.8906 C1459.4656,391.1094 1460.7156,389.7969 1462.45,389.7969 C1463.0281,389.7969 1463.6375,389.9531 1464.1063,390.2031 C1464.5906,390.4844 1464.7625,390.7031 1464.8563,391.1094 C1464.9188,391.5156 1464.95,391.6406 1465.0906,391.7656 C1465.2313,391.9063 1465.4656,392.0156 1465.6844,392.0156 C1465.95,392.0156 1466.2156,391.875 1466.3875,391.6563 C1466.4969,391.5 1466.5281,391.3125 1466.5281,390.8906 L1466.5281,389.4688 C1466.5281,389.0313 1466.5125,388.9063 1466.4188,388.75 C1466.2625,388.4844 1465.9813,388.3438 1465.6844,388.3438 C1465.3875,388.3438 1465.1844,388.4375 1464.9656,388.75 L1464.7938,388.6719 Z " fill="#000000"/><text fill="#000000" font-family="sans-serif" font-size="14" lengthAdjust="spacing" textLength="115" x="1480.55" y="397.8467">GameController</text><line style="stroke:#181818;stroke-width:0.5;" x1="1430" x2="1616" y1="409" y2="409"/><rect fill="none" height="6" style="stroke:#C82930;stroke-width:1.0;" width="6" x="1437" y="419.6484"/><text fill="#000000" font-family="sans-serif" font-size="14" lengthAdjust="spacing" textLength="95" x="1449" y="425.9951">game : Game</text><line style="stroke:#181818;stroke-width:0.5;" x1="1430" x2="1616" y1="433.2969" y2="433.2969"/><ellipse cx="1440" cy="446.9453" fill="#84BE84" rx="3" ry="3" style="stroke:#038048;stroke-width:1.0;"/><text fill="#000000" font-family="sans-serif" font-size="14" lengthAdjust="spacing" textLength="120" x="1449" y="450.292">drawCard() : void</text><ellipse cx="1440" cy="463.2422" fill="#84BE84" rx="3" ry="3" style="stroke:#038048;stroke-width:1.0;"/><text fill="#000000" font-family="sans-serif" font-size="14" lengthAdjust="spacing" textLength="123" x="1449" y="466.5889">getPoints() : void</text><ellipse cx="1440" cy="479.5391" fill="#84BE84" rx="3" ry="3" style="stroke:#038048;stroke-width:1.0;"/><text fill="#000000" font-family="sans-serif" font-size="14" lengthAdjust="spacing" textLength="116" x="1449" y="482.8857">playCard() : void</text><ellipse cx="1440" cy="495.8359" fill="#84BE84" rx="3" ry="3" style="stroke:#038048;stroke-width:1.0;"/><text fill="#000000" font-family="sans-serif" font-size="14" lengthAdjust="spacing" textLength="162" x="1449" y="499.1826">choosePosition() : void</text><ellipse cx="1440" cy="512.1328" fill="#84BE84" rx="3" ry="3" style="stroke:#038048;stroke-width:1.0;"/><text fill="#000000" font-family="sans-serif" font-size="14" lengthAdjust="spacing" textLength="135" x="1449" y="515.4795">chooseSide() : void</text><ellipse cx="1440" cy="528.4297" fill="#84BE84" rx="3" ry="3" style="stroke:#038048;stroke-width:1.0;"/><text fill="#000000" font-family="sans-serif" font-size="14" lengthAdjust="spacing" textLength="137" x="1449" y="531.7764">chooseCard() : void</text></g><!--class GameHandler--><g id="elem_GameHandler"><rect codeLine="166" fill="#F1F1F1" height="113.1875" id="GameHandler" rx="2.5" ry="2.5" style="stroke:#181818;stroke-width:0.5;" width="163" x="1230.5" y="401.5"/><ellipse cx="1260.8" cy="417.5" fill="#ADD1B2" rx="11" ry="11" style="stroke:#181818;stroke-width:1.0;"/><path d="M1263.1438,413.1719 C1262.2063,412.7344 1261.6125,412.5938 1260.7375,412.5938 C1258.1125,412.5938 1256.1125,414.6719 1256.1125,417.3906 L1256.1125,418.5156 C1256.1125,421.0938 1258.2219,422.9844 1261.1125,422.9844 C1262.3313,422.9844 1263.4875,422.6875 1264.2375,422.1406 C1264.8156,421.7344 1265.1438,421.2813 1265.1438,420.8906 C1265.1438,420.4375 1264.7531,420.0469 1264.2844,420.0469 C1264.0656,420.0469 1263.8625,420.125 1263.675,420.3125 C1263.2219,420.7969 1263.2219,420.7969 1263.0344,420.8906 C1262.6125,421.1563 1261.925,421.2813 1261.1594,421.2813 C1259.1125,421.2813 1257.8156,420.1875 1257.8156,418.4844 L1257.8156,417.3906 C1257.8156,415.6094 1259.0656,414.2969 1260.8,414.2969 C1261.3781,414.2969 1261.9875,414.4531 1262.4563,414.7031 C1262.9406,414.9844 1263.1125,415.2031 1263.2063,415.6094 C1263.2688,416.0156 1263.3,416.1406 1263.4406,416.2656 C1263.5813,416.4063 1263.8156,416.5156 1264.0344,416.5156 C1264.3,416.5156 1264.5656,416.375 1264.7375,416.1563 C1264.8469,416 1264.8781,415.8125 1264.8781,415.3906 L1264.8781,413.9688 C1264.8781,413.5313 1264.8625,413.4063 1264.7688,413.25 C1264.6125,412.9844 1264.3313,412.8438 1264.0344,412.8438 C1263.7375,412.8438 1263.5344,412.9375 1263.3156,413.25 L1263.1438,413.1719 Z " fill="#000000"/><text fill="#000000" font-family="sans-serif" font-size="14" lengthAdjust="spacing" textLength="97" x="1278.2" y="422.3467">GameHandler</text><line style="stroke:#181818;stroke-width:0.5;" x1="1231.5" x2="1392.5" y1="433.5" y2="433.5"/><rect fill="none" height="6" style="stroke:#C82930;stroke-width:1.0;" width="6" x="1238.5" y="444.1484"/><text fill="#000000" font-family="sans-serif" font-size="14" lengthAdjust="spacing" textLength="95" x="1250.5" y="450.4951">game : Game</text><line style="stroke:#181818;stroke-width:0.5;" x1="1231.5" x2="1392.5" y1="457.7969" y2="457.7969"/><ellipse cx="1241.5" cy="471.4453" fill="#84BE84" rx="3" ry="3" style="stroke:#038048;stroke-width:1.0;"/><text fill="#000000" font-family="sans-serif" font-size="14" lengthAdjust="spacing" textLength="127" x="1250.5" y="474.792">getGames() : void</text><ellipse cx="1241.5" cy="487.7422" fill="#84BE84" rx="3" ry="3" style="stroke:#038048;stroke-width:1.0;"/><text fill="#000000" font-family="sans-serif" font-size="14" lengthAdjust="spacing" textLength="137" x="1250.5" y="491.0889">startGames() : void</text><ellipse cx="1241.5" cy="504.0391" fill="#84BE84" rx="3" ry="3" style="stroke:#038048;stroke-width:1.0;"/><text fill="#000000" font-family="sans-serif" font-size="14" lengthAdjust="spacing" textLength="122" x="1250.5" y="507.3857">endGame() : void</text></g><!--class InitialGameController--><g id="elem_InitialGameController"><rect codeLine="173" fill="#F1F1F1" height="145.7813" id="InitialGameController" rx="2.5" ry="2.5" style="stroke:#181818;stroke-width:0.5;" width="281" x="914.5" y="385"/><ellipse cx="973.25" cy="401" fill="#ADD1B2" rx="11" ry="11" style="stroke:#181818;stroke-width:1.0;"/><path d="M975.5938,396.6719 C974.6563,396.2344 974.0625,396.0938 973.1875,396.0938 C970.5625,396.0938 968.5625,398.1719 968.5625,400.8906 L968.5625,402.0156 C968.5625,404.5938 970.6719,406.4844 973.5625,406.4844 C974.7813,406.4844 975.9375,406.1875 976.6875,405.6406 C977.2656,405.2344 977.5938,404.7813 977.5938,404.3906 C977.5938,403.9375 977.2031,403.5469 976.7344,403.5469 C976.5156,403.5469 976.3125,403.625 976.125,403.8125 C975.6719,404.2969 975.6719,404.2969 975.4844,404.3906 C975.0625,404.6563 974.375,404.7813 973.6094,404.7813 C971.5625,404.7813 970.2656,403.6875 970.2656,401.9844 L970.2656,400.8906 C970.2656,399.1094 971.5156,397.7969 973.25,397.7969 C973.8281,397.7969 974.4375,397.9531 974.9063,398.2031 C975.3906,398.4844 975.5625,398.7031 975.6563,399.1094 C975.7188,399.5156 975.75,399.6406 975.8906,399.7656 C976.0313,399.9063 976.2656,400.0156 976.4844,400.0156 C976.75,400.0156 977.0156,399.875 977.1875,399.6563 C977.2969,399.5 977.3281,399.3125 977.3281,398.8906 L977.3281,397.4688 C977.3281,397.0313 977.3125,396.9063 977.2188,396.75 C977.0625,396.4844 976.7813,396.3438 976.4844,396.3438 C976.1875,396.3438 975.9844,396.4375 975.7656,396.75 L975.5938,396.6719 Z " fill="#000000"/><text fill="#000000" font-family="sans-serif" font-size="14" lengthAdjust="spacing" textLength="155" x="993.75" y="405.8467">InitialGameController</text><line style="stroke:#181818;stroke-width:0.5;" x1="915.5" x2="1194.5" y1="417" y2="417"/><rect fill="none" height="6" style="stroke:#C82930;stroke-width:1.0;" width="6" x="922.5" y="427.6484"/><text fill="#000000" font-family="sans-serif" font-size="14" lengthAdjust="spacing" textLength="95" x="934.5" y="433.9951">game : Game</text><line style="stroke:#181818;stroke-width:0.5;" x1="915.5" x2="1194.5" y1="441.2969" y2="441.2969"/><ellipse cx="925.5" cy="454.9453" fill="#84BE84" rx="3" ry="3" style="stroke:#038048;stroke-width:1.0;"/><text fill="#000000" font-family="sans-serif" font-size="14" lengthAdjust="spacing" textLength="165" x="934.5" y="458.292">selectStartSide() : void</text><ellipse cx="925.5" cy="471.2422" fill="#84BE84" rx="3" ry="3" style="stroke:#038048;stroke-width:1.0;"/><text fill="#000000" font-family="sans-serif" font-size="14" lengthAdjust="spacing" textLength="143" x="934.5" y="474.5889">selectColour() : void</text><ellipse cx="925.5" cy="487.5391" fill="#84BE84" rx="3" ry="3" style="stroke:#038048;stroke-width:1.0;"/><text fill="#000000" font-family="sans-serif" font-size="14" lengthAdjust="spacing" textLength="222" x="934.5" y="490.8857">drawCommonObjective() : void</text><ellipse cx="925.5" cy="503.8359" fill="#84BE84" rx="3" ry="3" style="stroke:#038048;stroke-width:1.0;"/><text fill="#000000" font-family="sans-serif" font-size="14" lengthAdjust="spacing" textLength="255" x="934.5" y="507.1826">chooseSecretObjectiveCard() : void</text><ellipse cx="925.5" cy="520.1328" fill="#84BE84" rx="3" ry="3" style="stroke:#038048;stroke-width:1.0;"/><text fill="#000000" font-family="sans-serif" font-size="14" lengthAdjust="spacing" textLength="159" x="934.5" y="523.4795">PickFirstPlayer() : void</text></g><path d="M8.5,152.5 L47.5,152.5 A3.75,3.75 0 0 1 50,155 L57,174.7969 L61.5,174.7969 A2.5,2.5 0 0 1 64,177.2969 L64,202.5938 A2.5,2.5 0 0 1 61.5,205.0938 L8.5,205.0938 A2.5,2.5 0 0 1 6,202.5938 L6,155 A2.5,2.5 0 0 1 8.5,152.5 " fill="#F1F1F1" style="stroke:#181818;stroke-width:0.5;"/><line style="stroke:#181818;stroke-width:0.5;" x1="6" x2="57" y1="174.7969" y2="174.7969"/><text fill="#000000" font-family="sans-serif" font-size="14" font-weight="bold" lengthAdjust="spacing" textLength="38" x="10" y="167.4951">View</text><!--class Observer--><g id="elem_Observer"><rect codeLine="191" fill="#F1F1F1" height="56.2969" id="Observer" rx="2.5" ry="2.5" style="stroke:#181818;stroke-width:0.5;" width="131" x="1569.5" y="151"/><ellipse cx="1599.8" cy="167" fill="#B4A7E5" rx="11" ry="11" style="stroke:#181818;stroke-width:1.0;"/><path d="M1600.7531,163.7813 L1602.4719,163.7813 C1602.8625,163.7813 1603.05,163.75 1603.175,163.6719 C1603.4406,163.5156 1603.5813,163.2344 1603.5813,162.9375 C1603.5813,162.6719 1603.4719,162.4063 1603.2375,162.2344 C1603.0656,162.125 1602.925,162.0938 1602.4719,162.0938 L1597.3313,162.0938 C1596.8938,162.0938 1596.7688,162.1094 1596.6125,162.2031 C1596.3625,162.3594 1596.2063,162.6563 1596.2063,162.9375 C1596.2063,163.2188 1596.3469,163.4688 1596.5656,163.6406 C1596.7219,163.75 1596.9094,163.7813 1597.3313,163.7813 L1599.05,163.7813 L1599.05,170.2969 L1597.3313,170.2969 C1596.8938,170.2969 1596.7688,170.3125 1596.6125,170.4219 C1596.3625,170.5781 1596.2063,170.8594 1596.2063,171.1563 C1596.2063,171.4063 1596.3469,171.6719 1596.5656,171.8281 C1596.7219,171.9531 1596.925,172 1597.3313,172 L1602.4719,172 C1603.2219,172 1603.5813,171.7188 1603.5813,171.1563 C1603.5813,170.875 1603.4719,170.625 1603.2375,170.4531 C1603.0656,170.3281 1602.925,170.2969 1602.4719,170.2969 L1600.7531,170.2969 L1600.7531,163.7813 Z " fill="#000000"/><text fill="#000000" font-family="sans-serif" font-size="14" font-style="italic" lengthAdjust="spacing" textLength="65" x="1617.2" y="171.8467">Observer</text><line style="stroke:#181818;stroke-width:0.5;" x1="1570.5" x2="1699.5" y1="183" y2="183"/><ellipse cx="1580.5" cy="196.6484" fill="#84BE84" rx="3" ry="3" style="stroke:#038048;stroke-width:1.0;"/><text fill="#000000" font-family="sans-serif" font-size="14" lengthAdjust="spacing" textLength="105" x="1589.5" y="199.9951">Update() : void</text></g><!--class Observable--><g id="elem_Observable"><rect codeLine="195" fill="#F1F1F1" height="88.8906" id="Observable" rx="2.5" ry="2.5" style="stroke:#181818;stroke-width:0.5;" width="200" x="1334" y="134.5"/><ellipse cx="1388.75" cy="150.5" fill="#ADD1B2" rx="11" ry="11" style="stroke:#181818;stroke-width:1.0;"/><path d="M1391.0938,146.1719 C1390.1563,145.7344 1389.5625,145.5938 1388.6875,145.5938 C1386.0625,145.5938 1384.0625,147.6719 1384.0625,150.3906 L1384.0625,151.5156 C1384.0625,154.0938 1386.1719,155.9844 1389.0625,155.9844 C1390.2813,155.9844 1391.4375,155.6875 1392.1875,155.1406 C1392.7656,154.7344 1393.0938,154.2813 1393.0938,153.8906 C1393.0938,153.4375 1392.7031,153.0469 1392.2344,153.0469 C1392.0156,153.0469 1391.8125,153.125 1391.625,153.3125 C1391.1719,153.7969 1391.1719,153.7969 1390.9844,153.8906 C1390.5625,154.1563 1389.875,154.2813 1389.1094,154.2813 C1387.0625,154.2813 1385.7656,153.1875 1385.7656,151.4844 L1385.7656,150.3906 C1385.7656,148.6094 1387.0156,147.2969 1388.75,147.2969 C1389.3281,147.2969 1389.9375,147.4531 1390.4063,147.7031 C1390.8906,147.9844 1391.0625,148.2031 1391.1563,148.6094 C1391.2188,149.0156 1391.25,149.1406 1391.3906,149.2656 C1391.5313,149.4063 1391.7656,149.5156 1391.9844,149.5156 C1392.25,149.5156 1392.5156,149.375 1392.6875,149.1563 C1392.7969,149 1392.8281,148.8125 1392.8281,148.3906 L1392.8281,146.9688 C1392.8281,146.5313 1392.8125,146.4063 1392.7188,146.25 C1392.5625,145.9844 1392.2813,145.8438 1391.9844,145.8438 C1391.6875,145.8438 1391.4844,145.9375 1391.2656,146.25 L1391.0938,146.1719 Z " fill="#000000"/><text fill="#000000" font-family="sans-serif" font-size="14" lengthAdjust="spacing" textLength="82" x="1409.25" y="155.3467">Observable</text><line style="stroke:#181818;stroke-width:0.5;" x1="1335" x2="1533" y1="166.5" y2="166.5"/><ellipse cx="1345" cy="180.1484" fill="#84BE84" rx="3" ry="3" style="stroke:#038048;stroke-width:1.0;"/><text fill="#000000" font-family="sans-serif" font-size="14" lengthAdjust="spacing" textLength="143" x="1354" y="183.4951">AddObserver(): void</text><ellipse cx="1345" cy="196.4453" fill="#84BE84" rx="3" ry="3" style="stroke:#038048;stroke-width:1.0;"/><text fill="#000000" font-family="sans-serif" font-size="14" lengthAdjust="spacing" textLength="174" x="1354" y="199.792">RemoveObserver(): void</text><ellipse cx="1345" cy="212.7422" fill="#84BE84" rx="3" ry="3" style="stroke:#038048;stroke-width:1.0;"/><text fill="#000000" font-family="sans-serif" font-size="14" lengthAdjust="spacing" textLength="93" x="1354" y="216.0889">Notify(): void</text></g><!--reverse link Card to ObjectiveCard--><g id="link_Card_ObjectiveCard"><path d="M347.3911,965.6787 C326.7631,1001.5567 313.779,1024.14 301.006,1046.357 " fill="none" id="Card-backto-ObjectiveCard" style="stroke:#181818;stroke-width:1.0;"/><polygon fill="none" points="356.363,950.074,342.1896,962.688,352.5927,968.6693,356.363,950.074" style="stroke:#181818;stroke-width:1.0;"/></g><!--reverse link Card to AngledCard--><g id="link_Card_AngledCard"><path d="M467.0988,965.6458 C478.8708,985.9488 482.044,991.418 492.753,1009.887 " fill="none" id="Card-backto-AngledCard" style="stroke:#181818;stroke-width:1.0;"/><polygon fill="none" points="458.07,950.074,461.9082,968.6554,472.2894,962.6362,458.07,950.074" style="stroke:#181818;stroke-width:1.0;"/></g><!--reverse link AngledCard to GoldCard--><g id="link_AngledCard_GoldCard"><path d="M406.3591,1131.5744 C369.6871,1151.3794 344.987,1164.72 311.298,1182.914 " fill="none" id="AngledCard-backto-GoldCard" style="stroke:#181818;stroke-width:1.0;"/><polygon fill="none" points="422.197,1123.021,403.508,1126.2951,409.2102,1136.8537,422.197,1123.021" style="stroke:#181818;stroke-width:1.0;"/></g><!--reverse link AngledCard to InitialCard--><g id="link_AngledCard_InitialCard"><path d="M525,1141.021 C525,1160.826 525,1164.72 525,1182.914 " fill="none" id="AngledCard-backto-InitialCard" style="stroke:#181818;stroke-width:1.0;"/><polygon fill="none" points="525,1123.021,519,1141.021,531,1141.021,525,1123.021" style="stroke:#181818;stroke-width:1.0;"/></g><!--reverse link AngledCard to ResourceCard--><g id="link_AngledCard_ResourceCard"><path d="M625.7113,1132.815 C669.1093,1160.959 703.905,1183.526 734.698,1203.4964 " fill="none" id="AngledCard-backto-ResourceCard" style="stroke:#181818;stroke-width:1.0;"/><polygon fill="none" points="610.609,1123.021,622.4466,1137.849,628.9759,1127.7809,610.609,1123.021" style="stroke:#181818;stroke-width:1.0;"/></g><!--link Game to InitialGameController--><g id="link_Game_InitialGameController"><path codeLine="203" d="M857.676,291.87 C895.176,323.25 934.94,356.527 968.872,384.923 " fill="none" id="Game-InitialGameController" style="stroke:#181818;stroke-width:1.0;"/></g><!--link Game to GameController--><g id="link_Game_GameController"><path codeLine="204" d="M857.79,212.71 C977.928,241.63 1159.3,284.21 1318,317 C1359.15,325.502 1374.26,313.617 1411,334 C1430.57,344.858 1448.56,360.414 1464.13,376.83 " fill="none" id="Game-GameController" style="stroke:#181818;stroke-width:1.0;"/></g><!--link Game to GameHandler--><g id="link_Game_GameHandler"><path codeLine="205" d="M857.556,200.22 C961.476,220.87 1105.59,260.66 1213,334 C1238.69,351.544 1261.07,377.709 1278.01,401.403 " fill="none" id="Game-GameHandler" style="stroke:#181818;stroke-width:1.0;"/></g><!--link Game to PlayerController--><g id="link_Game_PlayerController"><path codeLine="206" d="M857.522,217.78 C977.102,249.94 1157.79,294.4 1318,317 C1387.85,326.853 1571.9,302.453 1635,334 C1661.41,347.203 1683.61,370.56 1700.55,393.399 " fill="none" id="Game-PlayerController" style="stroke:#181818;stroke-width:1.0;"/></g><!--link Game to Player--><g id="link_Game_Player"><path codeLine="207" d="M590.424,264.4 C559.191,285.92 526.687,309.835 498,334 C473.685,354.482 448.906,379.33 428.3,401.316 " fill="none" id="Game-Player" style="stroke:#181818;stroke-width:1.0;"/><text fill="#000000" font-family="sans-serif" font-size="13" lengthAdjust="spacing" textLength="8" x="574.4704" y="265.9698">1</text><text fill="#000000" font-family="sans-serif" font-size="13" lengthAdjust="spacing" textLength="28" x="404.6022" y="390.5571">1...4</text></g><!--link Game to Board--><g id="link_Game_Board"><path codeLine="208" d="M682.865,317.283 C671.329,355.783 659.755,394.408 651.71,421.258 " fill="none" id="Game-Board" style="stroke:#181818;stroke-width:1.0;"/></g><!--link Game to Deck--><g id="link_Game_Deck"><path codeLine="209" d="M780.363,317.376 C781.742,322.946 782.967,328.501 784,334 C802.798,434.027 802.01,462.828 784,563 C780.851,580.513 774.566,599.053 768.246,614.831 " fill="none" id="Game-Deck" style="stroke:#181818;stroke-width:1.0;"/></g><!--link Deck to Card--><g id="link_Deck_Card"><path codeLine="210" d="M683.052,696.22 C631.095,727.046 558.436,770.154 500.702,804.407 " fill="none" id="Deck-Card" style="stroke:#181818;stroke-width:1.0;"/></g><!--link Player to Structure--><g id="link_Player_Structure"><path codeLine="211" d="M336.502,514.761 C315.428,542.412 290.136,575.597 269.488,602.688 " fill="none" id="Player-Structure" style="stroke:#181818;stroke-width:1.0;"/></g><!--link Player to Hand--><g id="link_Player_Hand"><path codeLine="212" d="M414.367,514.761 C431.047,541.057 450.901,572.359 467.586,598.665 " fill="none" id="Player-Hand" style="stroke:#181818;stroke-width:1.0;"/></g><!--link Structure to Card--><g id="link_Structure_Card"><path codeLine="213" d="M274.893,708.115 C291.69,727.426 311.28,749.949 330.152,771.646 " fill="none" id="Structure-Card" style="stroke:#181818;stroke-width:1.0;"/></g><!--SRC=[nLTjJniv4FwUNs7nPQaeEL7Q-n2TBWeXXEW2GGdjwLHnajbrWejZhsnlQ43yzvlnldfVk5OwwH0IU6OydddcTHzun0ZRndPFrfo9oFHwmUtYV34WGIyuwPE9JBPCqsUk92E6R- -Lu8IHK0cbESfyw9ErPc78ICI1l8sLuQbqp3GnLYVM9fgIOn9IRHbUEUsJBRCAvATqwoWV-yI2d085qceb15m5ygS-QcI4IyCqr-mz70qjZku5GScEioSK_xLViYIpJqe_3e7UYsduI3UCR5N417dfzGZyX88QanhmuWZuSqp0tHj1zqoR0IYpDGvum4CUKsbhxE2O35UMHbnDkGfLvLgOQCsaJPKEo7WnNomdvRtXcQ8wGhy1FyIDQgvIUC6_H5gssV1INn0-iF2Hc4I8W1jBvJCbL6kwhxwejbib5_VVM6ZvZgMMVlrmLn691GrPD8QN2ouAbCzCcOIeYw12cabkEP9ooX69D7rQCgCI7JAdxF0T6P2Tub5DQAg4UwsBlsAXPhOmkIaME9YgRs-OlL5WkZdCCCr0mwlLo1oHTG89o59XSbZd1oj8qH0bgjfT7jakarqGRgYrJCl3Tqqs5M4Yg6NZDFOvHEOjsSoPN285_hMQgsaA-TdAmqS9AJmWu0MN6oyB00qlwte-UjVPNNooTjlnnwK254bLD8nAq_VbFmwCzyJOVo78YaDWcKHypSC7JhTGy5WIqP0ev1WgTa1Le94a4be4rSCAEDnbOxt2GHsxqD211X1Xgh_UrNXdq4VQMA0gTIAjfRiQqBCizUlkEuop5v5RKrm8uBET_EBjJ7ycu05Or9L3adstJ4PDM2sF5OaGHNNFcGLvruu9WyQ7g6PWKwk6PQK44YGm09eRc0ugxTU0Y2iE_lnCCLAbng1ftKXkHDgBkanB8HuhBVEsdFMhmeg8XJ37uAaTTRa1eoLYQve8wsP4wAuIj3NMp419kb7YY3d1SKCSFHjmyJsPHRzW-uN_jND8MnhKB5hjSHo2HQlPrHcaUhsB5X7AJCz3v1jVI6NgN3rw2XkGvUsq0Ao2OHKsdJUUKkEdkrh4_oOH1MzYNcs0GIs2Jh8IHDzuhx_L7lBipaR8ZvWUOapqikd0QTs1YlarJ7qLLUDEMuoh3h9MwppfOcfulUz_7niDhyvnNNXfsH_Ic4OSHW0FeM52fiFVQefl8Clm-e3COTNu3RtwlIMvMaKy6owfz8Dh_77VwCEuIk2bj5nEwoNLs1RQEckk8oywF-JOrFBnL5hsrsG-N_nP7C_cdyjDRRgSJAwBqt9otb2N9jUiek_BP3gv7PtDIosZwzdLQ5uSPzUhoVYsEAukbul5LN6yc8nkBoVBYlGVfUXukPZFCnjUonstia1xY-vOS4YfSPLR0kuMw07v0dygA9e7zJGIGZr10IWf4MmbMrSyRkRGDKKxwsf_cs2-jsn-JExRw59PlgvnMZQX3cSskD8Ft6PVBHZDi5goTQRvfaaNdgI3gSjjgSd-1ZKuRV1UwzyPFsKlRiLTVQJSi5gOiDhlknkGKWPQXk4Oocw95GpJRcvJUyDLBBmVynDyGKghAz2JT3SN-lE_W9wDcv_6tZ01oRx2rxkGI4MwCyQ5p_yEUmDklvzrHUy6Kl22QsFRijWrWQ8BO2LZ_IFn9gEfE3PvJvZXP5p3Do3iXf3SEm-M8_8vZg1OMf4TPnibtgBtmXz_eoZAzRNCh2NRgXrxG-0wgtl_LVXrN-d7n-q1BRXlaBDyB6Zr1f8o3auEa7bmqk_tFnvaGiKTzwLJd73gzTnmXGD6h9Tzdi6ns0qgDBIWLouDsQL_0000]--></g></svg>