<?xml version="1.0" encoding="us-ascii" standalone="no"?><svg xmlns="http://www.w3.org/2000/svg" xmlns:xlink="http://www.w3.org/1999/xlink" contentStyleType="text/css" height="1206px" preserveAspectRatio="none" style="width:2088px;height:1206px;background:#FFFFFF;" version="1.1" viewBox="0 0 2088 1206" width="2088px" zoomAndPan="magnify"><defs/><g><!--cluster model--><g id="cluster_model"><path d="M82.5,6 L132.5,6 A3.75,3.75 0 0 1 135,8.5 L142,28.2969 L815.5,28.2969 A2.5,2.5 0 0 1 818,30.7969 L818,1196.5 A2.5,2.5 0 0 1 815.5,1199 L82.5,1199 A2.5,2.5 0 0 1 80,1196.5 L80,8.5 A2.5,2.5 0 0 1 82.5,6 " fill="none" style="stroke:#000000;stroke-width:1.5;"/><line style="stroke:#000000;stroke-width:1.5;" x1="80" x2="142" y1="28.2969" y2="28.2969"/><text fill="#000000" font-family="sans-serif" font-size="14" font-weight="bold" lengthAdjust="spacing" textLength="49" x="84" y="20.9951">model</text></g><!--cluster controller--><g id="cluster_controller"><path d="M844.5,261 L925.5,261 A3.75,3.75 0 0 1 928,263.5 L935,283.2969 L2078.5,283.2969 A2.5,2.5 0 0 1 2081,285.7969 L2081,471.5 A2.5,2.5 0 0 1 2078.5,474 L844.5,474 A2.5,2.5 0 0 1 842,471.5 L842,263.5 A2.5,2.5 0 0 1 844.5,261 " fill="none" style="stroke:#000000;stroke-width:1.5;"/><line style="stroke:#000000;stroke-width:1.5;" x1="842" x2="935" y1="283.2969" y2="283.2969"/><text fill="#000000" font-family="sans-serif" font-size="14" font-weight="bold" lengthAdjust="spacing" textLength="80" x="846" y="275.9951">controller</text></g><!--class Game--><g id="elem_Game"><rect codeLine="13" fill="#F1F1F1" height="194.6719" id="Game" rx="2.5" ry="2.5" style="stroke:#181818;stroke-width:0.5;" width="231" x="570.5" y="41"/><ellipse cx="660.75" cy="57" fill="#ADD1B2" rx="11" ry="11" style="stroke:#181818;stroke-width:1.0;"/><path d="M663.0938,52.6719 C662.1563,52.2344 661.5625,52.0938 660.6875,52.0938 C658.0625,52.0938 656.0625,54.1719 656.0625,56.8906 L656.0625,58.0156 C656.0625,60.5938 658.1719,62.4844 661.0625,62.4844 C662.2813,62.4844 663.4375,62.1875 664.1875,61.6406 C664.7656,61.2344 665.0938,60.7813 665.0938,60.3906 C665.0938,59.9375 664.7031,59.5469 664.2344,59.5469 C664.0156,59.5469 663.8125,59.625 663.625,59.8125 C663.1719,60.2969 663.1719,60.2969 662.9844,60.3906 C662.5625,60.6563 661.875,60.7813 661.1094,60.7813 C659.0625,60.7813 657.7656,59.6875 657.7656,57.9844 L657.7656,56.8906 C657.7656,55.1094 659.0156,53.7969 660.75,53.7969 C661.3281,53.7969 661.9375,53.9531 662.4063,54.2031 C662.8906,54.4844 663.0625,54.7031 663.1563,55.1094 C663.2188,55.5156 663.25,55.6406 663.3906,55.7656 C663.5313,55.9063 663.7656,56.0156 663.9844,56.0156 C664.25,56.0156 664.5156,55.875 664.6875,55.6563 C664.7969,55.5 664.8281,55.3125 664.8281,54.8906 L664.8281,53.4688 C664.8281,53.0313 664.8125,52.9063 664.7188,52.75 C664.5625,52.4844 664.2813,52.3438 663.9844,52.3438 C663.6875,52.3438 663.4844,52.4375 663.2656,52.75 L663.0938,52.6719 Z " fill="#000000"/><text fill="#000000" font-family="sans-serif" font-size="14" lengthAdjust="spacing" textLength="42" x="681.25" y="61.8467">Game</text><line style="stroke:#181818;stroke-width:0.5;" x1="571.5" x2="800.5" y1="73" y2="73"/><rect fill="none" height="6" style="stroke:#C82930;stroke-width:1.0;" width="6" x="578.5" y="83.6484"/><text fill="#000000" font-family="sans-serif" font-size="14" lengthAdjust="spacing" textLength="111" x="590.5" y="89.9951">numPlayers: int</text><rect fill="none" height="6" style="stroke:#C82930;stroke-width:1.0;" width="6" x="578.5" y="99.9453"/><text fill="#000000" font-family="sans-serif" font-size="14" lengthAdjust="spacing" textLength="147" x="590.5" y="106.292">numParticipants: int</text><rect fill="none" height="6" style="stroke:#C82930;stroke-width:1.0;" width="6" x="578.5" y="116.2422"/><text fill="#000000" font-family="sans-serif" font-size="14" lengthAdjust="spacing" textLength="165" x="590.5" y="122.5889">currentPlayer: COLORE</text><rect fill="none" height="6" style="stroke:#C82930;stroke-width:1.0;" width="6" x="578.5" y="132.5391"/><text fill="#000000" font-family="sans-serif" font-size="14" lengthAdjust="spacing" textLength="187" x="590.5" y="138.8857">commonObjectives: int[2]</text><rect fill="none" height="6" style="stroke:#C82930;stroke-width:1.0;" width="6" x="578.5" y="148.8359"/><text fill="#000000" font-family="sans-serif" font-size="14" lengthAdjust="spacing" textLength="153" x="590.5" y="155.1826">placedCards: int[2][2]</text><line style="stroke:#181818;stroke-width:0.5;" x1="571.5" x2="800.5" y1="162.4844" y2="162.4844"/><ellipse cx="581.5" cy="176.1328" fill="#84BE84" rx="3" ry="3" style="stroke:#038048;stroke-width:1.0;"/><text fill="#000000" font-family="sans-serif" font-size="14" lengthAdjust="spacing" textLength="193" x="590.5" y="179.4795">drawResourceCards() : void</text><ellipse cx="581.5" cy="192.4297" fill="#84BE84" rx="3" ry="3" style="stroke:#038048;stroke-width:1.0;"/><text fill="#000000" font-family="sans-serif" font-size="14" lengthAdjust="spacing" textLength="153" x="590.5" y="195.7764">drawGoldCard() : void</text><ellipse cx="581.5" cy="208.7266" fill="#84BE84" rx="3" ry="3" style="stroke:#038048;stroke-width:1.0;"/><text fill="#000000" font-family="sans-serif" font-size="14" lengthAdjust="spacing" textLength="205" x="590.5" y="212.0732">drawSecretObjective() : void</text><ellipse cx="581.5" cy="225.0234" fill="#84BE84" rx="3" ry="3" style="stroke:#038048;stroke-width:1.0;"/><text fill="#000000" font-family="sans-serif" font-size="14" lengthAdjust="spacing" textLength="123" x="590.5" y="228.3701">getPoints() : void</text></g><!--class Player--><g id="elem_Player"><rect codeLine="32" fill="#F1F1F1" height="113.1875" id="Player" rx="2.5" ry="2.5" style="stroke:#181818;stroke-width:0.5;" width="202" x="345" y="320.5"/><ellipse cx="419.75" cy="336.5" fill="#ADD1B2" rx="11" ry="11" style="stroke:#181818;stroke-width:1.0;"/><path d="M422.0938,332.1719 C421.1563,331.7344 420.5625,331.5938 419.6875,331.5938 C417.0625,331.5938 415.0625,333.6719 415.0625,336.3906 L415.0625,337.5156 C415.0625,340.0938 417.1719,341.9844 420.0625,341.9844 C421.2813,341.9844 422.4375,341.6875 423.1875,341.1406 C423.7656,340.7344 424.0938,340.2813 424.0938,339.8906 C424.0938,339.4375 423.7031,339.0469 423.2344,339.0469 C423.0156,339.0469 422.8125,339.125 422.625,339.3125 C422.1719,339.7969 422.1719,339.7969 421.9844,339.8906 C421.5625,340.1563 420.875,340.2813 420.1094,340.2813 C418.0625,340.2813 416.7656,339.1875 416.7656,337.4844 L416.7656,336.3906 C416.7656,334.6094 418.0156,333.2969 419.75,333.2969 C420.3281,333.2969 420.9375,333.4531 421.4063,333.7031 C421.8906,333.9844 422.0625,334.2031 422.1563,334.6094 C422.2188,335.0156 422.25,335.1406 422.3906,335.2656 C422.5313,335.4063 422.7656,335.5156 422.9844,335.5156 C423.25,335.5156 423.5156,335.375 423.6875,335.1563 C423.7969,335 423.8281,334.8125 423.8281,334.3906 L423.8281,332.9688 C423.8281,332.5313 423.8125,332.4063 423.7188,332.25 C423.5625,331.9844 423.2813,331.8438 422.9844,331.8438 C422.6875,331.8438 422.4844,331.9375 422.2656,332.25 L422.0938,332.1719 Z " fill="#000000"/><text fill="#000000" font-family="sans-serif" font-size="14" lengthAdjust="spacing" textLength="44" x="440.25" y="341.3467">Player</text><line style="stroke:#181818;stroke-width:0.5;" x1="346" x2="546" y1="352.5" y2="352.5"/><rect fill="none" height="6" style="stroke:#C82930;stroke-width:1.0;" width="6" x="353" y="363.1484"/><text fill="#000000" font-family="sans-serif" font-size="14" lengthAdjust="spacing" textLength="123" x="365" y="369.4951">nickname: String</text><rect fill="none" height="6" style="stroke:#C82930;stroke-width:1.0;" width="6" x="353" y="379.4453"/><text fill="#000000" font-family="sans-serif" font-size="14" lengthAdjust="spacing" textLength="139" x="365" y="385.792">colorPlayer: COLOR</text><line style="stroke:#181818;stroke-width:0.5;" x1="346" x2="546" y1="393.0938" y2="393.0938"/><ellipse cx="356" cy="406.7422" fill="#84BE84" rx="3" ry="3" style="stroke:#038048;stroke-width:1.0;"/><text fill="#000000" font-family="sans-serif" font-size="14" lengthAdjust="spacing" textLength="159" x="365" y="410.0889">getNickname(): String</text><ellipse cx="356" cy="423.0391" fill="#84BE84" rx="3" ry="3" style="stroke:#038048;stroke-width:1.0;"/><text fill="#000000" font-family="sans-serif" font-size="14" lengthAdjust="spacing" textLength="176" x="365" y="426.3857">getColorPlayer(): COLOR</text></g><!--class Card--><g id="elem_Card"><rect codeLine="41" fill="#F1F1F1" height="178.375" id="Card" rx="2.5" ry="2.5" style="stroke:#181818;stroke-width:0.5;" width="187" x="337.5" y="691"/><ellipse cx="410.25" cy="707" fill="#ADD1B2" rx="11" ry="11" style="stroke:#181818;stroke-width:1.0;"/><path d="M412.5938,702.6719 C411.6563,702.2344 411.0625,702.0938 410.1875,702.0938 C407.5625,702.0938 405.5625,704.1719 405.5625,706.8906 L405.5625,708.0156 C405.5625,710.5938 407.6719,712.4844 410.5625,712.4844 C411.7813,712.4844 412.9375,712.1875 413.6875,711.6406 C414.2656,711.2344 414.5938,710.7813 414.5938,710.3906 C414.5938,709.9375 414.2031,709.5469 413.7344,709.5469 C413.5156,709.5469 413.3125,709.625 413.125,709.8125 C412.6719,710.2969 412.6719,710.2969 412.4844,710.3906 C412.0625,710.6563 411.375,710.7813 410.6094,710.7813 C408.5625,710.7813 407.2656,709.6875 407.2656,707.9844 L407.2656,706.8906 C407.2656,705.1094 408.5156,703.7969 410.25,703.7969 C410.8281,703.7969 411.4375,703.9531 411.9063,704.2031 C412.3906,704.4844 412.5625,704.7031 412.6563,705.1094 C412.7188,705.5156 412.75,705.6406 412.8906,705.7656 C413.0313,705.9063 413.2656,706.0156 413.4844,706.0156 C413.75,706.0156 414.0156,705.875 414.1875,705.6563 C414.2969,705.5 414.3281,705.3125 414.3281,704.8906 L414.3281,703.4688 C414.3281,703.0313 414.3125,702.9063 414.2188,702.75 C414.0625,702.4844 413.7813,702.3438 413.4844,702.3438 C413.1875,702.3438 412.9844,702.4375 412.7656,702.75 L412.5938,702.6719 Z " fill="#000000"/><text fill="#000000" font-family="sans-serif" font-size="14" lengthAdjust="spacing" textLength="33" x="430.75" y="711.8467">Card</text><line style="stroke:#181818;stroke-width:0.5;" x1="338.5" x2="523.5" y1="723" y2="723"/><rect fill="none" height="6" style="stroke:#C82930;stroke-width:1.0;" width="6" x="345.5" y="733.6484"/><text fill="#000000" font-family="sans-serif" font-size="14" lengthAdjust="spacing" textLength="75" x="357.5" y="739.9951">idCard: int</text><rect fill="none" height="6" style="stroke:#C82930;stroke-width:1.0;" width="6" x="345.5" y="749.9453"/><text fill="#000000" font-family="sans-serif" font-size="14" lengthAdjust="spacing" textLength="124" x="357.5" y="756.292">codeFront: char[]</text><rect fill="none" height="6" style="stroke:#C82930;stroke-width:1.0;" width="6" x="345.5" y="766.2422"/><text fill="#000000" font-family="sans-serif" font-size="14" lengthAdjust="spacing" textLength="120" x="357.5" y="772.5889">codeBack: char[]</text><rect fill="none" height="6" style="stroke:#C82930;stroke-width:1.0;" width="6" x="345.5" y="782.5391"/><text fill="#000000" font-family="sans-serif" font-size="14" lengthAdjust="spacing" textLength="115" x="357.5" y="788.8857">cardPoints: int[]</text><line style="stroke:#181818;stroke-width:0.5;" x1="338.5" x2="523.5" y1="796.1875" y2="796.1875"/><ellipse cx="348.5" cy="809.8359" fill="#84BE84" rx="3" ry="3" style="stroke:#038048;stroke-width:1.0;"/><text fill="#000000" font-family="sans-serif" font-size="14" lengthAdjust="spacing" textLength="110" x="357.5" y="813.1826">getIdCard(): int</text><ellipse cx="348.5" cy="826.1328" fill="#84BE84" rx="3" ry="3" style="stroke:#038048;stroke-width:1.0;"/><text fill="#000000" font-family="sans-serif" font-size="14" lengthAdjust="spacing" textLength="161" x="357.5" y="829.4795">getCodeFront(): char[]</text><ellipse cx="348.5" cy="842.4297" fill="#84BE84" rx="3" ry="3" style="stroke:#038048;stroke-width:1.0;"/><text fill="#000000" font-family="sans-serif" font-size="14" lengthAdjust="spacing" textLength="157" x="357.5" y="845.7764">getCodeBack(): char[]</text><ellipse cx="348.5" cy="858.7266" fill="#84BE84" rx="3" ry="3" style="stroke:#038048;stroke-width:1.0;"/><text fill="#000000" font-family="sans-serif" font-size="14" lengthAdjust="spacing" textLength="152" x="357.5" y="862.0732">getCardPoints(): int[]</text></g><!--class ObjectiveCard--><g id="elem_ObjectiveCard"><rect codeLine="54" fill="#F1F1F1" height="40" id="ObjectiveCard" rx="2.5" ry="2.5" style="stroke:#181818;stroke-width:0.5;" width="135" x="194.5" y="965.5"/><ellipse cx="209.5" cy="981.5" fill="#ADD1B2" rx="11" ry="11" style="stroke:#181818;stroke-width:1.0;"/><path d="M211.8438,977.1719 C210.9063,976.7344 210.3125,976.5938 209.4375,976.5938 C206.8125,976.5938 204.8125,978.6719 204.8125,981.3906 L204.8125,982.5156 C204.8125,985.0938 206.9219,986.9844 209.8125,986.9844 C211.0313,986.9844 212.1875,986.6875 212.9375,986.1406 C213.5156,985.7344 213.8438,985.2813 213.8438,984.8906 C213.8438,984.4375 213.4531,984.0469 212.9844,984.0469 C212.7656,984.0469 212.5625,984.125 212.375,984.3125 C211.9219,984.7969 211.9219,984.7969 211.7344,984.8906 C211.3125,985.1563 210.625,985.2813 209.8594,985.2813 C207.8125,985.2813 206.5156,984.1875 206.5156,982.4844 L206.5156,981.3906 C206.5156,979.6094 207.7656,978.2969 209.5,978.2969 C210.0781,978.2969 210.6875,978.4531 211.1563,978.7031 C211.6406,978.9844 211.8125,979.2031 211.9063,979.6094 C211.9688,980.0156 212,980.1406 212.1406,980.2656 C212.2813,980.4063 212.5156,980.5156 212.7344,980.5156 C213,980.5156 213.2656,980.375 213.4375,980.1563 C213.5469,980 213.5781,979.8125 213.5781,979.3906 L213.5781,977.9688 C213.5781,977.5313 213.5625,977.4063 213.4688,977.25 C213.3125,976.9844 213.0313,976.8438 212.7344,976.8438 C212.4375,976.8438 212.2344,976.9375 212.0156,977.25 L211.8438,977.1719 Z " fill="#000000"/><text fill="#000000" font-family="sans-serif" font-size="14" lengthAdjust="spacing" textLength="103" x="223.5" y="986.3467">ObjectiveCard</text><line style="stroke:#181818;stroke-width:0.5;" x1="195.5" x2="328.5" y1="997.5" y2="997.5"/></g><!--class AngledCard--><g id="elem_AngledCard"><rect codeLine="59" fill="#F1F1F1" height="113.1875" id="AngledCard" rx="2.5" ry="2.5" style="stroke:#181818;stroke-width:0.5;" width="265" x="364.5" y="929"/><ellipse cx="451.25" cy="945" fill="#ADD1B2" rx="11" ry="11" style="stroke:#181818;stroke-width:1.0;"/><path d="M453.5938,940.6719 C452.6563,940.2344 452.0625,940.0938 451.1875,940.0938 C448.5625,940.0938 446.5625,942.1719 446.5625,944.8906 L446.5625,946.0156 C446.5625,948.5938 448.6719,950.4844 451.5625,950.4844 C452.7813,950.4844 453.9375,950.1875 454.6875,949.6406 C455.2656,949.2344 455.5938,948.7813 455.5938,948.3906 C455.5938,947.9375 455.2031,947.5469 454.7344,947.5469 C454.5156,947.5469 454.3125,947.625 454.125,947.8125 C453.6719,948.2969 453.6719,948.2969 453.4844,948.3906 C453.0625,948.6563 452.375,948.7813 451.6094,948.7813 C449.5625,948.7813 448.2656,947.6875 448.2656,945.9844 L448.2656,944.8906 C448.2656,943.1094 449.5156,941.7969 451.25,941.7969 C451.8281,941.7969 452.4375,941.9531 452.9063,942.2031 C453.3906,942.4844 453.5625,942.7031 453.6563,943.1094 C453.7188,943.5156 453.75,943.6406 453.8906,943.7656 C454.0313,943.9063 454.2656,944.0156 454.4844,944.0156 C454.75,944.0156 455.0156,943.875 455.1875,943.6563 C455.2969,943.5 455.3281,943.3125 455.3281,942.8906 L455.3281,941.4688 C455.3281,941.0313 455.3125,940.9063 455.2188,940.75 C455.0625,940.4844 454.7813,940.3438 454.4844,940.3438 C454.1875,940.3438 453.9844,940.4375 453.7656,940.75 L453.5938,940.6719 Z " fill="#000000"/><text fill="#000000" font-family="sans-serif" font-size="14" lengthAdjust="spacing" textLength="83" x="471.75" y="949.8467">AngledCard</text><line style="stroke:#181818;stroke-width:0.5;" x1="365.5" x2="628.5" y1="961" y2="961"/><rect fill="none" height="6" style="stroke:#C82930;stroke-width:1.0;" width="6" x="372.5" y="971.6484"/><text fill="#000000" font-family="sans-serif" font-size="14" lengthAdjust="spacing" textLength="152" x="384.5" y="977.9951">cardCorners: int[2][2]</text><rect fill="none" height="6" style="stroke:#C82930;stroke-width:1.0;" width="6" x="372.5" y="987.9453"/><text fill="#000000" font-family="sans-serif" font-size="14" lengthAdjust="spacing" textLength="202" x="384.5" y="994.292">cardSymbols: SIMBOLO[2][2]</text><line style="stroke:#181818;stroke-width:0.5;" x1="365.5" x2="628.5" y1="1001.5938" y2="1001.5938"/><ellipse cx="375.5" cy="1015.2422" fill="#84BE84" rx="3" ry="3" style="stroke:#038048;stroke-width:1.0;"/><text fill="#000000" font-family="sans-serif" font-size="14" lengthAdjust="spacing" textLength="189" x="384.5" y="1018.5889">getCardCorners(): int[2][2]</text><ellipse cx="375.5" cy="1031.5391" fill="#84BE84" rx="3" ry="3" style="stroke:#038048;stroke-width:1.0;"/><text fill="#000000" font-family="sans-serif" font-size="14" lengthAdjust="spacing" textLength="239" x="384.5" y="1034.8857">getCardSymbols(): SIMBOLO[2][2]</text></g><!--class GoldCard--><g id="elem_GoldCard"><rect codeLine="68" fill="#F1F1F1" height="80.5938" id="GoldCard" rx="2.5" ry="2.5" style="stroke:#181818;stroke-width:0.5;" width="227" x="96.5" y="1102"/><ellipse cx="172.75" cy="1118" fill="#ADD1B2" rx="11" ry="11" style="stroke:#181818;stroke-width:1.0;"/><path d="M175.0938,1113.6719 C174.1563,1113.2344 173.5625,1113.0938 172.6875,1113.0938 C170.0625,1113.0938 168.0625,1115.1719 168.0625,1117.8906 L168.0625,1119.0156 C168.0625,1121.5938 170.1719,1123.4844 173.0625,1123.4844 C174.2813,1123.4844 175.4375,1123.1875 176.1875,1122.6406 C176.7656,1122.2344 177.0938,1121.7813 177.0938,1121.3906 C177.0938,1120.9375 176.7031,1120.5469 176.2344,1120.5469 C176.0156,1120.5469 175.8125,1120.625 175.625,1120.8125 C175.1719,1121.2969 175.1719,1121.2969 174.9844,1121.3906 C174.5625,1121.6563 173.875,1121.7813 173.1094,1121.7813 C171.0625,1121.7813 169.7656,1120.6875 169.7656,1118.9844 L169.7656,1117.8906 C169.7656,1116.1094 171.0156,1114.7969 172.75,1114.7969 C173.3281,1114.7969 173.9375,1114.9531 174.4063,1115.2031 C174.8906,1115.4844 175.0625,1115.7031 175.1563,1116.1094 C175.2188,1116.5156 175.25,1116.6406 175.3906,1116.7656 C175.5313,1116.9063 175.7656,1117.0156 175.9844,1117.0156 C176.25,1117.0156 176.5156,1116.875 176.6875,1116.6563 C176.7969,1116.5 176.8281,1116.3125 176.8281,1115.8906 L176.8281,1114.4688 C176.8281,1114.0313 176.8125,1113.9063 176.7188,1113.75 C176.5625,1113.4844 176.2813,1113.3438 175.9844,1113.3438 C175.6875,1113.3438 175.4844,1113.4375 175.2656,1113.75 L175.0938,1113.6719 Z " fill="#000000"/><text fill="#000000" font-family="sans-serif" font-size="14" lengthAdjust="spacing" textLength="66" x="193.25" y="1122.8467">GoldCard</text><line style="stroke:#181818;stroke-width:0.5;" x1="97.5" x2="322.5" y1="1134" y2="1134"/><rect fill="none" height="6" style="stroke:#C82930;stroke-width:1.0;" width="6" x="104.5" y="1144.6484"/><text fill="#000000" font-family="sans-serif" font-size="14" lengthAdjust="spacing" textLength="162" x="116.5" y="1150.9951">resources: SIMBOLO[5]</text><line style="stroke:#181818;stroke-width:0.5;" x1="97.5" x2="322.5" y1="1158.2969" y2="1158.2969"/><ellipse cx="107.5" cy="1171.9453" fill="#84BE84" rx="3" ry="3" style="stroke:#038048;stroke-width:1.0;"/><text fill="#000000" font-family="sans-serif" font-size="14" lengthAdjust="spacing" textLength="201" x="116.5" y="1175.292">getResources(): SIMBOLO[5]</text></g><!--class InitialCard--><g id="elem_InitialCard"><rect codeLine="76" fill="#F1F1F1" height="80.5938" id="InitialCard" rx="2.5" ry="2.5" style="stroke:#181818;stroke-width:0.5;" width="277" x="358.5" y="1102"/><ellipse cx="456.25" cy="1118" fill="#ADD1B2" rx="11" ry="11" style="stroke:#181818;stroke-width:1.0;"/><path d="M458.5938,1113.6719 C457.6563,1113.2344 457.0625,1113.0938 456.1875,1113.0938 C453.5625,1113.0938 451.5625,1115.1719 451.5625,1117.8906 L451.5625,1119.0156 C451.5625,1121.5938 453.6719,1123.4844 456.5625,1123.4844 C457.7813,1123.4844 458.9375,1123.1875 459.6875,1122.6406 C460.2656,1122.2344 460.5938,1121.7813 460.5938,1121.3906 C460.5938,1120.9375 460.2031,1120.5469 459.7344,1120.5469 C459.5156,1120.5469 459.3125,1120.625 459.125,1120.8125 C458.6719,1121.2969 458.6719,1121.2969 458.4844,1121.3906 C458.0625,1121.6563 457.375,1121.7813 456.6094,1121.7813 C454.5625,1121.7813 453.2656,1120.6875 453.2656,1118.9844 L453.2656,1117.8906 C453.2656,1116.1094 454.5156,1114.7969 456.25,1114.7969 C456.8281,1114.7969 457.4375,1114.9531 457.9063,1115.2031 C458.3906,1115.4844 458.5625,1115.7031 458.6563,1116.1094 C458.7188,1116.5156 458.75,1116.6406 458.8906,1116.7656 C459.0313,1116.9063 459.2656,1117.0156 459.4844,1117.0156 C459.75,1117.0156 460.0156,1116.875 460.1875,1116.6563 C460.2969,1116.5 460.3281,1116.3125 460.3281,1115.8906 L460.3281,1114.4688 C460.3281,1114.0313 460.3125,1113.9063 460.2188,1113.75 C460.0625,1113.4844 459.7813,1113.3438 459.4844,1113.3438 C459.1875,1113.3438 458.9844,1113.4375 458.7656,1113.75 L458.5938,1113.6719 Z " fill="#000000"/><text fill="#000000" font-family="sans-serif" font-size="14" lengthAdjust="spacing" textLength="73" x="476.75" y="1122.8467">InitialCard</text><line style="stroke:#181818;stroke-width:0.5;" x1="359.5" x2="634.5" y1="1134" y2="1134"/><rect fill="none" height="6" style="stroke:#C82930;stroke-width:1.0;" width="6" x="366.5" y="1144.6484"/><text fill="#000000" font-family="sans-serif" font-size="14" lengthAdjust="spacing" textLength="214" x="378.5" y="1150.9951">centerResources: SIMBOLO[3]</text><line style="stroke:#181818;stroke-width:0.5;" x1="359.5" x2="634.5" y1="1158.2969" y2="1158.2969"/><ellipse cx="369.5" cy="1171.9453" fill="#84BE84" rx="3" ry="3" style="stroke:#038048;stroke-width:1.0;"/><text fill="#000000" font-family="sans-serif" font-size="14" lengthAdjust="spacing" textLength="251" x="378.5" y="1175.292">getCenterResources(): SIMBOLO[3]</text></g><!--class ResourceCard--><g id="elem_ResourceCard"><rect codeLine="83" fill="#F1F1F1" height="40" id="ResourceCard" rx="2.5" ry="2.5" style="stroke:#181818;stroke-width:0.5;" width="131" x="670.5" y="1122.5"/><ellipse cx="685.5" cy="1138.5" fill="#ADD1B2" rx="11" ry="11" style="stroke:#181818;stroke-width:1.0;"/><path d="M687.8438,1134.1719 C686.9063,1133.7344 686.3125,1133.5938 685.4375,1133.5938 C682.8125,1133.5938 680.8125,1135.6719 680.8125,1138.3906 L680.8125,1139.5156 C680.8125,1142.0938 682.9219,1143.9844 685.8125,1143.9844 C687.0313,1143.9844 688.1875,1143.6875 688.9375,1143.1406 C689.5156,1142.7344 689.8438,1142.2813 689.8438,1141.8906 C689.8438,1141.4375 689.4531,1141.0469 688.9844,1141.0469 C688.7656,1141.0469 688.5625,1141.125 688.375,1141.3125 C687.9219,1141.7969 687.9219,1141.7969 687.7344,1141.8906 C687.3125,1142.1563 686.625,1142.2813 685.8594,1142.2813 C683.8125,1142.2813 682.5156,1141.1875 682.5156,1139.4844 L682.5156,1138.3906 C682.5156,1136.6094 683.7656,1135.2969 685.5,1135.2969 C686.0781,1135.2969 686.6875,1135.4531 687.1563,1135.7031 C687.6406,1135.9844 687.8125,1136.2031 687.9063,1136.6094 C687.9688,1137.0156 688,1137.1406 688.1406,1137.2656 C688.2813,1137.4063 688.5156,1137.5156 688.7344,1137.5156 C689,1137.5156 689.2656,1137.375 689.4375,1137.1563 C689.5469,1137 689.5781,1136.8125 689.5781,1136.3906 L689.5781,1134.9688 C689.5781,1134.5313 689.5625,1134.4063 689.4688,1134.25 C689.3125,1133.9844 689.0313,1133.8438 688.7344,1133.8438 C688.4375,1133.8438 688.2344,1133.9375 688.0156,1134.25 L687.8438,1134.1719 Z " fill="#000000"/><text fill="#000000" font-family="sans-serif" font-size="14" lengthAdjust="spacing" textLength="99" x="699.5" y="1143.3467">ResourceCard</text><line style="stroke:#181818;stroke-width:0.5;" x1="671.5" x2="800.5" y1="1154.5" y2="1154.5"/></g><!--class Structure--><g id="elem_Structure"><rect codeLine="85" fill="#F1F1F1" height="40" id="Structure" rx="2.5" ry="2.5" style="stroke:#181818;stroke-width:0.5;" width="100" x="311" y="554.5"/><ellipse cx="326" cy="570.5" fill="#ADD1B2" rx="11" ry="11" style="stroke:#181818;stroke-width:1.0;"/><path d="M328.3438,566.1719 C327.4063,565.7344 326.8125,565.5938 325.9375,565.5938 C323.3125,565.5938 321.3125,567.6719 321.3125,570.3906 L321.3125,571.5156 C321.3125,574.0938 323.4219,575.9844 326.3125,575.9844 C327.5313,575.9844 328.6875,575.6875 329.4375,575.1406 C330.0156,574.7344 330.3438,574.2813 330.3438,573.8906 C330.3438,573.4375 329.9531,573.0469 329.4844,573.0469 C329.2656,573.0469 329.0625,573.125 328.875,573.3125 C328.4219,573.7969 328.4219,573.7969 328.2344,573.8906 C327.8125,574.1563 327.125,574.2813 326.3594,574.2813 C324.3125,574.2813 323.0156,573.1875 323.0156,571.4844 L323.0156,570.3906 C323.0156,568.6094 324.2656,567.2969 326,567.2969 C326.5781,567.2969 327.1875,567.4531 327.6563,567.7031 C328.1406,567.9844 328.3125,568.2031 328.4063,568.6094 C328.4688,569.0156 328.5,569.1406 328.6406,569.2656 C328.7813,569.4063 329.0156,569.5156 329.2344,569.5156 C329.5,569.5156 329.7656,569.375 329.9375,569.1563 C330.0469,569 330.0781,568.8125 330.0781,568.3906 L330.0781,566.9688 C330.0781,566.5313 330.0625,566.4063 329.9688,566.25 C329.8125,565.9844 329.5313,565.8438 329.2344,565.8438 C328.9375,565.8438 328.7344,565.9375 328.5156,566.25 L328.3438,566.1719 Z " fill="#000000"/><text fill="#000000" font-family="sans-serif" font-size="14" lengthAdjust="spacing" textLength="68" x="340" y="575.3467">Structure</text><line style="stroke:#181818;stroke-width:0.5;" x1="312" x2="410" y1="586.5" y2="586.5"/></g><!--class Deck--><g id="elem_Deck"><rect codeLine="87" fill="#F1F1F1" height="80.5938" id="Deck" rx="2.5" ry="2.5" style="stroke:#181818;stroke-width:0.5;" width="215" x="582.5" y="336.5"/><ellipse cx="667.25" cy="352.5" fill="#ADD1B2" rx="11" ry="11" style="stroke:#181818;stroke-width:1.0;"/><path d="M669.5938,348.1719 C668.6563,347.7344 668.0625,347.5938 667.1875,347.5938 C664.5625,347.5938 662.5625,349.6719 662.5625,352.3906 L662.5625,353.5156 C662.5625,356.0938 664.6719,357.9844 667.5625,357.9844 C668.7813,357.9844 669.9375,357.6875 670.6875,357.1406 C671.2656,356.7344 671.5938,356.2813 671.5938,355.8906 C671.5938,355.4375 671.2031,355.0469 670.7344,355.0469 C670.5156,355.0469 670.3125,355.125 670.125,355.3125 C669.6719,355.7969 669.6719,355.7969 669.4844,355.8906 C669.0625,356.1563 668.375,356.2813 667.6094,356.2813 C665.5625,356.2813 664.2656,355.1875 664.2656,353.4844 L664.2656,352.3906 C664.2656,350.6094 665.5156,349.2969 667.25,349.2969 C667.8281,349.2969 668.4375,349.4531 668.9063,349.7031 C669.3906,349.9844 669.5625,350.2031 669.6563,350.6094 C669.7188,351.0156 669.75,351.1406 669.8906,351.2656 C670.0313,351.4063 670.2656,351.5156 670.4844,351.5156 C670.75,351.5156 671.0156,351.375 671.1875,351.1563 C671.2969,351 671.3281,350.8125 671.3281,350.3906 L671.3281,348.9688 C671.3281,348.5313 671.3125,348.4063 671.2188,348.25 C671.0625,347.9844 670.7813,347.8438 670.4844,347.8438 C670.1875,347.8438 669.9844,347.9375 669.7656,348.25 L669.5938,348.1719 Z " fill="#000000"/><text fill="#000000" font-family="sans-serif" font-size="14" lengthAdjust="spacing" textLength="37" x="687.75" y="357.3467">Deck</text><line style="stroke:#181818;stroke-width:0.5;" x1="583.5" x2="796.5" y1="368.5" y2="368.5"/><rect fill="none" height="6" style="stroke:#C82930;stroke-width:1.0;" width="6" x="590.5" y="379.1484"/><text fill="#000000" font-family="sans-serif" font-size="14" lengthAdjust="spacing" textLength="158" x="602.5" y="385.4951">goldDeck: List&lt;Card&gt;</text><rect fill="none" height="6" style="stroke:#C82930;stroke-width:1.0;" width="6" x="590.5" y="395.4453"/><text fill="#000000" font-family="sans-serif" font-size="14" lengthAdjust="spacing" textLength="189" x="602.5" y="401.792">resourceDeck: List&lt;Card&gt;</text><line style="stroke:#181818;stroke-width:0.5;" x1="583.5" x2="796.5" y1="409.0938" y2="409.0938"/></g><!--class Hand--><g id="elem_Hand"><rect codeLine="93" fill="#F1F1F1" height="113.1875" id="Hand" rx="2.5" ry="2.5" style="stroke:#181818;stroke-width:0.5;" width="208" x="446" y="518"/><ellipse cx="527.75" cy="534" fill="#ADD1B2" rx="11" ry="11" style="stroke:#181818;stroke-width:1.0;"/><path d="M530.0938,529.6719 C529.1563,529.2344 528.5625,529.0938 527.6875,529.0938 C525.0625,529.0938 523.0625,531.1719 523.0625,533.8906 L523.0625,535.0156 C523.0625,537.5938 525.1719,539.4844 528.0625,539.4844 C529.2813,539.4844 530.4375,539.1875 531.1875,538.6406 C531.7656,538.2344 532.0938,537.7813 532.0938,537.3906 C532.0938,536.9375 531.7031,536.5469 531.2344,536.5469 C531.0156,536.5469 530.8125,536.625 530.625,536.8125 C530.1719,537.2969 530.1719,537.2969 529.9844,537.3906 C529.5625,537.6563 528.875,537.7813 528.1094,537.7813 C526.0625,537.7813 524.7656,536.6875 524.7656,534.9844 L524.7656,533.8906 C524.7656,532.1094 526.0156,530.7969 527.75,530.7969 C528.3281,530.7969 528.9375,530.9531 529.4063,531.2031 C529.8906,531.4844 530.0625,531.7031 530.1563,532.1094 C530.2188,532.5156 530.25,532.6406 530.3906,532.7656 C530.5313,532.9063 530.7656,533.0156 530.9844,533.0156 C531.25,533.0156 531.5156,532.875 531.6875,532.6563 C531.7969,532.5 531.8281,532.3125 531.8281,531.8906 L531.8281,530.4688 C531.8281,530.0313 531.8125,529.9063 531.7188,529.75 C531.5625,529.4844 531.2813,529.3438 530.9844,529.3438 C530.6875,529.3438 530.4844,529.4375 530.2656,529.75 L530.0938,529.6719 Z " fill="#000000"/><text fill="#000000" font-family="sans-serif" font-size="14" lengthAdjust="spacing" textLength="36" x="548.25" y="538.8467">Hand</text><line style="stroke:#181818;stroke-width:0.5;" x1="447" x2="653" y1="550" y2="550"/><rect fill="none" height="6" style="stroke:#C82930;stroke-width:1.0;" width="6" x="454" y="560.6484"/><text fill="#000000" font-family="sans-serif" font-size="14" lengthAdjust="spacing" textLength="145" x="466" y="566.9951">secretObjective: int</text><rect fill="none" height="6" style="stroke:#C82930;stroke-width:1.0;" width="6" x="454" y="576.9453"/><text fill="#000000" font-family="sans-serif" font-size="14" lengthAdjust="spacing" textLength="122" x="466" y="583.292">cardsHand: int[3]</text><line style="stroke:#181818;stroke-width:0.5;" x1="447" x2="653" y1="590.5938" y2="590.5938"/><ellipse cx="457" cy="604.2422" fill="#84BE84" rx="3" ry="3" style="stroke:#038048;stroke-width:1.0;"/><text fill="#000000" font-family="sans-serif" font-size="14" lengthAdjust="spacing" textLength="182" x="466" y="607.5889">getSecretObjective(): int</text><ellipse cx="457" cy="620.5391" fill="#84BE84" rx="3" ry="3" style="stroke:#038048;stroke-width:1.0;"/><text fill="#000000" font-family="sans-serif" font-size="14" lengthAdjust="spacing" textLength="159" x="466" y="623.8857">getCardsHand(): int[3]</text></g><!--class ClientController--><g id="elem_ClientController"><rect codeLine="104" fill="#F1F1F1" height="145.7813" id="ClientController" rx="2.5" ry="2.5" style="stroke:#181818;stroke-width:0.5;" width="261" x="1803.5" y="304"/><ellipse cx="1871.75" cy="320" fill="#ADD1B2" rx="11" ry="11" style="stroke:#181818;stroke-width:1.0;"/><path d="M1874.0938,315.6719 C1873.1563,315.2344 1872.5625,315.0938 1871.6875,315.0938 C1869.0625,315.0938 1867.0625,317.1719 1867.0625,319.8906 L1867.0625,321.0156 C1867.0625,323.5938 1869.1719,325.4844 1872.0625,325.4844 C1873.2813,325.4844 1874.4375,325.1875 1875.1875,324.6406 C1875.7656,324.2344 1876.0938,323.7813 1876.0938,323.3906 C1876.0938,322.9375 1875.7031,322.5469 1875.2344,322.5469 C1875.0156,322.5469 1874.8125,322.625 1874.625,322.8125 C1874.1719,323.2969 1874.1719,323.2969 1873.9844,323.3906 C1873.5625,323.6563 1872.875,323.7813 1872.1094,323.7813 C1870.0625,323.7813 1868.7656,322.6875 1868.7656,320.9844 L1868.7656,319.8906 C1868.7656,318.1094 1870.0156,316.7969 1871.75,316.7969 C1872.3281,316.7969 1872.9375,316.9531 1873.4063,317.2031 C1873.8906,317.4844 1874.0625,317.7031 1874.1563,318.1094 C1874.2188,318.5156 1874.25,318.6406 1874.3906,318.7656 C1874.5313,318.9063 1874.7656,319.0156 1874.9844,319.0156 C1875.25,319.0156 1875.5156,318.875 1875.6875,318.6563 C1875.7969,318.5 1875.8281,318.3125 1875.8281,317.8906 L1875.8281,316.4688 C1875.8281,316.0313 1875.8125,315.9063 1875.7188,315.75 C1875.5625,315.4844 1875.2813,315.3438 1874.9844,315.3438 C1874.6875,315.3438 1874.4844,315.4375 1874.2656,315.75 L1874.0938,315.6719 Z " fill="#000000"/><text fill="#000000" font-family="sans-serif" font-size="14" lengthAdjust="spacing" textLength="116" x="1892.25" y="324.8467">ClientController</text><line style="stroke:#181818;stroke-width:0.5;" x1="1804.5" x2="2063.5" y1="336" y2="336"/><rect fill="none" height="6" style="stroke:#C82930;stroke-width:1.0;" width="6" x="1811.5" y="346.6484"/><text fill="#000000" font-family="sans-serif" font-size="14" lengthAdjust="spacing" textLength="79" x="1823.5" y="352.9951">view : View</text><line style="stroke:#181818;stroke-width:0.5;" x1="1804.5" x2="2063.5" y1="360.2969" y2="360.2969"/><ellipse cx="1814.5" cy="373.9453" fill="#84BE84" rx="3" ry="3" style="stroke:#038048;stroke-width:1.0;"/><text fill="#000000" font-family="sans-serif" font-size="14" lengthAdjust="spacing" textLength="235" x="1823.5" y="377.292">showAllowedConnections() : void</text><ellipse cx="1814.5" cy="390.2422" fill="#84BE84" rx="3" ry="3" style="stroke:#038048;stroke-width:1.0;"/><text fill="#000000" font-family="sans-serif" font-size="14" lengthAdjust="spacing" textLength="102" x="1823.5" y="393.5889">isLegal() : void</text><ellipse cx="1814.5" cy="406.5391" fill="#84BE84" rx="3" ry="3" style="stroke:#038048;stroke-width:1.0;"/><text fill="#000000" font-family="sans-serif" font-size="14" lengthAdjust="spacing" textLength="116" x="1823.5" y="409.8857">isMyTurn() : void</text><ellipse cx="1814.5" cy="422.8359" fill="#84BE84" rx="3" ry="3" style="stroke:#038048;stroke-width:1.0;"/><text fill="#000000" font-family="sans-serif" font-size="14" lengthAdjust="spacing" textLength="88" x="1823.5" y="426.1826">deny() : void</text><ellipse cx="1814.5" cy="439.1328" fill="#84BE84" rx="3" ry="3" style="stroke:#038048;stroke-width:1.0;"/><text fill="#000000" font-family="sans-serif" font-size="14" lengthAdjust="spacing" textLength="96" x="1823.5" y="442.4795">notify() : void</text></g><!--class PlayerController--><g id="elem_PlayerController"><rect codeLine="113" fill="#F1F1F1" height="129.4844" id="PlayerController" rx="2.5" ry="2.5" style="stroke:#181818;stroke-width:0.5;" width="172" x="1596" y="312.5"/><ellipse cx="1621.35" cy="328.5" fill="#ADD1B2" rx="11" ry="11" style="stroke:#181818;stroke-width:1.0;"/><path d="M1623.6938,324.1719 C1622.7563,323.7344 1622.1625,323.5938 1621.2875,323.5938 C1618.6625,323.5938 1616.6625,325.6719 1616.6625,328.3906 L1616.6625,329.5156 C1616.6625,332.0938 1618.7719,333.9844 1621.6625,333.9844 C1622.8813,333.9844 1624.0375,333.6875 1624.7875,333.1406 C1625.3656,332.7344 1625.6938,332.2813 1625.6938,331.8906 C1625.6938,331.4375 1625.3031,331.0469 1624.8344,331.0469 C1624.6156,331.0469 1624.4125,331.125 1624.225,331.3125 C1623.7719,331.7969 1623.7719,331.7969 1623.5844,331.8906 C1623.1625,332.1563 1622.475,332.2813 1621.7094,332.2813 C1619.6625,332.2813 1618.3656,331.1875 1618.3656,329.4844 L1618.3656,328.3906 C1618.3656,326.6094 1619.6156,325.2969 1621.35,325.2969 C1621.9281,325.2969 1622.5375,325.4531 1623.0063,325.7031 C1623.4906,325.9844 1623.6625,326.2031 1623.7563,326.6094 C1623.8188,327.0156 1623.85,327.1406 1623.9906,327.2656 C1624.1313,327.4063 1624.3656,327.5156 1624.5844,327.5156 C1624.85,327.5156 1625.1156,327.375 1625.2875,327.1563 C1625.3969,327 1625.4281,326.8125 1625.4281,326.3906 L1625.4281,324.9688 C1625.4281,324.5313 1625.4125,324.4063 1625.3188,324.25 C1625.1625,323.9844 1624.8813,323.8438 1624.5844,323.8438 C1624.2875,323.8438 1624.0844,323.9375 1623.8656,324.25 L1623.6938,324.1719 Z " fill="#000000"/><text fill="#000000" font-family="sans-serif" font-size="14" lengthAdjust="spacing" textLength="117" x="1637.65" y="333.3467">PlayerController</text><line style="stroke:#181818;stroke-width:0.5;" x1="1597" x2="1767" y1="344.5" y2="344.5"/><rect fill="none" height="6" style="stroke:#C82930;stroke-width:1.0;" width="6" x="1604" y="355.1484"/><text fill="#000000" font-family="sans-serif" font-size="14" lengthAdjust="spacing" textLength="95" x="1616" y="361.4951">game : Game</text><line style="stroke:#181818;stroke-width:0.5;" x1="1597" x2="1767" y1="368.7969" y2="368.7969"/><ellipse cx="1607" cy="382.4453" fill="#84BE84" rx="3" ry="3" style="stroke:#038048;stroke-width:1.0;"/><text fill="#000000" font-family="sans-serif" font-size="14" lengthAdjust="spacing" textLength="144" x="1616" y="385.792">createPlayer() : void</text><ellipse cx="1607" cy="398.7422" fill="#84BE84" rx="3" ry="3" style="stroke:#038048;stroke-width:1.0;"/><text fill="#000000" font-family="sans-serif" font-size="14" lengthAdjust="spacing" textLength="122" x="1616" y="402.0889">setColour() : void</text><ellipse cx="1607" cy="415.0391" fill="#84BE84" rx="3" ry="3" style="stroke:#038048;stroke-width:1.0;"/><text fill="#000000" font-family="sans-serif" font-size="14" lengthAdjust="spacing" textLength="146" x="1616" y="418.3857">serNickname() : void</text><ellipse cx="1607" cy="431.3359" fill="#84BE84" rx="3" ry="3" style="stroke:#038048;stroke-width:1.0;"/><text fill="#000000" font-family="sans-serif" font-size="14" lengthAdjust="spacing" textLength="121" x="1616" y="434.6826">joinGame() : void</text></g><!--class GameController--><g id="elem_GameController"><rect codeLine="121" fill="#F1F1F1" height="162.0781" id="GameController" rx="2.5" ry="2.5" style="stroke:#181818;stroke-width:0.5;" width="188" x="1373" y="296"/><ellipse cx="1406.45" cy="312" fill="#ADD1B2" rx="11" ry="11" style="stroke:#181818;stroke-width:1.0;"/><path d="M1408.7938,307.6719 C1407.8563,307.2344 1407.2625,307.0938 1406.3875,307.0938 C1403.7625,307.0938 1401.7625,309.1719 1401.7625,311.8906 L1401.7625,313.0156 C1401.7625,315.5938 1403.8719,317.4844 1406.7625,317.4844 C1407.9813,317.4844 1409.1375,317.1875 1409.8875,316.6406 C1410.4656,316.2344 1410.7938,315.7813 1410.7938,315.3906 C1410.7938,314.9375 1410.4031,314.5469 1409.9344,314.5469 C1409.7156,314.5469 1409.5125,314.625 1409.325,314.8125 C1408.8719,315.2969 1408.8719,315.2969 1408.6844,315.3906 C1408.2625,315.6563 1407.575,315.7813 1406.8094,315.7813 C1404.7625,315.7813 1403.4656,314.6875 1403.4656,312.9844 L1403.4656,311.8906 C1403.4656,310.1094 1404.7156,308.7969 1406.45,308.7969 C1407.0281,308.7969 1407.6375,308.9531 1408.1063,309.2031 C1408.5906,309.4844 1408.7625,309.7031 1408.8563,310.1094 C1408.9188,310.5156 1408.95,310.6406 1409.0906,310.7656 C1409.2313,310.9063 1409.4656,311.0156 1409.6844,311.0156 C1409.95,311.0156 1410.2156,310.875 1410.3875,310.6563 C1410.4969,310.5 1410.5281,310.3125 1410.5281,309.8906 L1410.5281,308.4688 C1410.5281,308.0313 1410.5125,307.9063 1410.4188,307.75 C1410.2625,307.4844 1409.9813,307.3438 1409.6844,307.3438 C1409.3875,307.3438 1409.1844,307.4375 1408.9656,307.75 L1408.7938,307.6719 Z " fill="#000000"/><text fill="#000000" font-family="sans-serif" font-size="14" lengthAdjust="spacing" textLength="115" x="1424.55" y="316.8467">GameController</text><line style="stroke:#181818;stroke-width:0.5;" x1="1374" x2="1560" y1="328" y2="328"/><rect fill="none" height="6" style="stroke:#C82930;stroke-width:1.0;" width="6" x="1381" y="338.6484"/><text fill="#000000" font-family="sans-serif" font-size="14" lengthAdjust="spacing" textLength="95" x="1393" y="344.9951">game : Game</text><line style="stroke:#181818;stroke-width:0.5;" x1="1374" x2="1560" y1="352.2969" y2="352.2969"/><ellipse cx="1384" cy="365.9453" fill="#84BE84" rx="3" ry="3" style="stroke:#038048;stroke-width:1.0;"/><text fill="#000000" font-family="sans-serif" font-size="14" lengthAdjust="spacing" textLength="120" x="1393" y="369.292">drawCard() : void</text><ellipse cx="1384" cy="382.2422" fill="#84BE84" rx="3" ry="3" style="stroke:#038048;stroke-width:1.0;"/><text fill="#000000" font-family="sans-serif" font-size="14" lengthAdjust="spacing" textLength="123" x="1393" y="385.5889">getPoints() : void</text><ellipse cx="1384" cy="398.5391" fill="#84BE84" rx="3" ry="3" style="stroke:#038048;stroke-width:1.0;"/><text fill="#000000" font-family="sans-serif" font-size="14" lengthAdjust="spacing" textLength="116" x="1393" y="401.8857">playCard() : void</text><ellipse cx="1384" cy="414.8359" fill="#84BE84" rx="3" ry="3" style="stroke:#038048;stroke-width:1.0;"/><text fill="#000000" font-family="sans-serif" font-size="14" lengthAdjust="spacing" textLength="162" x="1393" y="418.1826">choosePosition() : void</text><ellipse cx="1384" cy="431.1328" fill="#84BE84" rx="3" ry="3" style="stroke:#038048;stroke-width:1.0;"/><text fill="#000000" font-family="sans-serif" font-size="14" lengthAdjust="spacing" textLength="135" x="1393" y="434.4795">chooseSide() : void</text><ellipse cx="1384" cy="447.4297" fill="#84BE84" rx="3" ry="3" style="stroke:#038048;stroke-width:1.0;"/><text fill="#000000" font-family="sans-serif" font-size="14" lengthAdjust="spacing" textLength="137" x="1393" y="450.7764">chooseCard() : void</text></g><!--class GameHandler--><g id="elem_GameHandler"><rect codeLine="131" fill="#F1F1F1" height="113.1875" id="GameHandler" rx="2.5" ry="2.5" style="stroke:#181818;stroke-width:0.5;" width="163" x="1174.5" y="320.5"/><ellipse cx="1204.8" cy="336.5" fill="#ADD1B2" rx="11" ry="11" style="stroke:#181818;stroke-width:1.0;"/><path d="M1207.1438,332.1719 C1206.2063,331.7344 1205.6125,331.5938 1204.7375,331.5938 C1202.1125,331.5938 1200.1125,333.6719 1200.1125,336.3906 L1200.1125,337.5156 C1200.1125,340.0938 1202.2219,341.9844 1205.1125,341.9844 C1206.3313,341.9844 1207.4875,341.6875 1208.2375,341.1406 C1208.8156,340.7344 1209.1438,340.2813 1209.1438,339.8906 C1209.1438,339.4375 1208.7531,339.0469 1208.2844,339.0469 C1208.0656,339.0469 1207.8625,339.125 1207.675,339.3125 C1207.2219,339.7969 1207.2219,339.7969 1207.0344,339.8906 C1206.6125,340.1563 1205.925,340.2813 1205.1594,340.2813 C1203.1125,340.2813 1201.8156,339.1875 1201.8156,337.4844 L1201.8156,336.3906 C1201.8156,334.6094 1203.0656,333.2969 1204.8,333.2969 C1205.3781,333.2969 1205.9875,333.4531 1206.4563,333.7031 C1206.9406,333.9844 1207.1125,334.2031 1207.2063,334.6094 C1207.2688,335.0156 1207.3,335.1406 1207.4406,335.2656 C1207.5813,335.4063 1207.8156,335.5156 1208.0344,335.5156 C1208.3,335.5156 1208.5656,335.375 1208.7375,335.1563 C1208.8469,335 1208.8781,334.8125 1208.8781,334.3906 L1208.8781,332.9688 C1208.8781,332.5313 1208.8625,332.4063 1208.7688,332.25 C1208.6125,331.9844 1208.3313,331.8438 1208.0344,331.8438 C1207.7375,331.8438 1207.5344,331.9375 1207.3156,332.25 L1207.1438,332.1719 Z " fill="#000000"/><text fill="#000000" font-family="sans-serif" font-size="14" lengthAdjust="spacing" textLength="97" x="1222.2" y="341.3467">GameHandler</text><line style="stroke:#181818;stroke-width:0.5;" x1="1175.5" x2="1336.5" y1="352.5" y2="352.5"/><rect fill="none" height="6" style="stroke:#C82930;stroke-width:1.0;" width="6" x="1182.5" y="363.1484"/><text fill="#000000" font-family="sans-serif" font-size="14" lengthAdjust="spacing" textLength="95" x="1194.5" y="369.4951">game : Game</text><line style="stroke:#181818;stroke-width:0.5;" x1="1175.5" x2="1336.5" y1="376.7969" y2="376.7969"/><ellipse cx="1185.5" cy="390.4453" fill="#84BE84" rx="3" ry="3" style="stroke:#038048;stroke-width:1.0;"/><text fill="#000000" font-family="sans-serif" font-size="14" lengthAdjust="spacing" textLength="127" x="1194.5" y="393.792">getGames() : void</text><ellipse cx="1185.5" cy="406.7422" fill="#84BE84" rx="3" ry="3" style="stroke:#038048;stroke-width:1.0;"/><text fill="#000000" font-family="sans-serif" font-size="14" lengthAdjust="spacing" textLength="137" x="1194.5" y="410.0889">startGames() : void</text><ellipse cx="1185.5" cy="423.0391" fill="#84BE84" rx="3" ry="3" style="stroke:#038048;stroke-width:1.0;"/><text fill="#000000" font-family="sans-serif" font-size="14" lengthAdjust="spacing" textLength="122" x="1194.5" y="426.3857">endGame() : void</text></g><!--class InitialGameController--><g id="elem_InitialGameController"><rect codeLine="138" fill="#F1F1F1" height="145.7813" id="InitialGameController" rx="2.5" ry="2.5" style="stroke:#181818;stroke-width:0.5;" width="281" x="858.5" y="304"/><ellipse cx="917.25" cy="320" fill="#ADD1B2" rx="11" ry="11" style="stroke:#181818;stroke-width:1.0;"/><path d="M919.5938,315.6719 C918.6563,315.2344 918.0625,315.0938 917.1875,315.0938 C914.5625,315.0938 912.5625,317.1719 912.5625,319.8906 L912.5625,321.0156 C912.5625,323.5938 914.6719,325.4844 917.5625,325.4844 C918.7813,325.4844 919.9375,325.1875 920.6875,324.6406 C921.2656,324.2344 921.5938,323.7813 921.5938,323.3906 C921.5938,322.9375 921.2031,322.5469 920.7344,322.5469 C920.5156,322.5469 920.3125,322.625 920.125,322.8125 C919.6719,323.2969 919.6719,323.2969 919.4844,323.3906 C919.0625,323.6563 918.375,323.7813 917.6094,323.7813 C915.5625,323.7813 914.2656,322.6875 914.2656,320.9844 L914.2656,319.8906 C914.2656,318.1094 915.5156,316.7969 917.25,316.7969 C917.8281,316.7969 918.4375,316.9531 918.9063,317.2031 C919.3906,317.4844 919.5625,317.7031 919.6563,318.1094 C919.7188,318.5156 919.75,318.6406 919.8906,318.7656 C920.0313,318.9063 920.2656,319.0156 920.4844,319.0156 C920.75,319.0156 921.0156,318.875 921.1875,318.6563 C921.2969,318.5 921.3281,318.3125 921.3281,317.8906 L921.3281,316.4688 C921.3281,316.0313 921.3125,315.9063 921.2188,315.75 C921.0625,315.4844 920.7813,315.3438 920.4844,315.3438 C920.1875,315.3438 919.9844,315.4375 919.7656,315.75 L919.5938,315.6719 Z " fill="#000000"/><text fill="#000000" font-family="sans-serif" font-size="14" lengthAdjust="spacing" textLength="155" x="937.75" y="324.8467">InitialGameController</text><line style="stroke:#181818;stroke-width:0.5;" x1="859.5" x2="1138.5" y1="336" y2="336"/><rect fill="none" height="6" style="stroke:#C82930;stroke-width:1.0;" width="6" x="866.5" y="346.6484"/><text fill="#000000" font-family="sans-serif" font-size="14" lengthAdjust="spacing" textLength="95" x="878.5" y="352.9951">game : Game</text><line style="stroke:#181818;stroke-width:0.5;" x1="859.5" x2="1138.5" y1="360.2969" y2="360.2969"/><ellipse cx="869.5" cy="373.9453" fill="#84BE84" rx="3" ry="3" style="stroke:#038048;stroke-width:1.0;"/><text fill="#000000" font-family="sans-serif" font-size="14" lengthAdjust="spacing" textLength="165" x="878.5" y="377.292">selectStartSide() : void</text><ellipse cx="869.5" cy="390.2422" fill="#84BE84" rx="3" ry="3" style="stroke:#038048;stroke-width:1.0;"/><text fill="#000000" font-family="sans-serif" font-size="14" lengthAdjust="spacing" textLength="143" x="878.5" y="393.5889">selectColour() : void</text><ellipse cx="869.5" cy="406.5391" fill="#84BE84" rx="3" ry="3" style="stroke:#038048;stroke-width:1.0;"/><text fill="#000000" font-family="sans-serif" font-size="14" lengthAdjust="spacing" textLength="222" x="878.5" y="409.8857">drawCommonObjective() : void</text><ellipse cx="869.5" cy="422.8359" fill="#84BE84" rx="3" ry="3" style="stroke:#038048;stroke-width:1.0;"/><text fill="#000000" font-family="sans-serif" font-size="14" lengthAdjust="spacing" textLength="255" x="878.5" y="426.1826">chooseSecretObjectiveCard() : void</text><ellipse cx="869.5" cy="439.1328" fill="#84BE84" rx="3" ry="3" style="stroke:#038048;stroke-width:1.0;"/><text fill="#000000" font-family="sans-serif" font-size="14" lengthAdjust="spacing" textLength="159" x="878.5" y="442.4795">PickFirstPlayer() : void</text></g><path d="M8.5,112 L47.5,112 A3.75,3.75 0 0 1 50,114.5 L57,134.2969 L61.5,134.2969 A2.5,2.5 0 0 1 64,136.7969 L64,162.0938 A2.5,2.5 0 0 1 61.5,164.5938 L8.5,164.5938 A2.5,2.5 0 0 1 6,162.0938 L6,114.5 A2.5,2.5 0 0 1 8.5,112 " fill="#F1F1F1" style="stroke:#181818;stroke-width:0.5;"/><line style="stroke:#181818;stroke-width:0.5;" x1="6" x2="57" y1="134.2969" y2="134.2969"/><text fill="#000000" font-family="sans-serif" font-size="14" font-weight="bold" lengthAdjust="spacing" textLength="38" x="10" y="126.9951">View</text><!--reverse link Card to ObjectiveCard--><g id="link_Card_ObjectiveCard"><path d="M346.3572,882.9216 C316.5622,918.7996 296.348,943.14 277.898,965.357 " fill="none" id="Card-backto-ObjectiveCard" style="stroke:#181818;stroke-width:1.0;"/><polygon fill="none" points="357.857,869.074,341.7414,879.0883,350.9731,886.7548,357.857,869.074" style="stroke:#181818;stroke-width:1.0;"/></g><!--reverse link Card to AngledCard--><g id="link_Card_AngledCard"><path d="M465.1175,886.1962 C471.7015,906.4992 472.974,910.418 478.964,928.887 " fill="none" id="Card-backto-AngledCard" style="stroke:#181818;stroke-width:1.0;"/><polygon fill="none" points="459.565,869.074,459.4101,888.047,470.8249,884.3454,459.565,869.074" style="stroke:#181818;stroke-width:1.0;"/></g><!--reverse link AngledCard to GoldCard--><g id="link_AngledCard_GoldCard"><path d="M378.3591,1050.5744 C341.6871,1070.3794 316.987,1083.72 283.298,1101.914 " fill="none" id="AngledCard-backto-GoldCard" style="stroke:#181818;stroke-width:1.0;"/><polygon fill="none" points="394.197,1042.021,375.508,1045.2951,381.2102,1055.8537,394.197,1042.021" style="stroke:#181818;stroke-width:1.0;"/></g><!--reverse link AngledCard to InitialCard--><g id="link_AngledCard_InitialCard"><path d="M497,1060.021 C497,1079.826 497,1083.72 497,1101.914 " fill="none" id="AngledCard-backto-InitialCard" style="stroke:#181818;stroke-width:1.0;"/><polygon fill="none" points="497,1042.021,491,1060.021,503,1060.021,497,1042.021" style="stroke:#181818;stroke-width:1.0;"/></g><!--reverse link AngledCard to ResourceCard--><g id="link_AngledCard_ResourceCard"><path d="M597.7113,1051.815 C641.1093,1079.959 675.905,1102.526 706.698,1122.4964 " fill="none" id="AngledCard-backto-ResourceCard" style="stroke:#181818;stroke-width:1.0;"/><polygon fill="none" points="582.609,1042.021,594.4466,1056.849,600.9759,1046.7809,582.609,1042.021" style="stroke:#181818;stroke-width:1.0;"/></g><!--link Game to InitialGameController--><g id="link_Game_InitialGameController"><path codeLine="156" d="M801.66,226.892 C835.183,252.221 871.394,279.582 903.533,303.866 " fill="none" id="Game-InitialGameController" style="stroke:#181818;stroke-width:1.0;"/></g><!--link Game to GameController--><g id="link_Game_GameController"><path codeLine="157" d="M801.556,149.96 C966.977,166.45 1261.64,201.98 1355,253 C1374.77,263.802 1392.89,279.44 1408.53,295.965 " fill="none" id="Game-GameController" style="stroke:#181818;stroke-width:1.0;"/></g><!--link Game to GameHandler--><g id="link_Game_GameHandler"><path codeLine="158" d="M801.58,146.49 C902.248,157.21 1048.65,184.35 1157,253 C1183.51,269.799 1206.11,296.176 1223,320.204 " fill="none" id="Game-GameHandler" style="stroke:#181818;stroke-width:1.0;"/></g><!--link Game to PlayerController--><g id="link_Game_PlayerController"><path codeLine="159" d="M801.666,143.78 C1011.99,153.26 1447.51,181.16 1579,253 C1604.54,266.955 1626.39,290.013 1643.31,312.416 " fill="none" id="Game-PlayerController" style="stroke:#181818;stroke-width:1.0;"/></g><!--link Game to Player--><g id="link_Game_Player"><path codeLine="160" d="M582.378,236.07 C576.471,241.77 570.644,247.443 565,253 C542.982,274.681 519.214,299.046 498.751,320.336 " fill="none" id="Game-Player" style="stroke:#181818;stroke-width:1.0;"/><text fill="#000000" font-family="sans-serif" font-size="13" lengthAdjust="spacing" textLength="8" x="566.4745" y="255.8699">1</text><text fill="#000000" font-family="sans-serif" font-size="13" lengthAdjust="spacing" textLength="28" x="475.4738" y="309.5796">1...4</text></g><!--link Game to Deck--><g id="link_Game_Deck"><path codeLine="161" d="M687.633,236.035 C688.227,271.159 688.866,308.93 689.33,336.372 " fill="none" id="Game-Deck" style="stroke:#181818;stroke-width:1.0;"/></g><!--link Deck to Card--><g id="link_Deck_Card"><path codeLine="162" d="M697.675,417.72 C705.679,470.549 712.1,564.937 672,631 C638.879,685.565 577.249,722.877 524.606,746.389 " fill="none" id="Deck-Card" style="stroke:#181818;stroke-width:1.0;"/></g><!--link Player to Structure--><g id="link_Player_Structure"><path codeLine="163" d="M421.756,433.761 C404.189,474.165 381.484,526.386 369.415,554.145 " fill="none" id="Player-Structure" style="stroke:#181818;stroke-width:1.0;"/></g><!--link Player to Hand--><g id="link_Player_Hand"><path codeLine="164" d="M475.663,433.761 C489.652,460.057 506.304,491.359 520.298,517.665 " fill="none" id="Player-Hand" style="stroke:#181818;stroke-width:1.0;"/></g><!--link Structure to Card--><g id="link_Structure_Card"><path codeLine="165" d="M367.585,594.645 C375.209,616.808 388.3,654.865 400.615,690.667 " fill="none" id="Structure-Card" style="stroke:#181818;stroke-width:1.0;"/></g><!--SRC=[bLTBRnit4Bxlho1ysGIDL3YEUn2A2h6Ig0QSoh22NW8NeBaZYJ552YHNgcpultU6kzhblj945rapmtbyC_o6tiWC66nt_iXM4bJcaYJzilYmcB0qIS_7xAFEjs3vapGQc9FR1wCa0oQCCbQIpTinMraG0bWcKRpT6ISBwnrOvhpDlSyjPoCckFL0Hox6R0lUeFsSRuFatPXvj3FeG7jhbCAZABuSaqTWKZkmqi8R_EbuzJD4K9pj9Hp8_BTnhTBW3yO-Jb6UxBXuv6jWMvE1Oiz9ml0Z57UkIE0v2EWpObZkhU97i6w2pdnBWnL88NTS-vOw7R7fqlDCchaqmaJ7H6ujQ5yudR3PucPnzx4-Dxqot6PKD-97k74hJG4lrfTh3-krhFsbOWFYaRbSgLGwp_KJPznQVemZcktMwCN3Dn1Uxg78zElR-yXafxY0R8QHAoqPr66kjVIIgxII_C8oomztu4nk1OIJhrwp2TiRcRMCvaO5rqFw9GWBliglQvREGUFCDQAlmTyQp3IA6hGlSJSBa9lzbE9HOvCdREcjrEi6JWXoeoz9C-1VvTbNhpkdWtvMEo2JmaMPL9GLOH7bb9RDLTJcJAwas4Y-nO6bbcPJPaZZkDgZr61pMAvnnBcTHgdB071xGj4TVB9uWoPCRBZzUj_INU4zw5EXgmBROXRkMp1SbzriXYiHA2EIjkMuCg2mW_egTkc_D6YqjHgLW2Jywq5dNLYzt1cM4OhcGO97-q0d3F3Y4gebsDoRQJrOgKOBQe2L3jdD57o3Y73laKYUdZXrglQOThDxhzUgk4j3gHKGpupL9refxrkLHGO2UHX3xNcO3QJ635OyLpvmd0X76UMwi-2GJW8L1k594BI2g7ED9RvXrzclH1_ujmq5MS_JLaRB8z4vPhIy_do5mzjcWQf3PUgd5ZMJhwnAT-6sD1ns83inH0LOX64Ccotf9ahnyhxLyNzOnh6Q7P9-rDPM1uDbrCHcyYTMQwH-sPDtoOe_ahgWdjYxRW4NxGAYz5kODbt4oLtq91TpSszs3MlairpWOeQM_0Ejb-UUVLDWc4aaH2cGe72oy3iUgJLsbOvFs0skfjyfw1yzpUmrQUJm9zTDC5rpOtHuZxOH7Ih6yw8zmfs5qyTa9n-d8QyWVgaV4D7hfF6Ac2c9lPh5sZgxy3gPiB_nAmhfDkRmNYbpmEuOhIapetjNgdGtUALLl-hpyKjkTU-c1NtiaslZvQgbwLcY0yMiwRqq2S-co2V2opsSDc4tfYjsPJwWjFMYxQg_uNQOTtGlxKVSJ-LBhv2X5qhFGwDMuhlfE7HGR8nnS8lFNshbiCKIcNvOs_NUAPMczCVgn5f8qbiANc0xh4No-1_GIoxyQUmTA1ps9KKVGg8m6PwOqBxc8_SxS3Sl_r3tRd44FqdhVDyK1nAeM81kCjt_84p2Vn2ZKJyUbVOxuhATbQnz_mh5sVaPAS_En-FnkxFIg3f3d9e4wiOVL69IFeNnPyNqaOnY9lKAA0_z1m00]--></g></svg>