<?xml version="1.0" encoding="us-ascii" standalone="no"?><svg xmlns="http://www.w3.org/2000/svg" xmlns:xlink="http://www.w3.org/1999/xlink" contentStyleType="text/css" height="1091px" preserveAspectRatio="none" style="width:961px;height:1091px;background:#FFFFFF;" version="1.1" viewBox="0 0 961 1091" width="961px" zoomAndPan="magnify"><defs/><g><!--cluster Model--><g id="cluster_Model"><path d="M219,6 L268,6 A3.75,3.75 0 0 1 270.5,8.5 L277.5,28.2969 L952,28.2969 A2.5,2.5 0 0 1 954.5,30.7969 L954.5,1081.5 A2.5,2.5 0 0 1 952,1084 L219,1084 A2.5,2.5 0 0 1 216.5,1081.5 L216.5,8.5 A2.5,2.5 0 0 1 219,6 " fill="none" style="stroke:#000000;stroke-width:1.5;"/><line style="stroke:#000000;stroke-width:1.5;" x1="216.5" x2="277.5" y1="28.2969" y2="28.2969"/><text fill="#000000" font-family="sans-serif" font-size="14" font-weight="bold" lengthAdjust="spacing" textLength="48" x="220.5" y="20.9951">Model</text></g><!--class Game--><g id="elem_Game"><rect codeLine="12" fill="#F1F1F1" height="129.4844" id="Game" rx="2.5" ry="2.5" style="stroke:#181818;stroke-width:0.5;" width="213" x="441" y="41"/><ellipse cx="522.25" cy="57" fill="#ADD1B2" rx="11" ry="11" style="stroke:#181818;stroke-width:1.0;"/><path d="M524.5938,52.6719 C523.6563,52.2344 523.0625,52.0938 522.1875,52.0938 C519.5625,52.0938 517.5625,54.1719 517.5625,56.8906 L517.5625,58.0156 C517.5625,60.5938 519.6719,62.4844 522.5625,62.4844 C523.7813,62.4844 524.9375,62.1875 525.6875,61.6406 C526.2656,61.2344 526.5938,60.7813 526.5938,60.3906 C526.5938,59.9375 526.2031,59.5469 525.7344,59.5469 C525.5156,59.5469 525.3125,59.625 525.125,59.8125 C524.6719,60.2969 524.6719,60.2969 524.4844,60.3906 C524.0625,60.6563 523.375,60.7813 522.6094,60.7813 C520.5625,60.7813 519.2656,59.6875 519.2656,57.9844 L519.2656,56.8906 C519.2656,55.1094 520.5156,53.7969 522.25,53.7969 C522.8281,53.7969 523.4375,53.9531 523.9063,54.2031 C524.3906,54.4844 524.5625,54.7031 524.6563,55.1094 C524.7188,55.5156 524.75,55.6406 524.8906,55.7656 C525.0313,55.9063 525.2656,56.0156 525.4844,56.0156 C525.75,56.0156 526.0156,55.875 526.1875,55.6563 C526.2969,55.5 526.3281,55.3125 526.3281,54.8906 L526.3281,53.4688 C526.3281,53.0313 526.3125,52.9063 526.2188,52.75 C526.0625,52.4844 525.7813,52.3438 525.4844,52.3438 C525.1875,52.3438 524.9844,52.4375 524.7656,52.75 L524.5938,52.6719 Z " fill="#000000"/><text fill="#000000" font-family="sans-serif" font-size="14" lengthAdjust="spacing" textLength="42" x="542.75" y="61.8467">Game</text><line style="stroke:#181818;stroke-width:0.5;" x1="442" x2="653" y1="73" y2="73"/><rect fill="none" height="6" style="stroke:#C82930;stroke-width:1.0;" width="6" x="449" y="83.6484"/><text fill="#000000" font-family="sans-serif" font-size="14" lengthAdjust="spacing" textLength="111" x="461" y="89.9951">numPlayers: int</text><rect fill="none" height="6" style="stroke:#C82930;stroke-width:1.0;" width="6" x="449" y="99.9453"/><text fill="#000000" font-family="sans-serif" font-size="14" lengthAdjust="spacing" textLength="147" x="461" y="106.292">numParticipants: int</text><rect fill="none" height="6" style="stroke:#C82930;stroke-width:1.0;" width="6" x="449" y="116.2422"/><text fill="#000000" font-family="sans-serif" font-size="14" lengthAdjust="spacing" textLength="165" x="461" y="122.5889">currentPlayer: COLORE</text><rect fill="none" height="6" style="stroke:#C82930;stroke-width:1.0;" width="6" x="449" y="132.5391"/><text fill="#000000" font-family="sans-serif" font-size="14" lengthAdjust="spacing" textLength="187" x="461" y="138.8857">commonObjectives: int[2]</text><rect fill="none" height="6" style="stroke:#C82930;stroke-width:1.0;" width="6" x="449" y="148.8359"/><text fill="#000000" font-family="sans-serif" font-size="14" lengthAdjust="spacing" textLength="153" x="461" y="155.1826">placedCards: int[2][2]</text><line style="stroke:#181818;stroke-width:0.5;" x1="442" x2="653" y1="162.4844" y2="162.4844"/></g><!--class Player--><g id="elem_Player"><rect codeLine="23" fill="#F1F1F1" height="113.1875" id="Player" rx="2.5" ry="2.5" style="stroke:#181818;stroke-width:0.5;" width="202" x="324.5" y="230"/><ellipse cx="399.25" cy="246" fill="#ADD1B2" rx="11" ry="11" style="stroke:#181818;stroke-width:1.0;"/><path d="M401.5938,241.6719 C400.6563,241.2344 400.0625,241.0938 399.1875,241.0938 C396.5625,241.0938 394.5625,243.1719 394.5625,245.8906 L394.5625,247.0156 C394.5625,249.5938 396.6719,251.4844 399.5625,251.4844 C400.7813,251.4844 401.9375,251.1875 402.6875,250.6406 C403.2656,250.2344 403.5938,249.7813 403.5938,249.3906 C403.5938,248.9375 403.2031,248.5469 402.7344,248.5469 C402.5156,248.5469 402.3125,248.625 402.125,248.8125 C401.6719,249.2969 401.6719,249.2969 401.4844,249.3906 C401.0625,249.6563 400.375,249.7813 399.6094,249.7813 C397.5625,249.7813 396.2656,248.6875 396.2656,246.9844 L396.2656,245.8906 C396.2656,244.1094 397.5156,242.7969 399.25,242.7969 C399.8281,242.7969 400.4375,242.9531 400.9063,243.2031 C401.3906,243.4844 401.5625,243.7031 401.6563,244.1094 C401.7188,244.5156 401.75,244.6406 401.8906,244.7656 C402.0313,244.9063 402.2656,245.0156 402.4844,245.0156 C402.75,245.0156 403.0156,244.875 403.1875,244.6563 C403.2969,244.5 403.3281,244.3125 403.3281,243.8906 L403.3281,242.4688 C403.3281,242.0313 403.3125,241.9063 403.2188,241.75 C403.0625,241.4844 402.7813,241.3438 402.4844,241.3438 C402.1875,241.3438 401.9844,241.4375 401.7656,241.75 L401.5938,241.6719 Z " fill="#000000"/><text fill="#000000" font-family="sans-serif" font-size="14" lengthAdjust="spacing" textLength="44" x="419.75" y="250.8467">Player</text><line style="stroke:#181818;stroke-width:0.5;" x1="325.5" x2="525.5" y1="262" y2="262"/><rect fill="none" height="6" style="stroke:#C82930;stroke-width:1.0;" width="6" x="332.5" y="272.6484"/><text fill="#000000" font-family="sans-serif" font-size="14" lengthAdjust="spacing" textLength="123" x="344.5" y="278.9951">nickname: String</text><rect fill="none" height="6" style="stroke:#C82930;stroke-width:1.0;" width="6" x="332.5" y="288.9453"/><text fill="#000000" font-family="sans-serif" font-size="14" lengthAdjust="spacing" textLength="139" x="344.5" y="295.292">colorPlayer: COLOR</text><line style="stroke:#181818;stroke-width:0.5;" x1="325.5" x2="525.5" y1="302.5938" y2="302.5938"/><ellipse cx="335.5" cy="316.2422" fill="#84BE84" rx="3" ry="3" style="stroke:#038048;stroke-width:1.0;"/><text fill="#000000" font-family="sans-serif" font-size="14" lengthAdjust="spacing" textLength="159" x="344.5" y="319.5889">getNickname(): String</text><ellipse cx="335.5" cy="332.5391" fill="#84BE84" rx="3" ry="3" style="stroke:#038048;stroke-width:1.0;"/><text fill="#000000" font-family="sans-serif" font-size="14" lengthAdjust="spacing" textLength="176" x="344.5" y="335.8857">getColorPlayer(): COLOR</text></g><!--class Card--><g id="elem_Card"><rect codeLine="32" fill="#F1F1F1" height="178.375" id="Card" rx="2.5" ry="2.5" style="stroke:#181818;stroke-width:0.5;" width="187" x="422" y="576"/><ellipse cx="494.75" cy="592" fill="#ADD1B2" rx="11" ry="11" style="stroke:#181818;stroke-width:1.0;"/><path d="M497.0938,587.6719 C496.1563,587.2344 495.5625,587.0938 494.6875,587.0938 C492.0625,587.0938 490.0625,589.1719 490.0625,591.8906 L490.0625,593.0156 C490.0625,595.5938 492.1719,597.4844 495.0625,597.4844 C496.2813,597.4844 497.4375,597.1875 498.1875,596.6406 C498.7656,596.2344 499.0938,595.7813 499.0938,595.3906 C499.0938,594.9375 498.7031,594.5469 498.2344,594.5469 C498.0156,594.5469 497.8125,594.625 497.625,594.8125 C497.1719,595.2969 497.1719,595.2969 496.9844,595.3906 C496.5625,595.6563 495.875,595.7813 495.1094,595.7813 C493.0625,595.7813 491.7656,594.6875 491.7656,592.9844 L491.7656,591.8906 C491.7656,590.1094 493.0156,588.7969 494.75,588.7969 C495.3281,588.7969 495.9375,588.9531 496.4063,589.2031 C496.8906,589.4844 497.0625,589.7031 497.1563,590.1094 C497.2188,590.5156 497.25,590.6406 497.3906,590.7656 C497.5313,590.9063 497.7656,591.0156 497.9844,591.0156 C498.25,591.0156 498.5156,590.875 498.6875,590.6563 C498.7969,590.5 498.8281,590.3125 498.8281,589.8906 L498.8281,588.4688 C498.8281,588.0313 498.8125,587.9063 498.7188,587.75 C498.5625,587.4844 498.2813,587.3438 497.9844,587.3438 C497.6875,587.3438 497.4844,587.4375 497.2656,587.75 L497.0938,587.6719 Z " fill="#000000"/><text fill="#000000" font-family="sans-serif" font-size="14" lengthAdjust="spacing" textLength="33" x="515.25" y="596.8467">Card</text><line style="stroke:#181818;stroke-width:0.5;" x1="423" x2="608" y1="608" y2="608"/><rect fill="none" height="6" style="stroke:#C82930;stroke-width:1.0;" width="6" x="430" y="618.6484"/><text fill="#000000" font-family="sans-serif" font-size="14" lengthAdjust="spacing" textLength="75" x="442" y="624.9951">idCard: int</text><rect fill="none" height="6" style="stroke:#C82930;stroke-width:1.0;" width="6" x="430" y="634.9453"/><text fill="#000000" font-family="sans-serif" font-size="14" lengthAdjust="spacing" textLength="124" x="442" y="641.292">codeFront: char[]</text><rect fill="none" height="6" style="stroke:#C82930;stroke-width:1.0;" width="6" x="430" y="651.2422"/><text fill="#000000" font-family="sans-serif" font-size="14" lengthAdjust="spacing" textLength="120" x="442" y="657.5889">codeBack: char[]</text><rect fill="none" height="6" style="stroke:#C82930;stroke-width:1.0;" width="6" x="430" y="667.5391"/><text fill="#000000" font-family="sans-serif" font-size="14" lengthAdjust="spacing" textLength="115" x="442" y="673.8857">cardPoints: int[]</text><line style="stroke:#181818;stroke-width:0.5;" x1="423" x2="608" y1="681.1875" y2="681.1875"/><ellipse cx="433" cy="694.8359" fill="#84BE84" rx="3" ry="3" style="stroke:#038048;stroke-width:1.0;"/><text fill="#000000" font-family="sans-serif" font-size="14" lengthAdjust="spacing" textLength="110" x="442" y="698.1826">getIdCard(): int</text><ellipse cx="433" cy="711.1328" fill="#84BE84" rx="3" ry="3" style="stroke:#038048;stroke-width:1.0;"/><text fill="#000000" font-family="sans-serif" font-size="14" lengthAdjust="spacing" textLength="161" x="442" y="714.4795">getCodeFront(): char[]</text><ellipse cx="433" cy="727.4297" fill="#84BE84" rx="3" ry="3" style="stroke:#038048;stroke-width:1.0;"/><text fill="#000000" font-family="sans-serif" font-size="14" lengthAdjust="spacing" textLength="157" x="442" y="730.7764">getCodeBack(): char[]</text><ellipse cx="433" cy="743.7266" fill="#84BE84" rx="3" ry="3" style="stroke:#038048;stroke-width:1.0;"/><text fill="#000000" font-family="sans-serif" font-size="14" lengthAdjust="spacing" textLength="152" x="442" y="747.0732">getCardPoints(): int[]</text></g><!--class ObjectiveCard--><g id="elem_ObjectiveCard"><rect codeLine="45" fill="#F1F1F1" height="40" id="ObjectiveCard" rx="2.5" ry="2.5" style="stroke:#181818;stroke-width:0.5;" width="135" x="331" y="850.5"/><ellipse cx="346" cy="866.5" fill="#ADD1B2" rx="11" ry="11" style="stroke:#181818;stroke-width:1.0;"/><path d="M348.3438,862.1719 C347.4063,861.7344 346.8125,861.5938 345.9375,861.5938 C343.3125,861.5938 341.3125,863.6719 341.3125,866.3906 L341.3125,867.5156 C341.3125,870.0938 343.4219,871.9844 346.3125,871.9844 C347.5313,871.9844 348.6875,871.6875 349.4375,871.1406 C350.0156,870.7344 350.3438,870.2813 350.3438,869.8906 C350.3438,869.4375 349.9531,869.0469 349.4844,869.0469 C349.2656,869.0469 349.0625,869.125 348.875,869.3125 C348.4219,869.7969 348.4219,869.7969 348.2344,869.8906 C347.8125,870.1563 347.125,870.2813 346.3594,870.2813 C344.3125,870.2813 343.0156,869.1875 343.0156,867.4844 L343.0156,866.3906 C343.0156,864.6094 344.2656,863.2969 346,863.2969 C346.5781,863.2969 347.1875,863.4531 347.6563,863.7031 C348.1406,863.9844 348.3125,864.2031 348.4063,864.6094 C348.4688,865.0156 348.5,865.1406 348.6406,865.2656 C348.7813,865.4063 349.0156,865.5156 349.2344,865.5156 C349.5,865.5156 349.7656,865.375 349.9375,865.1563 C350.0469,865 350.0781,864.8125 350.0781,864.3906 L350.0781,862.9688 C350.0781,862.5313 350.0625,862.4063 349.9688,862.25 C349.8125,861.9844 349.5313,861.8438 349.2344,861.8438 C348.9375,861.8438 348.7344,861.9375 348.5156,862.25 L348.3438,862.1719 Z " fill="#000000"/><text fill="#000000" font-family="sans-serif" font-size="14" lengthAdjust="spacing" textLength="103" x="360" y="871.3467">ObjectiveCard</text><line style="stroke:#181818;stroke-width:0.5;" x1="332" x2="465" y1="882.5" y2="882.5"/></g><!--class AngledCard--><g id="elem_AngledCard"><rect codeLine="50" fill="#F1F1F1" height="113.1875" id="AngledCard" rx="2.5" ry="2.5" style="stroke:#181818;stroke-width:0.5;" width="265" x="501" y="814"/><ellipse cx="587.75" cy="830" fill="#ADD1B2" rx="11" ry="11" style="stroke:#181818;stroke-width:1.0;"/><path d="M590.0938,825.6719 C589.1563,825.2344 588.5625,825.0938 587.6875,825.0938 C585.0625,825.0938 583.0625,827.1719 583.0625,829.8906 L583.0625,831.0156 C583.0625,833.5938 585.1719,835.4844 588.0625,835.4844 C589.2813,835.4844 590.4375,835.1875 591.1875,834.6406 C591.7656,834.2344 592.0938,833.7813 592.0938,833.3906 C592.0938,832.9375 591.7031,832.5469 591.2344,832.5469 C591.0156,832.5469 590.8125,832.625 590.625,832.8125 C590.1719,833.2969 590.1719,833.2969 589.9844,833.3906 C589.5625,833.6563 588.875,833.7813 588.1094,833.7813 C586.0625,833.7813 584.7656,832.6875 584.7656,830.9844 L584.7656,829.8906 C584.7656,828.1094 586.0156,826.7969 587.75,826.7969 C588.3281,826.7969 588.9375,826.9531 589.4063,827.2031 C589.8906,827.4844 590.0625,827.7031 590.1563,828.1094 C590.2188,828.5156 590.25,828.6406 590.3906,828.7656 C590.5313,828.9063 590.7656,829.0156 590.9844,829.0156 C591.25,829.0156 591.5156,828.875 591.6875,828.6563 C591.7969,828.5 591.8281,828.3125 591.8281,827.8906 L591.8281,826.4688 C591.8281,826.0313 591.8125,825.9063 591.7188,825.75 C591.5625,825.4844 591.2813,825.3438 590.9844,825.3438 C590.6875,825.3438 590.4844,825.4375 590.2656,825.75 L590.0938,825.6719 Z " fill="#000000"/><text fill="#000000" font-family="sans-serif" font-size="14" lengthAdjust="spacing" textLength="83" x="608.25" y="834.8467">AngledCard</text><line style="stroke:#181818;stroke-width:0.5;" x1="502" x2="765" y1="846" y2="846"/><rect fill="none" height="6" style="stroke:#C82930;stroke-width:1.0;" width="6" x="509" y="856.6484"/><text fill="#000000" font-family="sans-serif" font-size="14" lengthAdjust="spacing" textLength="152" x="521" y="862.9951">cardCorners: int[2][2]</text><rect fill="none" height="6" style="stroke:#C82930;stroke-width:1.0;" width="6" x="509" y="872.9453"/><text fill="#000000" font-family="sans-serif" font-size="14" lengthAdjust="spacing" textLength="202" x="521" y="879.292">cardSymbols: SIMBOLO[2][2]</text><line style="stroke:#181818;stroke-width:0.5;" x1="502" x2="765" y1="886.5938" y2="886.5938"/><ellipse cx="512" cy="900.2422" fill="#84BE84" rx="3" ry="3" style="stroke:#038048;stroke-width:1.0;"/><text fill="#000000" font-family="sans-serif" font-size="14" lengthAdjust="spacing" textLength="189" x="521" y="903.5889">getCardCorners(): int[2][2]</text><ellipse cx="512" cy="916.5391" fill="#84BE84" rx="3" ry="3" style="stroke:#038048;stroke-width:1.0;"/><text fill="#000000" font-family="sans-serif" font-size="14" lengthAdjust="spacing" textLength="239" x="521" y="919.8857">getCardSymbols(): SIMBOLO[2][2]</text></g><!--class GoldCard--><g id="elem_GoldCard"><rect codeLine="59" fill="#F1F1F1" height="80.5938" id="GoldCard" rx="2.5" ry="2.5" style="stroke:#181818;stroke-width:0.5;" width="227" x="233" y="987"/><ellipse cx="309.25" cy="1003" fill="#ADD1B2" rx="11" ry="11" style="stroke:#181818;stroke-width:1.0;"/><path d="M311.5938,998.6719 C310.6563,998.2344 310.0625,998.0938 309.1875,998.0938 C306.5625,998.0938 304.5625,1000.1719 304.5625,1002.8906 L304.5625,1004.0156 C304.5625,1006.5938 306.6719,1008.4844 309.5625,1008.4844 C310.7813,1008.4844 311.9375,1008.1875 312.6875,1007.6406 C313.2656,1007.2344 313.5938,1006.7813 313.5938,1006.3906 C313.5938,1005.9375 313.2031,1005.5469 312.7344,1005.5469 C312.5156,1005.5469 312.3125,1005.625 312.125,1005.8125 C311.6719,1006.2969 311.6719,1006.2969 311.4844,1006.3906 C311.0625,1006.6563 310.375,1006.7813 309.6094,1006.7813 C307.5625,1006.7813 306.2656,1005.6875 306.2656,1003.9844 L306.2656,1002.8906 C306.2656,1001.1094 307.5156,999.7969 309.25,999.7969 C309.8281,999.7969 310.4375,999.9531 310.9063,1000.2031 C311.3906,1000.4844 311.5625,1000.7031 311.6563,1001.1094 C311.7188,1001.5156 311.75,1001.6406 311.8906,1001.7656 C312.0313,1001.9063 312.2656,1002.0156 312.4844,1002.0156 C312.75,1002.0156 313.0156,1001.875 313.1875,1001.6563 C313.2969,1001.5 313.3281,1001.3125 313.3281,1000.8906 L313.3281,999.4688 C313.3281,999.0313 313.3125,998.9063 313.2188,998.75 C313.0625,998.4844 312.7813,998.3438 312.4844,998.3438 C312.1875,998.3438 311.9844,998.4375 311.7656,998.75 L311.5938,998.6719 Z " fill="#000000"/><text fill="#000000" font-family="sans-serif" font-size="14" lengthAdjust="spacing" textLength="66" x="329.75" y="1007.8467">GoldCard</text><line style="stroke:#181818;stroke-width:0.5;" x1="234" x2="459" y1="1019" y2="1019"/><rect fill="none" height="6" style="stroke:#C82930;stroke-width:1.0;" width="6" x="241" y="1029.6484"/><text fill="#000000" font-family="sans-serif" font-size="14" lengthAdjust="spacing" textLength="162" x="253" y="1035.9951">resources: SIMBOLO[5]</text><line style="stroke:#181818;stroke-width:0.5;" x1="234" x2="459" y1="1043.2969" y2="1043.2969"/><ellipse cx="244" cy="1056.9453" fill="#84BE84" rx="3" ry="3" style="stroke:#038048;stroke-width:1.0;"/><text fill="#000000" font-family="sans-serif" font-size="14" lengthAdjust="spacing" textLength="201" x="253" y="1060.292">getResources(): SIMBOLO[5]</text></g><!--class InitialCard--><g id="elem_InitialCard"><rect codeLine="67" fill="#F1F1F1" height="80.5938" id="InitialCard" rx="2.5" ry="2.5" style="stroke:#181818;stroke-width:0.5;" width="277" x="495" y="987"/><ellipse cx="592.75" cy="1003" fill="#ADD1B2" rx="11" ry="11" style="stroke:#181818;stroke-width:1.0;"/><path d="M595.0938,998.6719 C594.1563,998.2344 593.5625,998.0938 592.6875,998.0938 C590.0625,998.0938 588.0625,1000.1719 588.0625,1002.8906 L588.0625,1004.0156 C588.0625,1006.5938 590.1719,1008.4844 593.0625,1008.4844 C594.2813,1008.4844 595.4375,1008.1875 596.1875,1007.6406 C596.7656,1007.2344 597.0938,1006.7813 597.0938,1006.3906 C597.0938,1005.9375 596.7031,1005.5469 596.2344,1005.5469 C596.0156,1005.5469 595.8125,1005.625 595.625,1005.8125 C595.1719,1006.2969 595.1719,1006.2969 594.9844,1006.3906 C594.5625,1006.6563 593.875,1006.7813 593.1094,1006.7813 C591.0625,1006.7813 589.7656,1005.6875 589.7656,1003.9844 L589.7656,1002.8906 C589.7656,1001.1094 591.0156,999.7969 592.75,999.7969 C593.3281,999.7969 593.9375,999.9531 594.4063,1000.2031 C594.8906,1000.4844 595.0625,1000.7031 595.1563,1001.1094 C595.2188,1001.5156 595.25,1001.6406 595.3906,1001.7656 C595.5313,1001.9063 595.7656,1002.0156 595.9844,1002.0156 C596.25,1002.0156 596.5156,1001.875 596.6875,1001.6563 C596.7969,1001.5 596.8281,1001.3125 596.8281,1000.8906 L596.8281,999.4688 C596.8281,999.0313 596.8125,998.9063 596.7188,998.75 C596.5625,998.4844 596.2813,998.3438 595.9844,998.3438 C595.6875,998.3438 595.4844,998.4375 595.2656,998.75 L595.0938,998.6719 Z " fill="#000000"/><text fill="#000000" font-family="sans-serif" font-size="14" lengthAdjust="spacing" textLength="73" x="613.25" y="1007.8467">InitialCard</text><line style="stroke:#181818;stroke-width:0.5;" x1="496" x2="771" y1="1019" y2="1019"/><rect fill="none" height="6" style="stroke:#C82930;stroke-width:1.0;" width="6" x="503" y="1029.6484"/><text fill="#000000" font-family="sans-serif" font-size="14" lengthAdjust="spacing" textLength="214" x="515" y="1035.9951">centerResources: SIMBOLO[3]</text><line style="stroke:#181818;stroke-width:0.5;" x1="496" x2="771" y1="1043.2969" y2="1043.2969"/><ellipse cx="506" cy="1056.9453" fill="#84BE84" rx="3" ry="3" style="stroke:#038048;stroke-width:1.0;"/><text fill="#000000" font-family="sans-serif" font-size="14" lengthAdjust="spacing" textLength="251" x="515" y="1060.292">getCenterResources(): SIMBOLO[3]</text></g><!--class ResourceCard--><g id="elem_ResourceCard"><rect codeLine="74" fill="#F1F1F1" height="40" id="ResourceCard" rx="2.5" ry="2.5" style="stroke:#181818;stroke-width:0.5;" width="131" x="807" y="1007.5"/><ellipse cx="822" cy="1023.5" fill="#ADD1B2" rx="11" ry="11" style="stroke:#181818;stroke-width:1.0;"/><path d="M824.3438,1019.1719 C823.4063,1018.7344 822.8125,1018.5938 821.9375,1018.5938 C819.3125,1018.5938 817.3125,1020.6719 817.3125,1023.3906 L817.3125,1024.5156 C817.3125,1027.0938 819.4219,1028.9844 822.3125,1028.9844 C823.5313,1028.9844 824.6875,1028.6875 825.4375,1028.1406 C826.0156,1027.7344 826.3438,1027.2813 826.3438,1026.8906 C826.3438,1026.4375 825.9531,1026.0469 825.4844,1026.0469 C825.2656,1026.0469 825.0625,1026.125 824.875,1026.3125 C824.4219,1026.7969 824.4219,1026.7969 824.2344,1026.8906 C823.8125,1027.1563 823.125,1027.2813 822.3594,1027.2813 C820.3125,1027.2813 819.0156,1026.1875 819.0156,1024.4844 L819.0156,1023.3906 C819.0156,1021.6094 820.2656,1020.2969 822,1020.2969 C822.5781,1020.2969 823.1875,1020.4531 823.6563,1020.7031 C824.1406,1020.9844 824.3125,1021.2031 824.4063,1021.6094 C824.4688,1022.0156 824.5,1022.1406 824.6406,1022.2656 C824.7813,1022.4063 825.0156,1022.5156 825.2344,1022.5156 C825.5,1022.5156 825.7656,1022.375 825.9375,1022.1563 C826.0469,1022 826.0781,1021.8125 826.0781,1021.3906 L826.0781,1019.9688 C826.0781,1019.5313 826.0625,1019.4063 825.9688,1019.25 C825.8125,1018.9844 825.5313,1018.8438 825.2344,1018.8438 C824.9375,1018.8438 824.7344,1018.9375 824.5156,1019.25 L824.3438,1019.1719 Z " fill="#000000"/><text fill="#000000" font-family="sans-serif" font-size="14" lengthAdjust="spacing" textLength="99" x="836" y="1028.3467">ResourceCard</text><line style="stroke:#181818;stroke-width:0.5;" x1="808" x2="937" y1="1039.5" y2="1039.5"/></g><!--class Structure--><g id="elem_Structure"><rect codeLine="76" fill="#F1F1F1" height="40" id="Structure" rx="2.5" ry="2.5" style="stroke:#181818;stroke-width:0.5;" width="100" x="290.5" y="439.5"/><ellipse cx="305.5" cy="455.5" fill="#ADD1B2" rx="11" ry="11" style="stroke:#181818;stroke-width:1.0;"/><path d="M307.8438,451.1719 C306.9063,450.7344 306.3125,450.5938 305.4375,450.5938 C302.8125,450.5938 300.8125,452.6719 300.8125,455.3906 L300.8125,456.5156 C300.8125,459.0938 302.9219,460.9844 305.8125,460.9844 C307.0313,460.9844 308.1875,460.6875 308.9375,460.1406 C309.5156,459.7344 309.8438,459.2813 309.8438,458.8906 C309.8438,458.4375 309.4531,458.0469 308.9844,458.0469 C308.7656,458.0469 308.5625,458.125 308.375,458.3125 C307.9219,458.7969 307.9219,458.7969 307.7344,458.8906 C307.3125,459.1563 306.625,459.2813 305.8594,459.2813 C303.8125,459.2813 302.5156,458.1875 302.5156,456.4844 L302.5156,455.3906 C302.5156,453.6094 303.7656,452.2969 305.5,452.2969 C306.0781,452.2969 306.6875,452.4531 307.1563,452.7031 C307.6406,452.9844 307.8125,453.2031 307.9063,453.6094 C307.9688,454.0156 308,454.1406 308.1406,454.2656 C308.2813,454.4063 308.5156,454.5156 308.7344,454.5156 C309,454.5156 309.2656,454.375 309.4375,454.1563 C309.5469,454 309.5781,453.8125 309.5781,453.3906 L309.5781,451.9688 C309.5781,451.5313 309.5625,451.4063 309.4688,451.25 C309.3125,450.9844 309.0313,450.8438 308.7344,450.8438 C308.4375,450.8438 308.2344,450.9375 308.0156,451.25 L307.8438,451.1719 Z " fill="#000000"/><text fill="#000000" font-family="sans-serif" font-size="14" lengthAdjust="spacing" textLength="68" x="319.5" y="460.3467">Structure</text><line style="stroke:#181818;stroke-width:0.5;" x1="291.5" x2="389.5" y1="471.5" y2="471.5"/></g><!--class Deck--><g id="elem_Deck"><rect codeLine="78" fill="#F1F1F1" height="80.5938" id="Deck" rx="2.5" ry="2.5" style="stroke:#181818;stroke-width:0.5;" width="215" x="562" y="246"/><ellipse cx="646.75" cy="262" fill="#ADD1B2" rx="11" ry="11" style="stroke:#181818;stroke-width:1.0;"/><path d="M649.0938,257.6719 C648.1563,257.2344 647.5625,257.0938 646.6875,257.0938 C644.0625,257.0938 642.0625,259.1719 642.0625,261.8906 L642.0625,263.0156 C642.0625,265.5938 644.1719,267.4844 647.0625,267.4844 C648.2813,267.4844 649.4375,267.1875 650.1875,266.6406 C650.7656,266.2344 651.0938,265.7813 651.0938,265.3906 C651.0938,264.9375 650.7031,264.5469 650.2344,264.5469 C650.0156,264.5469 649.8125,264.625 649.625,264.8125 C649.1719,265.2969 649.1719,265.2969 648.9844,265.3906 C648.5625,265.6563 647.875,265.7813 647.1094,265.7813 C645.0625,265.7813 643.7656,264.6875 643.7656,262.9844 L643.7656,261.8906 C643.7656,260.1094 645.0156,258.7969 646.75,258.7969 C647.3281,258.7969 647.9375,258.9531 648.4063,259.2031 C648.8906,259.4844 649.0625,259.7031 649.1563,260.1094 C649.2188,260.5156 649.25,260.6406 649.3906,260.7656 C649.5313,260.9063 649.7656,261.0156 649.9844,261.0156 C650.25,261.0156 650.5156,260.875 650.6875,260.6563 C650.7969,260.5 650.8281,260.3125 650.8281,259.8906 L650.8281,258.4688 C650.8281,258.0313 650.8125,257.9063 650.7188,257.75 C650.5625,257.4844 650.2813,257.3438 649.9844,257.3438 C649.6875,257.3438 649.4844,257.4375 649.2656,257.75 L649.0938,257.6719 Z " fill="#000000"/><text fill="#000000" font-family="sans-serif" font-size="14" lengthAdjust="spacing" textLength="37" x="667.25" y="266.8467">Deck</text><line style="stroke:#181818;stroke-width:0.5;" x1="563" x2="776" y1="278" y2="278"/><rect fill="none" height="6" style="stroke:#C82930;stroke-width:1.0;" width="6" x="570" y="288.6484"/><text fill="#000000" font-family="sans-serif" font-size="14" lengthAdjust="spacing" textLength="158" x="582" y="294.9951">goldDeck: List&lt;Card&gt;</text><rect fill="none" height="6" style="stroke:#C82930;stroke-width:1.0;" width="6" x="570" y="304.9453"/><text fill="#000000" font-family="sans-serif" font-size="14" lengthAdjust="spacing" textLength="189" x="582" y="311.292">resourceDeck: List&lt;Card&gt;</text><line style="stroke:#181818;stroke-width:0.5;" x1="563" x2="776" y1="318.5938" y2="318.5938"/></g><!--class Hand--><g id="elem_Hand"><rect codeLine="84" fill="#F1F1F1" height="113.1875" id="Hand" rx="2.5" ry="2.5" style="stroke:#181818;stroke-width:0.5;" width="208" x="425.5" y="403"/><ellipse cx="507.25" cy="419" fill="#ADD1B2" rx="11" ry="11" style="stroke:#181818;stroke-width:1.0;"/><path d="M509.5938,414.6719 C508.6563,414.2344 508.0625,414.0938 507.1875,414.0938 C504.5625,414.0938 502.5625,416.1719 502.5625,418.8906 L502.5625,420.0156 C502.5625,422.5938 504.6719,424.4844 507.5625,424.4844 C508.7813,424.4844 509.9375,424.1875 510.6875,423.6406 C511.2656,423.2344 511.5938,422.7813 511.5938,422.3906 C511.5938,421.9375 511.2031,421.5469 510.7344,421.5469 C510.5156,421.5469 510.3125,421.625 510.125,421.8125 C509.6719,422.2969 509.6719,422.2969 509.4844,422.3906 C509.0625,422.6563 508.375,422.7813 507.6094,422.7813 C505.5625,422.7813 504.2656,421.6875 504.2656,419.9844 L504.2656,418.8906 C504.2656,417.1094 505.5156,415.7969 507.25,415.7969 C507.8281,415.7969 508.4375,415.9531 508.9063,416.2031 C509.3906,416.4844 509.5625,416.7031 509.6563,417.1094 C509.7188,417.5156 509.75,417.6406 509.8906,417.7656 C510.0313,417.9063 510.2656,418.0156 510.4844,418.0156 C510.75,418.0156 511.0156,417.875 511.1875,417.6563 C511.2969,417.5 511.3281,417.3125 511.3281,416.8906 L511.3281,415.4688 C511.3281,415.0313 511.3125,414.9063 511.2188,414.75 C511.0625,414.4844 510.7813,414.3438 510.4844,414.3438 C510.1875,414.3438 509.9844,414.4375 509.7656,414.75 L509.5938,414.6719 Z " fill="#000000"/><text fill="#000000" font-family="sans-serif" font-size="14" lengthAdjust="spacing" textLength="36" x="527.75" y="423.8467">Hand</text><line style="stroke:#181818;stroke-width:0.5;" x1="426.5" x2="632.5" y1="435" y2="435"/><rect fill="none" height="6" style="stroke:#C82930;stroke-width:1.0;" width="6" x="433.5" y="445.6484"/><text fill="#000000" font-family="sans-serif" font-size="14" lengthAdjust="spacing" textLength="145" x="445.5" y="451.9951">secretObjective: int</text><rect fill="none" height="6" style="stroke:#C82930;stroke-width:1.0;" width="6" x="433.5" y="461.9453"/><text fill="#000000" font-family="sans-serif" font-size="14" lengthAdjust="spacing" textLength="122" x="445.5" y="468.292">cardsHand: int[3]</text><line style="stroke:#181818;stroke-width:0.5;" x1="426.5" x2="632.5" y1="475.5938" y2="475.5938"/><ellipse cx="436.5" cy="489.2422" fill="#84BE84" rx="3" ry="3" style="stroke:#038048;stroke-width:1.0;"/><text fill="#000000" font-family="sans-serif" font-size="14" lengthAdjust="spacing" textLength="182" x="445.5" y="492.5889">getSecretObjective(): int</text><ellipse cx="436.5" cy="505.5391" fill="#84BE84" rx="3" ry="3" style="stroke:#038048;stroke-width:1.0;"/><text fill="#000000" font-family="sans-serif" font-size="14" lengthAdjust="spacing" textLength="159" x="445.5" y="508.8857">getCardsHand(): int[3]</text></g><path d="M8.5,79 L90.5,79 A3.75,3.75 0 0 1 93,81.5 L100,101.2969 L104.5,101.2969 A2.5,2.5 0 0 1 107,103.7969 L107,129.0938 A2.5,2.5 0 0 1 104.5,131.5938 L8.5,131.5938 A2.5,2.5 0 0 1 6,129.0938 L6,81.5 A2.5,2.5 0 0 1 8.5,79 " fill="#F1F1F1" style="stroke:#181818;stroke-width:0.5;"/><line style="stroke:#181818;stroke-width:0.5;" x1="6" x2="100" y1="101.2969" y2="101.2969"/><text fill="#000000" font-family="sans-serif" font-size="14" font-weight="bold" lengthAdjust="spacing" textLength="81" x="10" y="93.9951">Controller</text><path d="M145,79 L184,79 A3.75,3.75 0 0 1 186.5,81.5 L193.5,101.2969 L198,101.2969 A2.5,2.5 0 0 1 200.5,103.7969 L200.5,129.0938 A2.5,2.5 0 0 1 198,131.5938 L145,131.5938 A2.5,2.5 0 0 1 142.5,129.0938 L142.5,81.5 A2.5,2.5 0 0 1 145,79 " fill="#F1F1F1" style="stroke:#181818;stroke-width:0.5;"/><line style="stroke:#181818;stroke-width:0.5;" x1="142.5" x2="193.5" y1="101.2969" y2="101.2969"/><text fill="#000000" font-family="sans-serif" font-size="14" font-weight="bold" lengthAdjust="spacing" textLength="38" x="146.5" y="93.9951">View</text><!--reverse link Card to ObjectiveCard--><g id="link_Card_ObjectiveCard"><path d="M455.8911,769.6787 C435.2631,805.5567 422.279,828.14 409.506,850.357 " fill="none" id="Card-backto-ObjectiveCard" style="stroke:#181818;stroke-width:1.0;"/><polygon fill="none" points="464.863,754.074,450.6896,766.688,461.0927,772.6693,464.863,754.074" style="stroke:#181818;stroke-width:1.0;"/></g><!--reverse link Card to AngledCard--><g id="link_Card_AngledCard"><path d="M575.5988,769.6458 C587.3708,789.9488 590.544,795.418 601.253,813.887 " fill="none" id="Card-backto-AngledCard" style="stroke:#181818;stroke-width:1.0;"/><polygon fill="none" points="566.57,754.074,570.4082,772.6554,580.7894,766.6362,566.57,754.074" style="stroke:#181818;stroke-width:1.0;"/></g><!--reverse link AngledCard to GoldCard--><g id="link_AngledCard_GoldCard"><path d="M514.8591,935.5744 C478.1871,955.3794 453.487,968.72 419.798,986.914 " fill="none" id="AngledCard-backto-GoldCard" style="stroke:#181818;stroke-width:1.0;"/><polygon fill="none" points="530.697,927.021,512.008,930.2951,517.7102,940.8537,530.697,927.021" style="stroke:#181818;stroke-width:1.0;"/></g><!--reverse link AngledCard to InitialCard--><g id="link_AngledCard_InitialCard"><path d="M633.5,945.021 C633.5,964.826 633.5,968.72 633.5,986.914 " fill="none" id="AngledCard-backto-InitialCard" style="stroke:#181818;stroke-width:1.0;"/><polygon fill="none" points="633.5,927.021,627.5,945.021,639.5,945.021,633.5,927.021" style="stroke:#181818;stroke-width:1.0;"/></g><!--reverse link AngledCard to ResourceCard--><g id="link_AngledCard_ResourceCard"><path d="M734.2113,936.815 C777.6093,964.959 812.405,987.526 843.198,1007.4964 " fill="none" id="AngledCard-backto-ResourceCard" style="stroke:#181818;stroke-width:1.0;"/><polygon fill="none" points="719.109,927.021,730.9466,941.849,737.4759,931.7809,719.109,927.021" style="stroke:#181818;stroke-width:1.0;"/></g><!--link Game to Player--><g id="link_Game_Player"><path codeLine="93" d="M504.144,170.113 C490.857,189.607 476.348,210.895 463.451,229.818 " fill="none" id="Game-Player" style="stroke:#181818;stroke-width:1.0;"/><text fill="#000000" font-family="sans-serif" font-size="13" lengthAdjust="spacing" textLength="8" x="490.6685" y="190.4976">1</text><text fill="#000000" font-family="sans-serif" font-size="13" lengthAdjust="spacing" textLength="28" x="438.37" y="219.0594">1...4</text></g><!--link Game to Deck--><g id="link_Game_Deck"><path codeLine="94" d="M590.856,170.113 C608.047,195.335 627.283,223.559 642.428,245.779 " fill="none" id="Game-Deck" style="stroke:#181818;stroke-width:1.0;"/></g><!--link Deck to Card--><g id="link_Deck_Card"><path codeLine="95" d="M673.983,327.372 C677.602,374.514 678.362,454.347 651.5,516 C641.325,539.353 625.894,561.422 609.033,581.041 " fill="none" id="Deck-Card" style="stroke:#181818;stroke-width:1.0;"/></g><!--link Player to Structure--><g id="link_Player_Structure"><path codeLine="96" d="M397.903,343.019 C381.421,376.176 361.516,416.221 350.002,439.384 " fill="none" id="Player-Structure" style="stroke:#181818;stroke-width:1.0;"/></g><!--link Player to Hand--><g id="link_Player_Hand"><path codeLine="97" d="M459.266,343.019 C470.95,362.23 484.041,383.755 495.726,402.967 " fill="none" id="Player-Hand" style="stroke:#181818;stroke-width:1.0;"/></g><!--link Structure to Card--><g id="link_Structure_Card"><path codeLine="98" d="M356.964,479.645 C376.023,501.808 408.75,539.865 439.538,575.667 " fill="none" id="Structure-Card" style="stroke:#181818;stroke-width:1.0;"/></g><!--SRC=[ZLPBRzj64BxpLmnyOOj6B1B7FGX5XLf9NGD95LX5BuOBh9TZUUhbBh5SEhMD_FVEB1zQKZ9GNIZEyvjlPcTvJoK2LdLuWZj2KpPPbl-v-R1PGfxbRmluQDiAlNecPn4QgcwT8K3GpZXFOlEkW3kFMYEKnEAgTWrrrZLwQ89lGsYzWWLevGEAosa15GR7zXUgYfBt1GIsSnp01k-COLSMdnKI4O5iWvuylk7NHeslCODHy4ZuLSn_AlOgY-6hymyhbcUrqWzgX_3PbMZW9GF-QQEQfilV2UIt0AxsYr5Fw9ibnmep3HT0ccfbmqoTBs2r3QeaTq5EkyHDjzwZ3LtG9QmtdpPN7_T-gtEdV2bbCtr2c_BaEdQvlDO6tEre7o_NzwWVe6cDoQa9oZuhKDwhfpIZgofdDxV_e0xqY1tIwtStYKbjbCPopPb7xM3mBKlewL1F2IBzO9cr9Mo39xkR96RKaqApKVi3x33yqVj-z_s1TzIlzm74f0lHWqfG2Uu4KzwpPOItakv8tvEgU024et85JZIDCeyiTLmjj9P7HlbL0fqY6VEMSpZypVD4Ba7VAtzzCzETyrmTKt6eBuw68M7TjCpBc4mgJDFr3FGPHJiBF1f8sbVrO-u-_lMHjewp4Pd4VmFQyf3MGBM3KbXqjuI1xUFn1EIJ8ApsPAlWLldUoxA5DC1Jmzl2TUUN6L4XyC5yVbRIgNt4_13ThtPdkk5y3Lf7yTfvEvpJP80ZYX8rxpLEzQZYRF2gAV5EjIR4dQ6ZAmZMscF3vpEkbYWS156hPHNjkCGtS5d-AEUH__jOa0ygdo7QFibwP4JRoy_dFBmzgiCEzT275at1ZrPzk7XQ9W4FABjmPafOmc5A6vVcMgynWNXsC-lutr0ghgRc9PgqTTR1Q9aqSGh-QaYJGZyxWllIKY1b_WzqBJtnLuS5dCuBIE3FE9s6IC6T7W4t6BwARcBD-wpLVD7XJFv1zlNBaGNUSLWIBqJIlA1uilYPZjIEkohkI_Z4k_vdIVhBaMOUDPbW-5tPAPaDQezXN0C7Uqyk1d7gnlDqFiBRgVlnJJR468Pyf9YXnMltvEq9B1RyA8hY_Kb_rtGg5ajLMIIFNoHOrbz6_3fodSWaLRPlmk0qtlth_OV5IoOO1iLVyl7GaPDz-my0]--></g></svg>