<?xml version="1.0" encoding="us-ascii" standalone="no"?><svg xmlns="http://www.w3.org/2000/svg" xmlns:xlink="http://www.w3.org/1999/xlink" contentStyleType="text/css" height="1206px" preserveAspectRatio="none" style="width:2490px;height:1206px;background:#FFFFFF;" version="1.1" viewBox="0 0 2490 1206" width="2490px" zoomAndPan="magnify"><defs/><g><!--cluster model--><g id="cluster_model"><path d="M484.5,6 L534.5,6 A3.75,3.75 0 0 1 537,8.5 L544,28.2969 L1217.5,28.2969 A2.5,2.5 0 0 1 1220,30.7969 L1220,1196.5 A2.5,2.5 0 0 1 1217.5,1199 L484.5,1199 A2.5,2.5 0 0 1 482,1196.5 L482,8.5 A2.5,2.5 0 0 1 484.5,6 " fill="none" style="stroke:#000000;stroke-width:1.5;"/><line style="stroke:#000000;stroke-width:1.5;" x1="482" x2="544" y1="28.2969" y2="28.2969"/><text fill="#000000" font-family="sans-serif" font-size="14" font-weight="bold" lengthAdjust="spacing" textLength="49" x="486" y="20.9951">model</text></g><!--cluster controller--><g id="cluster_controller"><path d="M1246.5,261 L1327.5,261 A3.75,3.75 0 0 1 1330,263.5 L1337,283.2969 L2480.5,283.2969 A2.5,2.5 0 0 1 2483,285.7969 L2483,471.5 A2.5,2.5 0 0 1 2480.5,474 L1246.5,474 A2.5,2.5 0 0 1 1244,471.5 L1244,263.5 A2.5,2.5 0 0 1 1246.5,261 " fill="none" style="stroke:#000000;stroke-width:1.5;"/><line style="stroke:#000000;stroke-width:1.5;" x1="1244" x2="1337" y1="283.2969" y2="283.2969"/><text fill="#000000" font-family="sans-serif" font-size="14" font-weight="bold" lengthAdjust="spacing" textLength="80" x="1248" y="275.9951">controller</text></g><!--class Game--><g id="elem_Game"><rect codeLine="13" fill="#F1F1F1" height="194.6719" id="Game" rx="2.5" ry="2.5" style="stroke:#181818;stroke-width:0.5;" width="231" x="972.5" y="41"/><ellipse cx="1062.75" cy="57" fill="#ADD1B2" rx="11" ry="11" style="stroke:#181818;stroke-width:1.0;"/><path d="M1065.0938,52.6719 C1064.1563,52.2344 1063.5625,52.0938 1062.6875,52.0938 C1060.0625,52.0938 1058.0625,54.1719 1058.0625,56.8906 L1058.0625,58.0156 C1058.0625,60.5938 1060.1719,62.4844 1063.0625,62.4844 C1064.2813,62.4844 1065.4375,62.1875 1066.1875,61.6406 C1066.7656,61.2344 1067.0938,60.7813 1067.0938,60.3906 C1067.0938,59.9375 1066.7031,59.5469 1066.2344,59.5469 C1066.0156,59.5469 1065.8125,59.625 1065.625,59.8125 C1065.1719,60.2969 1065.1719,60.2969 1064.9844,60.3906 C1064.5625,60.6563 1063.875,60.7813 1063.1094,60.7813 C1061.0625,60.7813 1059.7656,59.6875 1059.7656,57.9844 L1059.7656,56.8906 C1059.7656,55.1094 1061.0156,53.7969 1062.75,53.7969 C1063.3281,53.7969 1063.9375,53.9531 1064.4063,54.2031 C1064.8906,54.4844 1065.0625,54.7031 1065.1563,55.1094 C1065.2188,55.5156 1065.25,55.6406 1065.3906,55.7656 C1065.5313,55.9063 1065.7656,56.0156 1065.9844,56.0156 C1066.25,56.0156 1066.5156,55.875 1066.6875,55.6563 C1066.7969,55.5 1066.8281,55.3125 1066.8281,54.8906 L1066.8281,53.4688 C1066.8281,53.0313 1066.8125,52.9063 1066.7188,52.75 C1066.5625,52.4844 1066.2813,52.3438 1065.9844,52.3438 C1065.6875,52.3438 1065.4844,52.4375 1065.2656,52.75 L1065.0938,52.6719 Z " fill="#000000"/><text fill="#000000" font-family="sans-serif" font-size="14" lengthAdjust="spacing" textLength="42" x="1083.25" y="61.8467">Game</text><line style="stroke:#181818;stroke-width:0.5;" x1="973.5" x2="1202.5" y1="73" y2="73"/><rect fill="none" height="6" style="stroke:#C82930;stroke-width:1.0;" width="6" x="980.5" y="83.6484"/><text fill="#000000" font-family="sans-serif" font-size="14" lengthAdjust="spacing" textLength="111" x="992.5" y="89.9951">numPlayers: int</text><rect fill="none" height="6" style="stroke:#C82930;stroke-width:1.0;" width="6" x="980.5" y="99.9453"/><text fill="#000000" font-family="sans-serif" font-size="14" lengthAdjust="spacing" textLength="147" x="992.5" y="106.292">numParticipants: int</text><rect fill="none" height="6" style="stroke:#C82930;stroke-width:1.0;" width="6" x="980.5" y="116.2422"/><text fill="#000000" font-family="sans-serif" font-size="14" lengthAdjust="spacing" textLength="165" x="992.5" y="122.5889">currentPlayer: COLORE</text><rect fill="none" height="6" style="stroke:#C82930;stroke-width:1.0;" width="6" x="980.5" y="132.5391"/><text fill="#000000" font-family="sans-serif" font-size="14" lengthAdjust="spacing" textLength="187" x="992.5" y="138.8857">commonObjectives: int[2]</text><rect fill="none" height="6" style="stroke:#C82930;stroke-width:1.0;" width="6" x="980.5" y="148.8359"/><text fill="#000000" font-family="sans-serif" font-size="14" lengthAdjust="spacing" textLength="153" x="992.5" y="155.1826">placedCards: int[2][2]</text><line style="stroke:#181818;stroke-width:0.5;" x1="973.5" x2="1202.5" y1="162.4844" y2="162.4844"/><ellipse cx="983.5" cy="176.1328" fill="#84BE84" rx="3" ry="3" style="stroke:#038048;stroke-width:1.0;"/><text fill="#000000" font-family="sans-serif" font-size="14" lengthAdjust="spacing" textLength="193" x="992.5" y="179.4795">drawResourceCards() : void</text><ellipse cx="983.5" cy="192.4297" fill="#84BE84" rx="3" ry="3" style="stroke:#038048;stroke-width:1.0;"/><text fill="#000000" font-family="sans-serif" font-size="14" lengthAdjust="spacing" textLength="153" x="992.5" y="195.7764">drawGoldCard() : void</text><ellipse cx="983.5" cy="208.7266" fill="#84BE84" rx="3" ry="3" style="stroke:#038048;stroke-width:1.0;"/><text fill="#000000" font-family="sans-serif" font-size="14" lengthAdjust="spacing" textLength="205" x="992.5" y="212.0732">drawSecretObjective() : void</text><ellipse cx="983.5" cy="225.0234" fill="#84BE84" rx="3" ry="3" style="stroke:#038048;stroke-width:1.0;"/><text fill="#000000" font-family="sans-serif" font-size="14" lengthAdjust="spacing" textLength="123" x="992.5" y="228.3701">getPoints() : void</text></g><!--class Player--><g id="elem_Player"><rect codeLine="33" fill="#F1F1F1" height="113.1875" id="Player" rx="2.5" ry="2.5" style="stroke:#181818;stroke-width:0.5;" width="202" x="747" y="320.5"/><ellipse cx="821.75" cy="336.5" fill="#ADD1B2" rx="11" ry="11" style="stroke:#181818;stroke-width:1.0;"/><path d="M824.0938,332.1719 C823.1563,331.7344 822.5625,331.5938 821.6875,331.5938 C819.0625,331.5938 817.0625,333.6719 817.0625,336.3906 L817.0625,337.5156 C817.0625,340.0938 819.1719,341.9844 822.0625,341.9844 C823.2813,341.9844 824.4375,341.6875 825.1875,341.1406 C825.7656,340.7344 826.0938,340.2813 826.0938,339.8906 C826.0938,339.4375 825.7031,339.0469 825.2344,339.0469 C825.0156,339.0469 824.8125,339.125 824.625,339.3125 C824.1719,339.7969 824.1719,339.7969 823.9844,339.8906 C823.5625,340.1563 822.875,340.2813 822.1094,340.2813 C820.0625,340.2813 818.7656,339.1875 818.7656,337.4844 L818.7656,336.3906 C818.7656,334.6094 820.0156,333.2969 821.75,333.2969 C822.3281,333.2969 822.9375,333.4531 823.4063,333.7031 C823.8906,333.9844 824.0625,334.2031 824.1563,334.6094 C824.2188,335.0156 824.25,335.1406 824.3906,335.2656 C824.5313,335.4063 824.7656,335.5156 824.9844,335.5156 C825.25,335.5156 825.5156,335.375 825.6875,335.1563 C825.7969,335 825.8281,334.8125 825.8281,334.3906 L825.8281,332.9688 C825.8281,332.5313 825.8125,332.4063 825.7188,332.25 C825.5625,331.9844 825.2813,331.8438 824.9844,331.8438 C824.6875,331.8438 824.4844,331.9375 824.2656,332.25 L824.0938,332.1719 Z " fill="#000000"/><text fill="#000000" font-family="sans-serif" font-size="14" lengthAdjust="spacing" textLength="44" x="842.25" y="341.3467">Player</text><line style="stroke:#181818;stroke-width:0.5;" x1="748" x2="948" y1="352.5" y2="352.5"/><rect fill="none" height="6" style="stroke:#C82930;stroke-width:1.0;" width="6" x="755" y="363.1484"/><text fill="#000000" font-family="sans-serif" font-size="14" lengthAdjust="spacing" textLength="123" x="767" y="369.4951">nickname: String</text><rect fill="none" height="6" style="stroke:#C82930;stroke-width:1.0;" width="6" x="755" y="379.4453"/><text fill="#000000" font-family="sans-serif" font-size="14" lengthAdjust="spacing" textLength="139" x="767" y="385.792">colorPlayer: COLOR</text><line style="stroke:#181818;stroke-width:0.5;" x1="748" x2="948" y1="393.0938" y2="393.0938"/><ellipse cx="758" cy="406.7422" fill="#84BE84" rx="3" ry="3" style="stroke:#038048;stroke-width:1.0;"/><text fill="#000000" font-family="sans-serif" font-size="14" lengthAdjust="spacing" textLength="159" x="767" y="410.0889">getNickname(): String</text><ellipse cx="758" cy="423.0391" fill="#84BE84" rx="3" ry="3" style="stroke:#038048;stroke-width:1.0;"/><text fill="#000000" font-family="sans-serif" font-size="14" lengthAdjust="spacing" textLength="176" x="767" y="426.3857">getColorPlayer(): COLOR</text></g><!--class Card--><g id="elem_Card"><rect codeLine="42" fill="#F1F1F1" height="178.375" id="Card" rx="2.5" ry="2.5" style="stroke:#181818;stroke-width:0.5;" width="187" x="739.5" y="691"/><ellipse cx="812.25" cy="707" fill="#ADD1B2" rx="11" ry="11" style="stroke:#181818;stroke-width:1.0;"/><path d="M814.5938,702.6719 C813.6563,702.2344 813.0625,702.0938 812.1875,702.0938 C809.5625,702.0938 807.5625,704.1719 807.5625,706.8906 L807.5625,708.0156 C807.5625,710.5938 809.6719,712.4844 812.5625,712.4844 C813.7813,712.4844 814.9375,712.1875 815.6875,711.6406 C816.2656,711.2344 816.5938,710.7813 816.5938,710.3906 C816.5938,709.9375 816.2031,709.5469 815.7344,709.5469 C815.5156,709.5469 815.3125,709.625 815.125,709.8125 C814.6719,710.2969 814.6719,710.2969 814.4844,710.3906 C814.0625,710.6563 813.375,710.7813 812.6094,710.7813 C810.5625,710.7813 809.2656,709.6875 809.2656,707.9844 L809.2656,706.8906 C809.2656,705.1094 810.5156,703.7969 812.25,703.7969 C812.8281,703.7969 813.4375,703.9531 813.9063,704.2031 C814.3906,704.4844 814.5625,704.7031 814.6563,705.1094 C814.7188,705.5156 814.75,705.6406 814.8906,705.7656 C815.0313,705.9063 815.2656,706.0156 815.4844,706.0156 C815.75,706.0156 816.0156,705.875 816.1875,705.6563 C816.2969,705.5 816.3281,705.3125 816.3281,704.8906 L816.3281,703.4688 C816.3281,703.0313 816.3125,702.9063 816.2188,702.75 C816.0625,702.4844 815.7813,702.3438 815.4844,702.3438 C815.1875,702.3438 814.9844,702.4375 814.7656,702.75 L814.5938,702.6719 Z " fill="#000000"/><text fill="#000000" font-family="sans-serif" font-size="14" lengthAdjust="spacing" textLength="33" x="832.75" y="711.8467">Card</text><line style="stroke:#181818;stroke-width:0.5;" x1="740.5" x2="925.5" y1="723" y2="723"/><rect fill="none" height="6" style="stroke:#C82930;stroke-width:1.0;" width="6" x="747.5" y="733.6484"/><text fill="#000000" font-family="sans-serif" font-size="14" lengthAdjust="spacing" textLength="75" x="759.5" y="739.9951">idCard: int</text><rect fill="none" height="6" style="stroke:#C82930;stroke-width:1.0;" width="6" x="747.5" y="749.9453"/><text fill="#000000" font-family="sans-serif" font-size="14" lengthAdjust="spacing" textLength="124" x="759.5" y="756.292">codeFront: char[]</text><rect fill="none" height="6" style="stroke:#C82930;stroke-width:1.0;" width="6" x="747.5" y="766.2422"/><text fill="#000000" font-family="sans-serif" font-size="14" lengthAdjust="spacing" textLength="120" x="759.5" y="772.5889">codeBack: char[]</text><rect fill="none" height="6" style="stroke:#C82930;stroke-width:1.0;" width="6" x="747.5" y="782.5391"/><text fill="#000000" font-family="sans-serif" font-size="14" lengthAdjust="spacing" textLength="115" x="759.5" y="788.8857">cardPoints: int[]</text><line style="stroke:#181818;stroke-width:0.5;" x1="740.5" x2="925.5" y1="796.1875" y2="796.1875"/><ellipse cx="750.5" cy="809.8359" fill="#84BE84" rx="3" ry="3" style="stroke:#038048;stroke-width:1.0;"/><text fill="#000000" font-family="sans-serif" font-size="14" lengthAdjust="spacing" textLength="110" x="759.5" y="813.1826">getIdCard(): int</text><ellipse cx="750.5" cy="826.1328" fill="#84BE84" rx="3" ry="3" style="stroke:#038048;stroke-width:1.0;"/><text fill="#000000" font-family="sans-serif" font-size="14" lengthAdjust="spacing" textLength="161" x="759.5" y="829.4795">getCodeFront(): char[]</text><ellipse cx="750.5" cy="842.4297" fill="#84BE84" rx="3" ry="3" style="stroke:#038048;stroke-width:1.0;"/><text fill="#000000" font-family="sans-serif" font-size="14" lengthAdjust="spacing" textLength="157" x="759.5" y="845.7764">getCodeBack(): char[]</text><ellipse cx="750.5" cy="858.7266" fill="#84BE84" rx="3" ry="3" style="stroke:#038048;stroke-width:1.0;"/><text fill="#000000" font-family="sans-serif" font-size="14" lengthAdjust="spacing" textLength="152" x="759.5" y="862.0732">getCardPoints(): int[]</text></g><!--class ObjectiveCard--><g id="elem_ObjectiveCard"><rect codeLine="55" fill="#F1F1F1" height="40" id="ObjectiveCard" rx="2.5" ry="2.5" style="stroke:#181818;stroke-width:0.5;" width="135" x="596.5" y="965.5"/><ellipse cx="611.5" cy="981.5" fill="#ADD1B2" rx="11" ry="11" style="stroke:#181818;stroke-width:1.0;"/><path d="M613.8438,977.1719 C612.9063,976.7344 612.3125,976.5938 611.4375,976.5938 C608.8125,976.5938 606.8125,978.6719 606.8125,981.3906 L606.8125,982.5156 C606.8125,985.0938 608.9219,986.9844 611.8125,986.9844 C613.0313,986.9844 614.1875,986.6875 614.9375,986.1406 C615.5156,985.7344 615.8438,985.2813 615.8438,984.8906 C615.8438,984.4375 615.4531,984.0469 614.9844,984.0469 C614.7656,984.0469 614.5625,984.125 614.375,984.3125 C613.9219,984.7969 613.9219,984.7969 613.7344,984.8906 C613.3125,985.1563 612.625,985.2813 611.8594,985.2813 C609.8125,985.2813 608.5156,984.1875 608.5156,982.4844 L608.5156,981.3906 C608.5156,979.6094 609.7656,978.2969 611.5,978.2969 C612.0781,978.2969 612.6875,978.4531 613.1563,978.7031 C613.6406,978.9844 613.8125,979.2031 613.9063,979.6094 C613.9688,980.0156 614,980.1406 614.1406,980.2656 C614.2813,980.4063 614.5156,980.5156 614.7344,980.5156 C615,980.5156 615.2656,980.375 615.4375,980.1563 C615.5469,980 615.5781,979.8125 615.5781,979.3906 L615.5781,977.9688 C615.5781,977.5313 615.5625,977.4063 615.4688,977.25 C615.3125,976.9844 615.0313,976.8438 614.7344,976.8438 C614.4375,976.8438 614.2344,976.9375 614.0156,977.25 L613.8438,977.1719 Z " fill="#000000"/><text fill="#000000" font-family="sans-serif" font-size="14" lengthAdjust="spacing" textLength="103" x="625.5" y="986.3467">ObjectiveCard</text><line style="stroke:#181818;stroke-width:0.5;" x1="597.5" x2="730.5" y1="997.5" y2="997.5"/></g><!--class AngledCard--><g id="elem_AngledCard"><rect codeLine="60" fill="#F1F1F1" height="113.1875" id="AngledCard" rx="2.5" ry="2.5" style="stroke:#181818;stroke-width:0.5;" width="265" x="766.5" y="929"/><ellipse cx="853.25" cy="945" fill="#ADD1B2" rx="11" ry="11" style="stroke:#181818;stroke-width:1.0;"/><path d="M855.5938,940.6719 C854.6563,940.2344 854.0625,940.0938 853.1875,940.0938 C850.5625,940.0938 848.5625,942.1719 848.5625,944.8906 L848.5625,946.0156 C848.5625,948.5938 850.6719,950.4844 853.5625,950.4844 C854.7813,950.4844 855.9375,950.1875 856.6875,949.6406 C857.2656,949.2344 857.5938,948.7813 857.5938,948.3906 C857.5938,947.9375 857.2031,947.5469 856.7344,947.5469 C856.5156,947.5469 856.3125,947.625 856.125,947.8125 C855.6719,948.2969 855.6719,948.2969 855.4844,948.3906 C855.0625,948.6563 854.375,948.7813 853.6094,948.7813 C851.5625,948.7813 850.2656,947.6875 850.2656,945.9844 L850.2656,944.8906 C850.2656,943.1094 851.5156,941.7969 853.25,941.7969 C853.8281,941.7969 854.4375,941.9531 854.9063,942.2031 C855.3906,942.4844 855.5625,942.7031 855.6563,943.1094 C855.7188,943.5156 855.75,943.6406 855.8906,943.7656 C856.0313,943.9063 856.2656,944.0156 856.4844,944.0156 C856.75,944.0156 857.0156,943.875 857.1875,943.6563 C857.2969,943.5 857.3281,943.3125 857.3281,942.8906 L857.3281,941.4688 C857.3281,941.0313 857.3125,940.9063 857.2188,940.75 C857.0625,940.4844 856.7813,940.3438 856.4844,940.3438 C856.1875,940.3438 855.9844,940.4375 855.7656,940.75 L855.5938,940.6719 Z " fill="#000000"/><text fill="#000000" font-family="sans-serif" font-size="14" lengthAdjust="spacing" textLength="83" x="873.75" y="949.8467">AngledCard</text><line style="stroke:#181818;stroke-width:0.5;" x1="767.5" x2="1030.5" y1="961" y2="961"/><rect fill="none" height="6" style="stroke:#C82930;stroke-width:1.0;" width="6" x="774.5" y="971.6484"/><text fill="#000000" font-family="sans-serif" font-size="14" lengthAdjust="spacing" textLength="152" x="786.5" y="977.9951">cardCorners: int[2][2]</text><rect fill="none" height="6" style="stroke:#C82930;stroke-width:1.0;" width="6" x="774.5" y="987.9453"/><text fill="#000000" font-family="sans-serif" font-size="14" lengthAdjust="spacing" textLength="202" x="786.5" y="994.292">cardSymbols: SIMBOLO[2][2]</text><line style="stroke:#181818;stroke-width:0.5;" x1="767.5" x2="1030.5" y1="1001.5938" y2="1001.5938"/><ellipse cx="777.5" cy="1015.2422" fill="#84BE84" rx="3" ry="3" style="stroke:#038048;stroke-width:1.0;"/><text fill="#000000" font-family="sans-serif" font-size="14" lengthAdjust="spacing" textLength="189" x="786.5" y="1018.5889">getCardCorners(): int[2][2]</text><ellipse cx="777.5" cy="1031.5391" fill="#84BE84" rx="3" ry="3" style="stroke:#038048;stroke-width:1.0;"/><text fill="#000000" font-family="sans-serif" font-size="14" lengthAdjust="spacing" textLength="239" x="786.5" y="1034.8857">getCardSymbols(): SIMBOLO[2][2]</text></g><!--class GoldCard--><g id="elem_GoldCard"><rect codeLine="69" fill="#F1F1F1" height="80.5938" id="GoldCard" rx="2.5" ry="2.5" style="stroke:#181818;stroke-width:0.5;" width="227" x="498.5" y="1102"/><ellipse cx="574.75" cy="1118" fill="#ADD1B2" rx="11" ry="11" style="stroke:#181818;stroke-width:1.0;"/><path d="M577.0938,1113.6719 C576.1563,1113.2344 575.5625,1113.0938 574.6875,1113.0938 C572.0625,1113.0938 570.0625,1115.1719 570.0625,1117.8906 L570.0625,1119.0156 C570.0625,1121.5938 572.1719,1123.4844 575.0625,1123.4844 C576.2813,1123.4844 577.4375,1123.1875 578.1875,1122.6406 C578.7656,1122.2344 579.0938,1121.7813 579.0938,1121.3906 C579.0938,1120.9375 578.7031,1120.5469 578.2344,1120.5469 C578.0156,1120.5469 577.8125,1120.625 577.625,1120.8125 C577.1719,1121.2969 577.1719,1121.2969 576.9844,1121.3906 C576.5625,1121.6563 575.875,1121.7813 575.1094,1121.7813 C573.0625,1121.7813 571.7656,1120.6875 571.7656,1118.9844 L571.7656,1117.8906 C571.7656,1116.1094 573.0156,1114.7969 574.75,1114.7969 C575.3281,1114.7969 575.9375,1114.9531 576.4063,1115.2031 C576.8906,1115.4844 577.0625,1115.7031 577.1563,1116.1094 C577.2188,1116.5156 577.25,1116.6406 577.3906,1116.7656 C577.5313,1116.9063 577.7656,1117.0156 577.9844,1117.0156 C578.25,1117.0156 578.5156,1116.875 578.6875,1116.6563 C578.7969,1116.5 578.8281,1116.3125 578.8281,1115.8906 L578.8281,1114.4688 C578.8281,1114.0313 578.8125,1113.9063 578.7188,1113.75 C578.5625,1113.4844 578.2813,1113.3438 577.9844,1113.3438 C577.6875,1113.3438 577.4844,1113.4375 577.2656,1113.75 L577.0938,1113.6719 Z " fill="#000000"/><text fill="#000000" font-family="sans-serif" font-size="14" lengthAdjust="spacing" textLength="66" x="595.25" y="1122.8467">GoldCard</text><line style="stroke:#181818;stroke-width:0.5;" x1="499.5" x2="724.5" y1="1134" y2="1134"/><rect fill="none" height="6" style="stroke:#C82930;stroke-width:1.0;" width="6" x="506.5" y="1144.6484"/><text fill="#000000" font-family="sans-serif" font-size="14" lengthAdjust="spacing" textLength="162" x="518.5" y="1150.9951">resources: SIMBOLO[5]</text><line style="stroke:#181818;stroke-width:0.5;" x1="499.5" x2="724.5" y1="1158.2969" y2="1158.2969"/><ellipse cx="509.5" cy="1171.9453" fill="#84BE84" rx="3" ry="3" style="stroke:#038048;stroke-width:1.0;"/><text fill="#000000" font-family="sans-serif" font-size="14" lengthAdjust="spacing" textLength="201" x="518.5" y="1175.292">getResources(): SIMBOLO[5]</text></g><!--class InitialCard--><g id="elem_InitialCard"><rect codeLine="77" fill="#F1F1F1" height="80.5938" id="InitialCard" rx="2.5" ry="2.5" style="stroke:#181818;stroke-width:0.5;" width="277" x="760.5" y="1102"/><ellipse cx="858.25" cy="1118" fill="#ADD1B2" rx="11" ry="11" style="stroke:#181818;stroke-width:1.0;"/><path d="M860.5938,1113.6719 C859.6563,1113.2344 859.0625,1113.0938 858.1875,1113.0938 C855.5625,1113.0938 853.5625,1115.1719 853.5625,1117.8906 L853.5625,1119.0156 C853.5625,1121.5938 855.6719,1123.4844 858.5625,1123.4844 C859.7813,1123.4844 860.9375,1123.1875 861.6875,1122.6406 C862.2656,1122.2344 862.5938,1121.7813 862.5938,1121.3906 C862.5938,1120.9375 862.2031,1120.5469 861.7344,1120.5469 C861.5156,1120.5469 861.3125,1120.625 861.125,1120.8125 C860.6719,1121.2969 860.6719,1121.2969 860.4844,1121.3906 C860.0625,1121.6563 859.375,1121.7813 858.6094,1121.7813 C856.5625,1121.7813 855.2656,1120.6875 855.2656,1118.9844 L855.2656,1117.8906 C855.2656,1116.1094 856.5156,1114.7969 858.25,1114.7969 C858.8281,1114.7969 859.4375,1114.9531 859.9063,1115.2031 C860.3906,1115.4844 860.5625,1115.7031 860.6563,1116.1094 C860.7188,1116.5156 860.75,1116.6406 860.8906,1116.7656 C861.0313,1116.9063 861.2656,1117.0156 861.4844,1117.0156 C861.75,1117.0156 862.0156,1116.875 862.1875,1116.6563 C862.2969,1116.5 862.3281,1116.3125 862.3281,1115.8906 L862.3281,1114.4688 C862.3281,1114.0313 862.3125,1113.9063 862.2188,1113.75 C862.0625,1113.4844 861.7813,1113.3438 861.4844,1113.3438 C861.1875,1113.3438 860.9844,1113.4375 860.7656,1113.75 L860.5938,1113.6719 Z " fill="#000000"/><text fill="#000000" font-family="sans-serif" font-size="14" lengthAdjust="spacing" textLength="73" x="878.75" y="1122.8467">InitialCard</text><line style="stroke:#181818;stroke-width:0.5;" x1="761.5" x2="1036.5" y1="1134" y2="1134"/><rect fill="none" height="6" style="stroke:#C82930;stroke-width:1.0;" width="6" x="768.5" y="1144.6484"/><text fill="#000000" font-family="sans-serif" font-size="14" lengthAdjust="spacing" textLength="214" x="780.5" y="1150.9951">centerResources: SIMBOLO[3]</text><line style="stroke:#181818;stroke-width:0.5;" x1="761.5" x2="1036.5" y1="1158.2969" y2="1158.2969"/><ellipse cx="771.5" cy="1171.9453" fill="#84BE84" rx="3" ry="3" style="stroke:#038048;stroke-width:1.0;"/><text fill="#000000" font-family="sans-serif" font-size="14" lengthAdjust="spacing" textLength="251" x="780.5" y="1175.292">getCenterResources(): SIMBOLO[3]</text></g><!--class ResourceCard--><g id="elem_ResourceCard"><rect codeLine="84" fill="#F1F1F1" height="40" id="ResourceCard" rx="2.5" ry="2.5" style="stroke:#181818;stroke-width:0.5;" width="131" x="1072.5" y="1122.5"/><ellipse cx="1087.5" cy="1138.5" fill="#ADD1B2" rx="11" ry="11" style="stroke:#181818;stroke-width:1.0;"/><path d="M1089.8438,1134.1719 C1088.9063,1133.7344 1088.3125,1133.5938 1087.4375,1133.5938 C1084.8125,1133.5938 1082.8125,1135.6719 1082.8125,1138.3906 L1082.8125,1139.5156 C1082.8125,1142.0938 1084.9219,1143.9844 1087.8125,1143.9844 C1089.0313,1143.9844 1090.1875,1143.6875 1090.9375,1143.1406 C1091.5156,1142.7344 1091.8438,1142.2813 1091.8438,1141.8906 C1091.8438,1141.4375 1091.4531,1141.0469 1090.9844,1141.0469 C1090.7656,1141.0469 1090.5625,1141.125 1090.375,1141.3125 C1089.9219,1141.7969 1089.9219,1141.7969 1089.7344,1141.8906 C1089.3125,1142.1563 1088.625,1142.2813 1087.8594,1142.2813 C1085.8125,1142.2813 1084.5156,1141.1875 1084.5156,1139.4844 L1084.5156,1138.3906 C1084.5156,1136.6094 1085.7656,1135.2969 1087.5,1135.2969 C1088.0781,1135.2969 1088.6875,1135.4531 1089.1563,1135.7031 C1089.6406,1135.9844 1089.8125,1136.2031 1089.9063,1136.6094 C1089.9688,1137.0156 1090,1137.1406 1090.1406,1137.2656 C1090.2813,1137.4063 1090.5156,1137.5156 1090.7344,1137.5156 C1091,1137.5156 1091.2656,1137.375 1091.4375,1137.1563 C1091.5469,1137 1091.5781,1136.8125 1091.5781,1136.3906 L1091.5781,1134.9688 C1091.5781,1134.5313 1091.5625,1134.4063 1091.4688,1134.25 C1091.3125,1133.9844 1091.0313,1133.8438 1090.7344,1133.8438 C1090.4375,1133.8438 1090.2344,1133.9375 1090.0156,1134.25 L1089.8438,1134.1719 Z " fill="#000000"/><text fill="#000000" font-family="sans-serif" font-size="14" lengthAdjust="spacing" textLength="99" x="1101.5" y="1143.3467">ResourceCard</text><line style="stroke:#181818;stroke-width:0.5;" x1="1073.5" x2="1202.5" y1="1154.5" y2="1154.5"/></g><!--class Structure--><g id="elem_Structure"><rect codeLine="86" fill="#F1F1F1" height="40" id="Structure" rx="2.5" ry="2.5" style="stroke:#181818;stroke-width:0.5;" width="100" x="713" y="554.5"/><ellipse cx="728" cy="570.5" fill="#ADD1B2" rx="11" ry="11" style="stroke:#181818;stroke-width:1.0;"/><path d="M730.3438,566.1719 C729.4063,565.7344 728.8125,565.5938 727.9375,565.5938 C725.3125,565.5938 723.3125,567.6719 723.3125,570.3906 L723.3125,571.5156 C723.3125,574.0938 725.4219,575.9844 728.3125,575.9844 C729.5313,575.9844 730.6875,575.6875 731.4375,575.1406 C732.0156,574.7344 732.3438,574.2813 732.3438,573.8906 C732.3438,573.4375 731.9531,573.0469 731.4844,573.0469 C731.2656,573.0469 731.0625,573.125 730.875,573.3125 C730.4219,573.7969 730.4219,573.7969 730.2344,573.8906 C729.8125,574.1563 729.125,574.2813 728.3594,574.2813 C726.3125,574.2813 725.0156,573.1875 725.0156,571.4844 L725.0156,570.3906 C725.0156,568.6094 726.2656,567.2969 728,567.2969 C728.5781,567.2969 729.1875,567.4531 729.6563,567.7031 C730.1406,567.9844 730.3125,568.2031 730.4063,568.6094 C730.4688,569.0156 730.5,569.1406 730.6406,569.2656 C730.7813,569.4063 731.0156,569.5156 731.2344,569.5156 C731.5,569.5156 731.7656,569.375 731.9375,569.1563 C732.0469,569 732.0781,568.8125 732.0781,568.3906 L732.0781,566.9688 C732.0781,566.5313 732.0625,566.4063 731.9688,566.25 C731.8125,565.9844 731.5313,565.8438 731.2344,565.8438 C730.9375,565.8438 730.7344,565.9375 730.5156,566.25 L730.3438,566.1719 Z " fill="#000000"/><text fill="#000000" font-family="sans-serif" font-size="14" lengthAdjust="spacing" textLength="68" x="742" y="575.3467">Structure</text><line style="stroke:#181818;stroke-width:0.5;" x1="714" x2="812" y1="586.5" y2="586.5"/></g><!--class Deck--><g id="elem_Deck"><rect codeLine="88" fill="#F1F1F1" height="80.5938" id="Deck" rx="2.5" ry="2.5" style="stroke:#181818;stroke-width:0.5;" width="215" x="984.5" y="336.5"/><ellipse cx="1069.25" cy="352.5" fill="#ADD1B2" rx="11" ry="11" style="stroke:#181818;stroke-width:1.0;"/><path d="M1071.5938,348.1719 C1070.6563,347.7344 1070.0625,347.5938 1069.1875,347.5938 C1066.5625,347.5938 1064.5625,349.6719 1064.5625,352.3906 L1064.5625,353.5156 C1064.5625,356.0938 1066.6719,357.9844 1069.5625,357.9844 C1070.7813,357.9844 1071.9375,357.6875 1072.6875,357.1406 C1073.2656,356.7344 1073.5938,356.2813 1073.5938,355.8906 C1073.5938,355.4375 1073.2031,355.0469 1072.7344,355.0469 C1072.5156,355.0469 1072.3125,355.125 1072.125,355.3125 C1071.6719,355.7969 1071.6719,355.7969 1071.4844,355.8906 C1071.0625,356.1563 1070.375,356.2813 1069.6094,356.2813 C1067.5625,356.2813 1066.2656,355.1875 1066.2656,353.4844 L1066.2656,352.3906 C1066.2656,350.6094 1067.5156,349.2969 1069.25,349.2969 C1069.8281,349.2969 1070.4375,349.4531 1070.9063,349.7031 C1071.3906,349.9844 1071.5625,350.2031 1071.6563,350.6094 C1071.7188,351.0156 1071.75,351.1406 1071.8906,351.2656 C1072.0313,351.4063 1072.2656,351.5156 1072.4844,351.5156 C1072.75,351.5156 1073.0156,351.375 1073.1875,351.1563 C1073.2969,351 1073.3281,350.8125 1073.3281,350.3906 L1073.3281,348.9688 C1073.3281,348.5313 1073.3125,348.4063 1073.2188,348.25 C1073.0625,347.9844 1072.7813,347.8438 1072.4844,347.8438 C1072.1875,347.8438 1071.9844,347.9375 1071.7656,348.25 L1071.5938,348.1719 Z " fill="#000000"/><text fill="#000000" font-family="sans-serif" font-size="14" lengthAdjust="spacing" textLength="37" x="1089.75" y="357.3467">Deck</text><line style="stroke:#181818;stroke-width:0.5;" x1="985.5" x2="1198.5" y1="368.5" y2="368.5"/><rect fill="none" height="6" style="stroke:#C82930;stroke-width:1.0;" width="6" x="992.5" y="379.1484"/><text fill="#000000" font-family="sans-serif" font-size="14" lengthAdjust="spacing" textLength="158" x="1004.5" y="385.4951">goldDeck: List&lt;Card&gt;</text><rect fill="none" height="6" style="stroke:#C82930;stroke-width:1.0;" width="6" x="992.5" y="395.4453"/><text fill="#000000" font-family="sans-serif" font-size="14" lengthAdjust="spacing" textLength="189" x="1004.5" y="401.792">resourceDeck: List&lt;Card&gt;</text><line style="stroke:#181818;stroke-width:0.5;" x1="985.5" x2="1198.5" y1="409.0938" y2="409.0938"/></g><!--class Hand--><g id="elem_Hand"><rect codeLine="94" fill="#F1F1F1" height="113.1875" id="Hand" rx="2.5" ry="2.5" style="stroke:#181818;stroke-width:0.5;" width="208" x="848" y="518"/><ellipse cx="929.75" cy="534" fill="#ADD1B2" rx="11" ry="11" style="stroke:#181818;stroke-width:1.0;"/><path d="M932.0938,529.6719 C931.1563,529.2344 930.5625,529.0938 929.6875,529.0938 C927.0625,529.0938 925.0625,531.1719 925.0625,533.8906 L925.0625,535.0156 C925.0625,537.5938 927.1719,539.4844 930.0625,539.4844 C931.2813,539.4844 932.4375,539.1875 933.1875,538.6406 C933.7656,538.2344 934.0938,537.7813 934.0938,537.3906 C934.0938,536.9375 933.7031,536.5469 933.2344,536.5469 C933.0156,536.5469 932.8125,536.625 932.625,536.8125 C932.1719,537.2969 932.1719,537.2969 931.9844,537.3906 C931.5625,537.6563 930.875,537.7813 930.1094,537.7813 C928.0625,537.7813 926.7656,536.6875 926.7656,534.9844 L926.7656,533.8906 C926.7656,532.1094 928.0156,530.7969 929.75,530.7969 C930.3281,530.7969 930.9375,530.9531 931.4063,531.2031 C931.8906,531.4844 932.0625,531.7031 932.1563,532.1094 C932.2188,532.5156 932.25,532.6406 932.3906,532.7656 C932.5313,532.9063 932.7656,533.0156 932.9844,533.0156 C933.25,533.0156 933.5156,532.875 933.6875,532.6563 C933.7969,532.5 933.8281,532.3125 933.8281,531.8906 L933.8281,530.4688 C933.8281,530.0313 933.8125,529.9063 933.7188,529.75 C933.5625,529.4844 933.2813,529.3438 932.9844,529.3438 C932.6875,529.3438 932.4844,529.4375 932.2656,529.75 L932.0938,529.6719 Z " fill="#000000"/><text fill="#000000" font-family="sans-serif" font-size="14" lengthAdjust="spacing" textLength="36" x="950.25" y="538.8467">Hand</text><line style="stroke:#181818;stroke-width:0.5;" x1="849" x2="1055" y1="550" y2="550"/><rect fill="none" height="6" style="stroke:#C82930;stroke-width:1.0;" width="6" x="856" y="560.6484"/><text fill="#000000" font-family="sans-serif" font-size="14" lengthAdjust="spacing" textLength="145" x="868" y="566.9951">secretObjective: int</text><rect fill="none" height="6" style="stroke:#C82930;stroke-width:1.0;" width="6" x="856" y="576.9453"/><text fill="#000000" font-family="sans-serif" font-size="14" lengthAdjust="spacing" textLength="122" x="868" y="583.292">cardsHand: int[3]</text><line style="stroke:#181818;stroke-width:0.5;" x1="849" x2="1055" y1="590.5938" y2="590.5938"/><ellipse cx="859" cy="604.2422" fill="#84BE84" rx="3" ry="3" style="stroke:#038048;stroke-width:1.0;"/><text fill="#000000" font-family="sans-serif" font-size="14" lengthAdjust="spacing" textLength="182" x="868" y="607.5889">getSecretObjective(): int</text><ellipse cx="859" cy="620.5391" fill="#84BE84" rx="3" ry="3" style="stroke:#038048;stroke-width:1.0;"/><text fill="#000000" font-family="sans-serif" font-size="14" lengthAdjust="spacing" textLength="159" x="868" y="623.8857">getCardsHand(): int[3]</text></g><!--class ClientController--><g id="elem_ClientController"><rect codeLine="105" fill="#F1F1F1" height="145.7813" id="ClientController" rx="2.5" ry="2.5" style="stroke:#181818;stroke-width:0.5;" width="261" x="2205.5" y="304"/><ellipse cx="2273.75" cy="320" fill="#ADD1B2" rx="11" ry="11" style="stroke:#181818;stroke-width:1.0;"/><path d="M2276.0938,315.6719 C2275.1563,315.2344 2274.5625,315.0938 2273.6875,315.0938 C2271.0625,315.0938 2269.0625,317.1719 2269.0625,319.8906 L2269.0625,321.0156 C2269.0625,323.5938 2271.1719,325.4844 2274.0625,325.4844 C2275.2813,325.4844 2276.4375,325.1875 2277.1875,324.6406 C2277.7656,324.2344 2278.0938,323.7813 2278.0938,323.3906 C2278.0938,322.9375 2277.7031,322.5469 2277.2344,322.5469 C2277.0156,322.5469 2276.8125,322.625 2276.625,322.8125 C2276.1719,323.2969 2276.1719,323.2969 2275.9844,323.3906 C2275.5625,323.6563 2274.875,323.7813 2274.1094,323.7813 C2272.0625,323.7813 2270.7656,322.6875 2270.7656,320.9844 L2270.7656,319.8906 C2270.7656,318.1094 2272.0156,316.7969 2273.75,316.7969 C2274.3281,316.7969 2274.9375,316.9531 2275.4063,317.2031 C2275.8906,317.4844 2276.0625,317.7031 2276.1563,318.1094 C2276.2188,318.5156 2276.25,318.6406 2276.3906,318.7656 C2276.5313,318.9063 2276.7656,319.0156 2276.9844,319.0156 C2277.25,319.0156 2277.5156,318.875 2277.6875,318.6563 C2277.7969,318.5 2277.8281,318.3125 2277.8281,317.8906 L2277.8281,316.4688 C2277.8281,316.0313 2277.8125,315.9063 2277.7188,315.75 C2277.5625,315.4844 2277.2813,315.3438 2276.9844,315.3438 C2276.6875,315.3438 2276.4844,315.4375 2276.2656,315.75 L2276.0938,315.6719 Z " fill="#000000"/><text fill="#000000" font-family="sans-serif" font-size="14" lengthAdjust="spacing" textLength="116" x="2294.25" y="324.8467">ClientController</text><line style="stroke:#181818;stroke-width:0.5;" x1="2206.5" x2="2465.5" y1="336" y2="336"/><rect fill="none" height="6" style="stroke:#C82930;stroke-width:1.0;" width="6" x="2213.5" y="346.6484"/><text fill="#000000" font-family="sans-serif" font-size="14" lengthAdjust="spacing" textLength="79" x="2225.5" y="352.9951">view : View</text><line style="stroke:#181818;stroke-width:0.5;" x1="2206.5" x2="2465.5" y1="360.2969" y2="360.2969"/><ellipse cx="2216.5" cy="373.9453" fill="#84BE84" rx="3" ry="3" style="stroke:#038048;stroke-width:1.0;"/><text fill="#000000" font-family="sans-serif" font-size="14" lengthAdjust="spacing" textLength="235" x="2225.5" y="377.292">showAllowedConnections() : void</text><ellipse cx="2216.5" cy="390.2422" fill="#84BE84" rx="3" ry="3" style="stroke:#038048;stroke-width:1.0;"/><text fill="#000000" font-family="sans-serif" font-size="14" lengthAdjust="spacing" textLength="102" x="2225.5" y="393.5889">isLegal() : void</text><ellipse cx="2216.5" cy="406.5391" fill="#84BE84" rx="3" ry="3" style="stroke:#038048;stroke-width:1.0;"/><text fill="#000000" font-family="sans-serif" font-size="14" lengthAdjust="spacing" textLength="116" x="2225.5" y="409.8857">isMyTurn() : void</text><ellipse cx="2216.5" cy="422.8359" fill="#84BE84" rx="3" ry="3" style="stroke:#038048;stroke-width:1.0;"/><text fill="#000000" font-family="sans-serif" font-size="14" lengthAdjust="spacing" textLength="88" x="2225.5" y="426.1826">deny() : void</text><ellipse cx="2216.5" cy="439.1328" fill="#84BE84" rx="3" ry="3" style="stroke:#038048;stroke-width:1.0;"/><text fill="#000000" font-family="sans-serif" font-size="14" lengthAdjust="spacing" textLength="96" x="2225.5" y="442.4795">notify() : void</text></g><!--class PlayerController--><g id="elem_PlayerController"><rect codeLine="114" fill="#F1F1F1" height="129.4844" id="PlayerController" rx="2.5" ry="2.5" style="stroke:#181818;stroke-width:0.5;" width="172" x="1998" y="312.5"/><ellipse cx="2023.35" cy="328.5" fill="#ADD1B2" rx="11" ry="11" style="stroke:#181818;stroke-width:1.0;"/><path d="M2025.6938,324.1719 C2024.7563,323.7344 2024.1625,323.5938 2023.2875,323.5938 C2020.6625,323.5938 2018.6625,325.6719 2018.6625,328.3906 L2018.6625,329.5156 C2018.6625,332.0938 2020.7719,333.9844 2023.6625,333.9844 C2024.8813,333.9844 2026.0375,333.6875 2026.7875,333.1406 C2027.3656,332.7344 2027.6938,332.2813 2027.6938,331.8906 C2027.6938,331.4375 2027.3031,331.0469 2026.8344,331.0469 C2026.6156,331.0469 2026.4125,331.125 2026.225,331.3125 C2025.7719,331.7969 2025.7719,331.7969 2025.5844,331.8906 C2025.1625,332.1563 2024.475,332.2813 2023.7094,332.2813 C2021.6625,332.2813 2020.3656,331.1875 2020.3656,329.4844 L2020.3656,328.3906 C2020.3656,326.6094 2021.6156,325.2969 2023.35,325.2969 C2023.9281,325.2969 2024.5375,325.4531 2025.0063,325.7031 C2025.4906,325.9844 2025.6625,326.2031 2025.7563,326.6094 C2025.8188,327.0156 2025.85,327.1406 2025.9906,327.2656 C2026.1313,327.4063 2026.3656,327.5156 2026.5844,327.5156 C2026.85,327.5156 2027.1156,327.375 2027.2875,327.1563 C2027.3969,327 2027.4281,326.8125 2027.4281,326.3906 L2027.4281,324.9688 C2027.4281,324.5313 2027.4125,324.4063 2027.3188,324.25 C2027.1625,323.9844 2026.8813,323.8438 2026.5844,323.8438 C2026.2875,323.8438 2026.0844,323.9375 2025.8656,324.25 L2025.6938,324.1719 Z " fill="#000000"/><text fill="#000000" font-family="sans-serif" font-size="14" lengthAdjust="spacing" textLength="117" x="2039.65" y="333.3467">PlayerController</text><line style="stroke:#181818;stroke-width:0.5;" x1="1999" x2="2169" y1="344.5" y2="344.5"/><rect fill="none" height="6" style="stroke:#C82930;stroke-width:1.0;" width="6" x="2006" y="355.1484"/><text fill="#000000" font-family="sans-serif" font-size="14" lengthAdjust="spacing" textLength="95" x="2018" y="361.4951">game : Game</text><line style="stroke:#181818;stroke-width:0.5;" x1="1999" x2="2169" y1="368.7969" y2="368.7969"/><ellipse cx="2009" cy="382.4453" fill="#84BE84" rx="3" ry="3" style="stroke:#038048;stroke-width:1.0;"/><text fill="#000000" font-family="sans-serif" font-size="14" lengthAdjust="spacing" textLength="144" x="2018" y="385.792">createPlayer() : void</text><ellipse cx="2009" cy="398.7422" fill="#84BE84" rx="3" ry="3" style="stroke:#038048;stroke-width:1.0;"/><text fill="#000000" font-family="sans-serif" font-size="14" lengthAdjust="spacing" textLength="122" x="2018" y="402.0889">setColour() : void</text><ellipse cx="2009" cy="415.0391" fill="#84BE84" rx="3" ry="3" style="stroke:#038048;stroke-width:1.0;"/><text fill="#000000" font-family="sans-serif" font-size="14" lengthAdjust="spacing" textLength="146" x="2018" y="418.3857">serNickname() : void</text><ellipse cx="2009" cy="431.3359" fill="#84BE84" rx="3" ry="3" style="stroke:#038048;stroke-width:1.0;"/><text fill="#000000" font-family="sans-serif" font-size="14" lengthAdjust="spacing" textLength="121" x="2018" y="434.6826">joinGame() : void</text></g><!--class GameController--><g id="elem_GameController"><rect codeLine="122" fill="#F1F1F1" height="162.0781" id="GameController" rx="2.5" ry="2.5" style="stroke:#181818;stroke-width:0.5;" width="188" x="1775" y="296"/><ellipse cx="1808.45" cy="312" fill="#ADD1B2" rx="11" ry="11" style="stroke:#181818;stroke-width:1.0;"/><path d="M1810.7938,307.6719 C1809.8563,307.2344 1809.2625,307.0938 1808.3875,307.0938 C1805.7625,307.0938 1803.7625,309.1719 1803.7625,311.8906 L1803.7625,313.0156 C1803.7625,315.5938 1805.8719,317.4844 1808.7625,317.4844 C1809.9813,317.4844 1811.1375,317.1875 1811.8875,316.6406 C1812.4656,316.2344 1812.7938,315.7813 1812.7938,315.3906 C1812.7938,314.9375 1812.4031,314.5469 1811.9344,314.5469 C1811.7156,314.5469 1811.5125,314.625 1811.325,314.8125 C1810.8719,315.2969 1810.8719,315.2969 1810.6844,315.3906 C1810.2625,315.6563 1809.575,315.7813 1808.8094,315.7813 C1806.7625,315.7813 1805.4656,314.6875 1805.4656,312.9844 L1805.4656,311.8906 C1805.4656,310.1094 1806.7156,308.7969 1808.45,308.7969 C1809.0281,308.7969 1809.6375,308.9531 1810.1063,309.2031 C1810.5906,309.4844 1810.7625,309.7031 1810.8563,310.1094 C1810.9188,310.5156 1810.95,310.6406 1811.0906,310.7656 C1811.2313,310.9063 1811.4656,311.0156 1811.6844,311.0156 C1811.95,311.0156 1812.2156,310.875 1812.3875,310.6563 C1812.4969,310.5 1812.5281,310.3125 1812.5281,309.8906 L1812.5281,308.4688 C1812.5281,308.0313 1812.5125,307.9063 1812.4188,307.75 C1812.2625,307.4844 1811.9813,307.3438 1811.6844,307.3438 C1811.3875,307.3438 1811.1844,307.4375 1810.9656,307.75 L1810.7938,307.6719 Z " fill="#000000"/><text fill="#000000" font-family="sans-serif" font-size="14" lengthAdjust="spacing" textLength="115" x="1826.55" y="316.8467">GameController</text><line style="stroke:#181818;stroke-width:0.5;" x1="1776" x2="1962" y1="328" y2="328"/><rect fill="none" height="6" style="stroke:#C82930;stroke-width:1.0;" width="6" x="1783" y="338.6484"/><text fill="#000000" font-family="sans-serif" font-size="14" lengthAdjust="spacing" textLength="95" x="1795" y="344.9951">game : Game</text><line style="stroke:#181818;stroke-width:0.5;" x1="1776" x2="1962" y1="352.2969" y2="352.2969"/><ellipse cx="1786" cy="365.9453" fill="#84BE84" rx="3" ry="3" style="stroke:#038048;stroke-width:1.0;"/><text fill="#000000" font-family="sans-serif" font-size="14" lengthAdjust="spacing" textLength="120" x="1795" y="369.292">drawCard() : void</text><ellipse cx="1786" cy="382.2422" fill="#84BE84" rx="3" ry="3" style="stroke:#038048;stroke-width:1.0;"/><text fill="#000000" font-family="sans-serif" font-size="14" lengthAdjust="spacing" textLength="123" x="1795" y="385.5889">getPoints() : void</text><ellipse cx="1786" cy="398.5391" fill="#84BE84" rx="3" ry="3" style="stroke:#038048;stroke-width:1.0;"/><text fill="#000000" font-family="sans-serif" font-size="14" lengthAdjust="spacing" textLength="116" x="1795" y="401.8857">playCard() : void</text><ellipse cx="1786" cy="414.8359" fill="#84BE84" rx="3" ry="3" style="stroke:#038048;stroke-width:1.0;"/><text fill="#000000" font-family="sans-serif" font-size="14" lengthAdjust="spacing" textLength="162" x="1795" y="418.1826">choosePosition() : void</text><ellipse cx="1786" cy="431.1328" fill="#84BE84" rx="3" ry="3" style="stroke:#038048;stroke-width:1.0;"/><text fill="#000000" font-family="sans-serif" font-size="14" lengthAdjust="spacing" textLength="135" x="1795" y="434.4795">chooseSide() : void</text><ellipse cx="1786" cy="447.4297" fill="#84BE84" rx="3" ry="3" style="stroke:#038048;stroke-width:1.0;"/><text fill="#000000" font-family="sans-serif" font-size="14" lengthAdjust="spacing" textLength="137" x="1795" y="450.7764">chooseCard() : void</text></g><!--class GameHandler--><g id="elem_GameHandler"><rect codeLine="132" fill="#F1F1F1" height="113.1875" id="GameHandler" rx="2.5" ry="2.5" style="stroke:#181818;stroke-width:0.5;" width="163" x="1576.5" y="320.5"/><ellipse cx="1606.8" cy="336.5" fill="#ADD1B2" rx="11" ry="11" style="stroke:#181818;stroke-width:1.0;"/><path d="M1609.1438,332.1719 C1608.2063,331.7344 1607.6125,331.5938 1606.7375,331.5938 C1604.1125,331.5938 1602.1125,333.6719 1602.1125,336.3906 L1602.1125,337.5156 C1602.1125,340.0938 1604.2219,341.9844 1607.1125,341.9844 C1608.3313,341.9844 1609.4875,341.6875 1610.2375,341.1406 C1610.8156,340.7344 1611.1438,340.2813 1611.1438,339.8906 C1611.1438,339.4375 1610.7531,339.0469 1610.2844,339.0469 C1610.0656,339.0469 1609.8625,339.125 1609.675,339.3125 C1609.2219,339.7969 1609.2219,339.7969 1609.0344,339.8906 C1608.6125,340.1563 1607.925,340.2813 1607.1594,340.2813 C1605.1125,340.2813 1603.8156,339.1875 1603.8156,337.4844 L1603.8156,336.3906 C1603.8156,334.6094 1605.0656,333.2969 1606.8,333.2969 C1607.3781,333.2969 1607.9875,333.4531 1608.4563,333.7031 C1608.9406,333.9844 1609.1125,334.2031 1609.2063,334.6094 C1609.2688,335.0156 1609.3,335.1406 1609.4406,335.2656 C1609.5813,335.4063 1609.8156,335.5156 1610.0344,335.5156 C1610.3,335.5156 1610.5656,335.375 1610.7375,335.1563 C1610.8469,335 1610.8781,334.8125 1610.8781,334.3906 L1610.8781,332.9688 C1610.8781,332.5313 1610.8625,332.4063 1610.7688,332.25 C1610.6125,331.9844 1610.3313,331.8438 1610.0344,331.8438 C1609.7375,331.8438 1609.5344,331.9375 1609.3156,332.25 L1609.1438,332.1719 Z " fill="#000000"/><text fill="#000000" font-family="sans-serif" font-size="14" lengthAdjust="spacing" textLength="97" x="1624.2" y="341.3467">GameHandler</text><line style="stroke:#181818;stroke-width:0.5;" x1="1577.5" x2="1738.5" y1="352.5" y2="352.5"/><rect fill="none" height="6" style="stroke:#C82930;stroke-width:1.0;" width="6" x="1584.5" y="363.1484"/><text fill="#000000" font-family="sans-serif" font-size="14" lengthAdjust="spacing" textLength="95" x="1596.5" y="369.4951">game : Game</text><line style="stroke:#181818;stroke-width:0.5;" x1="1577.5" x2="1738.5" y1="376.7969" y2="376.7969"/><ellipse cx="1587.5" cy="390.4453" fill="#84BE84" rx="3" ry="3" style="stroke:#038048;stroke-width:1.0;"/><text fill="#000000" font-family="sans-serif" font-size="14" lengthAdjust="spacing" textLength="127" x="1596.5" y="393.792">getGames() : void</text><ellipse cx="1587.5" cy="406.7422" fill="#84BE84" rx="3" ry="3" style="stroke:#038048;stroke-width:1.0;"/><text fill="#000000" font-family="sans-serif" font-size="14" lengthAdjust="spacing" textLength="137" x="1596.5" y="410.0889">startGames() : void</text><ellipse cx="1587.5" cy="423.0391" fill="#84BE84" rx="3" ry="3" style="stroke:#038048;stroke-width:1.0;"/><text fill="#000000" font-family="sans-serif" font-size="14" lengthAdjust="spacing" textLength="122" x="1596.5" y="426.3857">endGame() : void</text></g><!--class InitialGameController--><g id="elem_InitialGameController"><rect codeLine="139" fill="#F1F1F1" height="145.7813" id="InitialGameController" rx="2.5" ry="2.5" style="stroke:#181818;stroke-width:0.5;" width="281" x="1260.5" y="304"/><ellipse cx="1319.25" cy="320" fill="#ADD1B2" rx="11" ry="11" style="stroke:#181818;stroke-width:1.0;"/><path d="M1321.5938,315.6719 C1320.6563,315.2344 1320.0625,315.0938 1319.1875,315.0938 C1316.5625,315.0938 1314.5625,317.1719 1314.5625,319.8906 L1314.5625,321.0156 C1314.5625,323.5938 1316.6719,325.4844 1319.5625,325.4844 C1320.7813,325.4844 1321.9375,325.1875 1322.6875,324.6406 C1323.2656,324.2344 1323.5938,323.7813 1323.5938,323.3906 C1323.5938,322.9375 1323.2031,322.5469 1322.7344,322.5469 C1322.5156,322.5469 1322.3125,322.625 1322.125,322.8125 C1321.6719,323.2969 1321.6719,323.2969 1321.4844,323.3906 C1321.0625,323.6563 1320.375,323.7813 1319.6094,323.7813 C1317.5625,323.7813 1316.2656,322.6875 1316.2656,320.9844 L1316.2656,319.8906 C1316.2656,318.1094 1317.5156,316.7969 1319.25,316.7969 C1319.8281,316.7969 1320.4375,316.9531 1320.9063,317.2031 C1321.3906,317.4844 1321.5625,317.7031 1321.6563,318.1094 C1321.7188,318.5156 1321.75,318.6406 1321.8906,318.7656 C1322.0313,318.9063 1322.2656,319.0156 1322.4844,319.0156 C1322.75,319.0156 1323.0156,318.875 1323.1875,318.6563 C1323.2969,318.5 1323.3281,318.3125 1323.3281,317.8906 L1323.3281,316.4688 C1323.3281,316.0313 1323.3125,315.9063 1323.2188,315.75 C1323.0625,315.4844 1322.7813,315.3438 1322.4844,315.3438 C1322.1875,315.3438 1321.9844,315.4375 1321.7656,315.75 L1321.5938,315.6719 Z " fill="#000000"/><text fill="#000000" font-family="sans-serif" font-size="14" lengthAdjust="spacing" textLength="155" x="1339.75" y="324.8467">InitialGameController</text><line style="stroke:#181818;stroke-width:0.5;" x1="1261.5" x2="1540.5" y1="336" y2="336"/><rect fill="none" height="6" style="stroke:#C82930;stroke-width:1.0;" width="6" x="1268.5" y="346.6484"/><text fill="#000000" font-family="sans-serif" font-size="14" lengthAdjust="spacing" textLength="95" x="1280.5" y="352.9951">game : Game</text><line style="stroke:#181818;stroke-width:0.5;" x1="1261.5" x2="1540.5" y1="360.2969" y2="360.2969"/><ellipse cx="1271.5" cy="373.9453" fill="#84BE84" rx="3" ry="3" style="stroke:#038048;stroke-width:1.0;"/><text fill="#000000" font-family="sans-serif" font-size="14" lengthAdjust="spacing" textLength="165" x="1280.5" y="377.292">selectStartSide() : void</text><ellipse cx="1271.5" cy="390.2422" fill="#84BE84" rx="3" ry="3" style="stroke:#038048;stroke-width:1.0;"/><text fill="#000000" font-family="sans-serif" font-size="14" lengthAdjust="spacing" textLength="143" x="1280.5" y="393.5889">selectColour() : void</text><ellipse cx="1271.5" cy="406.5391" fill="#84BE84" rx="3" ry="3" style="stroke:#038048;stroke-width:1.0;"/><text fill="#000000" font-family="sans-serif" font-size="14" lengthAdjust="spacing" textLength="222" x="1280.5" y="409.8857">drawCommonObjective() : void</text><ellipse cx="1271.5" cy="422.8359" fill="#84BE84" rx="3" ry="3" style="stroke:#038048;stroke-width:1.0;"/><text fill="#000000" font-family="sans-serif" font-size="14" lengthAdjust="spacing" textLength="255" x="1280.5" y="426.1826">chooseSecretObjectiveCard() : void</text><ellipse cx="1271.5" cy="439.1328" fill="#84BE84" rx="3" ry="3" style="stroke:#038048;stroke-width:1.0;"/><text fill="#000000" font-family="sans-serif" font-size="14" lengthAdjust="spacing" textLength="159" x="1280.5" y="442.4795">PickFirstPlayer() : void</text></g><path d="M8.5,112 L47.5,112 A3.75,3.75 0 0 1 50,114.5 L57,134.2969 L61.5,134.2969 A2.5,2.5 0 0 1 64,136.7969 L64,162.0938 A2.5,2.5 0 0 1 61.5,164.5938 L8.5,164.5938 A2.5,2.5 0 0 1 6,162.0938 L6,114.5 A2.5,2.5 0 0 1 8.5,112 " fill="#F1F1F1" style="stroke:#181818;stroke-width:0.5;"/><line style="stroke:#181818;stroke-width:0.5;" x1="6" x2="57" y1="134.2969" y2="134.2969"/><text fill="#000000" font-family="sans-serif" font-size="14" font-weight="bold" lengthAdjust="spacing" textLength="38" x="10" y="126.9951">View</text><!--class Observer--><g id="elem_Observer"><rect codeLine="155" fill="#F1F1F1" height="56.2969" id="Observer" rx="2.5" ry="2.5" style="stroke:#181818;stroke-width:0.5;" width="131" x="99.5" y="110.5"/><ellipse cx="129.8" cy="126.5" fill="#B4A7E5" rx="11" ry="11" style="stroke:#181818;stroke-width:1.0;"/><path d="M130.7531,123.2813 L132.4719,123.2813 C132.8625,123.2813 133.05,123.25 133.175,123.1719 C133.4406,123.0156 133.5813,122.7344 133.5813,122.4375 C133.5813,122.1719 133.4719,121.9063 133.2375,121.7344 C133.0656,121.625 132.925,121.5938 132.4719,121.5938 L127.3313,121.5938 C126.8938,121.5938 126.7688,121.6094 126.6125,121.7031 C126.3625,121.8594 126.2063,122.1563 126.2063,122.4375 C126.2063,122.7188 126.3469,122.9688 126.5656,123.1406 C126.7219,123.25 126.9094,123.2813 127.3313,123.2813 L129.05,123.2813 L129.05,129.7969 L127.3313,129.7969 C126.8938,129.7969 126.7688,129.8125 126.6125,129.9219 C126.3625,130.0781 126.2063,130.3594 126.2063,130.6563 C126.2063,130.9063 126.3469,131.1719 126.5656,131.3281 C126.7219,131.4531 126.925,131.5 127.3313,131.5 L132.4719,131.5 C133.2219,131.5 133.5813,131.2188 133.5813,130.6563 C133.5813,130.375 133.4719,130.125 133.2375,129.9531 C133.0656,129.8281 132.925,129.7969 132.4719,129.7969 L130.7531,129.7969 L130.7531,123.2813 Z " fill="#000000"/><text fill="#000000" font-family="sans-serif" font-size="14" font-style="italic" lengthAdjust="spacing" textLength="65" x="147.2" y="131.3467">Observer</text><line style="stroke:#181818;stroke-width:0.5;" x1="100.5" x2="229.5" y1="142.5" y2="142.5"/><ellipse cx="110.5" cy="156.1484" fill="#84BE84" rx="3" ry="3" style="stroke:#038048;stroke-width:1.0;"/><text fill="#000000" font-family="sans-serif" font-size="14" lengthAdjust="spacing" textLength="105" x="119.5" y="159.4951">Update() : void</text></g><!--class Observable--><g id="elem_Observable"><rect codeLine="159" fill="#F1F1F1" height="88.8906" id="Observable" rx="2.5" ry="2.5" style="stroke:#181818;stroke-width:0.5;" width="200" x="266" y="94"/><ellipse cx="320.75" cy="110" fill="#ADD1B2" rx="11" ry="11" style="stroke:#181818;stroke-width:1.0;"/><path d="M323.0938,105.6719 C322.1563,105.2344 321.5625,105.0938 320.6875,105.0938 C318.0625,105.0938 316.0625,107.1719 316.0625,109.8906 L316.0625,111.0156 C316.0625,113.5938 318.1719,115.4844 321.0625,115.4844 C322.2813,115.4844 323.4375,115.1875 324.1875,114.6406 C324.7656,114.2344 325.0938,113.7813 325.0938,113.3906 C325.0938,112.9375 324.7031,112.5469 324.2344,112.5469 C324.0156,112.5469 323.8125,112.625 323.625,112.8125 C323.1719,113.2969 323.1719,113.2969 322.9844,113.3906 C322.5625,113.6563 321.875,113.7813 321.1094,113.7813 C319.0625,113.7813 317.7656,112.6875 317.7656,110.9844 L317.7656,109.8906 C317.7656,108.1094 319.0156,106.7969 320.75,106.7969 C321.3281,106.7969 321.9375,106.9531 322.4063,107.2031 C322.8906,107.4844 323.0625,107.7031 323.1563,108.1094 C323.2188,108.5156 323.25,108.6406 323.3906,108.7656 C323.5313,108.9063 323.7656,109.0156 323.9844,109.0156 C324.25,109.0156 324.5156,108.875 324.6875,108.6563 C324.7969,108.5 324.8281,108.3125 324.8281,107.8906 L324.8281,106.4688 C324.8281,106.0313 324.8125,105.9063 324.7188,105.75 C324.5625,105.4844 324.2813,105.3438 323.9844,105.3438 C323.6875,105.3438 323.4844,105.4375 323.2656,105.75 L323.0938,105.6719 Z " fill="#000000"/><text fill="#000000" font-family="sans-serif" font-size="14" lengthAdjust="spacing" textLength="82" x="341.25" y="114.8467">Observable</text><line style="stroke:#181818;stroke-width:0.5;" x1="267" x2="465" y1="126" y2="126"/><ellipse cx="277" cy="139.6484" fill="#84BE84" rx="3" ry="3" style="stroke:#038048;stroke-width:1.0;"/><text fill="#000000" font-family="sans-serif" font-size="14" lengthAdjust="spacing" textLength="143" x="286" y="142.9951">AddObserver(): void</text><ellipse cx="277" cy="155.9453" fill="#84BE84" rx="3" ry="3" style="stroke:#038048;stroke-width:1.0;"/><text fill="#000000" font-family="sans-serif" font-size="14" lengthAdjust="spacing" textLength="174" x="286" y="159.292">RemoveObserver(): void</text><ellipse cx="277" cy="172.2422" fill="#84BE84" rx="3" ry="3" style="stroke:#038048;stroke-width:1.0;"/><text fill="#000000" font-family="sans-serif" font-size="14" lengthAdjust="spacing" textLength="93" x="286" y="175.5889">Notify(): void</text></g><!--reverse link Card to ObjectiveCard--><g id="link_Card_ObjectiveCard"><path d="M748.3572,882.9216 C718.5622,918.7996 698.348,943.14 679.898,965.357 " fill="none" id="Card-backto-ObjectiveCard" style="stroke:#181818;stroke-width:1.0;"/><polygon fill="none" points="759.857,869.074,743.7414,879.0883,752.9731,886.7548,759.857,869.074" style="stroke:#181818;stroke-width:1.0;"/></g><!--reverse link Card to AngledCard--><g id="link_Card_AngledCard"><path d="M867.1175,886.1962 C873.7015,906.4992 874.974,910.418 880.964,928.887 " fill="none" id="Card-backto-AngledCard" style="stroke:#181818;stroke-width:1.0;"/><polygon fill="none" points="861.565,869.074,861.4101,888.047,872.8249,884.3454,861.565,869.074" style="stroke:#181818;stroke-width:1.0;"/></g><!--reverse link AngledCard to GoldCard--><g id="link_AngledCard_GoldCard"><path d="M780.3591,1050.5744 C743.6871,1070.3794 718.987,1083.72 685.298,1101.914 " fill="none" id="AngledCard-backto-GoldCard" style="stroke:#181818;stroke-width:1.0;"/><polygon fill="none" points="796.197,1042.021,777.508,1045.2951,783.2102,1055.8537,796.197,1042.021" style="stroke:#181818;stroke-width:1.0;"/></g><!--reverse link AngledCard to InitialCard--><g id="link_AngledCard_InitialCard"><path d="M899,1060.021 C899,1079.826 899,1083.72 899,1101.914 " fill="none" id="AngledCard-backto-InitialCard" style="stroke:#181818;stroke-width:1.0;"/><polygon fill="none" points="899,1042.021,893,1060.021,905,1060.021,899,1042.021" style="stroke:#181818;stroke-width:1.0;"/></g><!--reverse link AngledCard to ResourceCard--><g id="link_AngledCard_ResourceCard"><path d="M999.7116,1051.8145 C1043.1126,1079.9585 1077.9,1102.526 1108.7,1122.4964 " fill="none" id="AngledCard-backto-ResourceCard" style="stroke:#181818;stroke-width:1.0;"/><polygon fill="none" points="984.609,1042.021,996.4471,1056.8487,1002.9761,1046.7803,984.609,1042.021" style="stroke:#181818;stroke-width:1.0;"/></g><!--link Game to InitialGameController--><g id="link_Game_InitialGameController"><path codeLine="165" d="M1203.66,226.892 C1237.18,252.221 1273.39,279.582 1305.53,303.866 " fill="none" id="Game-InitialGameController" style="stroke:#181818;stroke-width:1.0;"/></g><!--link Game to GameController--><g id="link_Game_GameController"><path codeLine="166" d="M1203.56,149.96 C1368.98,166.45 1663.64,201.98 1757,253 C1776.77,263.802 1794.89,279.44 1810.53,295.965 " fill="none" id="Game-GameController" style="stroke:#181818;stroke-width:1.0;"/></g><!--link Game to GameHandler--><g id="link_Game_GameHandler"><path codeLine="167" d="M1203.58,146.49 C1304.25,157.21 1450.65,184.35 1559,253 C1585.51,269.799 1608.11,296.176 1625,320.204 " fill="none" id="Game-GameHandler" style="stroke:#181818;stroke-width:1.0;"/></g><!--link Game to PlayerController--><g id="link_Game_PlayerController"><path codeLine="168" d="M1203.67,143.78 C1413.99,153.26 1849.51,181.16 1981,253 C2006.54,266.955 2028.39,290.013 2045.31,312.416 " fill="none" id="Game-PlayerController" style="stroke:#181818;stroke-width:1.0;"/></g><!--link Game to Player--><g id="link_Game_Player"><path codeLine="169" d="M984.378,236.07 C978.471,241.77 972.644,247.443 967,253 C944.982,274.681 921.214,299.046 900.751,320.336 " fill="none" id="Game-Player" style="stroke:#181818;stroke-width:1.0;"/><text fill="#000000" font-family="sans-serif" font-size="13" lengthAdjust="spacing" textLength="8" x="968.4745" y="255.8699">1</text><text fill="#000000" font-family="sans-serif" font-size="13" lengthAdjust="spacing" textLength="28" x="877.4738" y="309.5796">1...4</text></g><!--link Game to Deck--><g id="link_Game_Deck"><path codeLine="170" d="M1089.63,236.035 C1090.23,271.159 1090.87,308.93 1091.33,336.372 " fill="none" id="Game-Deck" style="stroke:#181818;stroke-width:1.0;"/></g><!--link Deck to Card--><g id="link_Deck_Card"><path codeLine="171" d="M1099.68,417.72 C1107.68,470.549 1114.1,564.937 1074,631 C1040.88,685.565 979.249,722.877 926.606,746.389 " fill="none" id="Deck-Card" style="stroke:#181818;stroke-width:1.0;"/></g><!--link Player to Structure--><g id="link_Player_Structure"><path codeLine="172" d="M823.756,433.761 C806.189,474.165 783.484,526.386 771.415,554.145 " fill="none" id="Player-Structure" style="stroke:#181818;stroke-width:1.0;"/></g><!--link Player to Hand--><g id="link_Player_Hand"><path codeLine="173" d="M877.663,433.761 C891.652,460.057 908.304,491.359 922.298,517.665 " fill="none" id="Player-Hand" style="stroke:#181818;stroke-width:1.0;"/></g><!--link Structure to Card--><g id="link_Structure_Card"><path codeLine="174" d="M769.585,594.645 C777.209,616.808 790.3,654.865 802.615,690.667 " fill="none" id="Structure-Card" style="stroke:#181818;stroke-width:1.0;"/></g><!--SRC=[bLTDRniv3BtFhn1ocHPfl4ZJxC5Oh96uRJP0sWHnToz55b0qjAr68ncIngaJvBylgHdFQBwwhI-EIOga7gb7PYqpO91l_8uj9QZC9KdwvVhzzPIbINeyOHzqaOFbJz9eO4xczqP91amOPQmacxSJjhGW1B1CeZZV62TBwmrOvhmjl2yiPqTCSEk1ZfnCM0xUeFq5puFatOHvj3FeG7jhbCAZA3wTa4TWKZkmqi8R_Ebu_JD4K9nj9JoI-U-JHgN1FnhxC4Dvik7YWQ-0vIO3nPwJXE57AEvScS1p4D3dYE5rRnJVWNLJTEOx6ho157B3jU-eqoCsMtYUINCXZJ3HCL5O2zgNJgTiVdrrVVkXEJSxDzncT6_4Zt3ZLfeINhnVeJsiLhBnbuerY0Vc2gLIwJpNJvnnQ_akZcZotEZh-syWlDn2cUdNjtUHoKPn0TaS8zTQCaYQE9TQUibLMaiEMMRvuoquKrW1uUYhrspAjaPc7QCBeuBlCVq2X0LV9zWtIoz0OzEreg_0tnXCDOeQj2znEKkKsmMLua5ZbQTiuQtKgnPGY7AhC4axuEVgxAlNlTD1FsySa4dfeaegoegmY79Ag-eggdCcbrAi9S-nOwccsOmPqZYkjYWrM1rMQEnnRcTHwZ80t6rHT0SVBJwXAHDhRh_UTNJd-126LEYgnBPiXhiE39TLDTlXAWIgYAJjEAuDAEoelevT-QyCMcMjMoKW2TyzwAmFgvSRmp92qTnBy6WV-8G1lbn2jGARUpDh6YlLQ445iD8XlPcIS10HxZqooTCJfqer7jD-TcTwfSh7D9PQ2V7SMBtdbUh1rLba8928CTIMXzv0RinWoGlb0yc9S9HHhXiB3laaS64GxWL1AuWxLtZ5D-mo-utu0_-suKBMyxIJqM97V8uPBIu_dMFpxccWLw4gzNs9sidNLfMxy5fQ3dkGxHcY1Yp2C8RDLdGJfNXwrwdulopZU9iDidvKrau5WsLKn7RoUrPhfNuwa7V5YZ-Jkg2QsDl-1Kww5uZIxs3QTX4dTpAGNCpDWzcrh97F2e6J6JhozpHVdWS6JebX9f4GfK22mix2xxYbLbXLEZvbLpYR_g2WVmuKSz2abSDVNBV1TEs9qUCzcaPqg6pFasuBzmRE49FjVUoRl8RufTaWelMajKRCbSHQpMDjarrOJwRi7_oAGhgrUJnJoZnYTOpMb9dHWoDLkYjyqcfOzMdtfR1wSDA2tWt9jV5osT4C3D6HowneOPg6lIdoYV1o3_j9s8_fobbPZ2XjCsZxwcyu7IvwkfVk5lTB-T8MChQX32mQZH8NfztOGR4sni4DxhzKod6B1JBzkBRllNTLwjAVkoVUXII3Ly47RCUrI1x_0th5XR-ClGE5pRwWw6D8b2RZ7HFArzvoVm1t-_6FLUy6M_2ZjCuFTN4WWPe5w2NJ-oVX9L7q4hTfN5AmaRSr18Vixqs6Zw9nXDRpQfqXItwleBOzoxBzUUAVEl0XidfkjZ2Y_5ozvIP2-8Vcw6YuEhNs1-AgkMfPbmrAnS7n0IaFZYUJoRk3ogW-GmoVX462FmZmf5hCyMSzTo8PnKoQWLGT-Wy0]--></g></svg>